G04 Layer: BottomSilkscreenLayer*
G04 EasyEDA v6.5.50, 2025-07-03 15:13:51*
G04 8d76fbbc2b194bbaa74efcbd6b1309bf,9a905054fedc498b9ef7db2e0bce7d6d,10*
G04 Gerber Generator version 0.2*
G04 Scale: 100 percent, Rotated: No, Reflected: No *
G04 Dimensions in millimeters *
G04 leading zeros omitted , absolute positions ,4 integer and 5 decimal *
%FSLAX45Y45*%
%MOMM*%

%ADD10C,0.1524*%
%ADD11C,0.2540*%
%ADD12C,0.1001*%
%ADD13C,0.0154*%

%LPD*%
G36*
X2635148Y9243974D02*
G01*
X2634589Y9243720D01*
X2634589Y9235033D01*
X2642870Y9235033D01*
X2643022Y9235694D01*
X2682341Y9235541D01*
X2682341Y9196222D01*
X2681681Y9196070D01*
X2642920Y9196120D01*
X2642870Y9235033D01*
X2634589Y9235033D01*
X2634589Y9188145D01*
X2634945Y9187789D01*
X2690469Y9187789D01*
X2690774Y9188348D01*
X2690774Y9243466D01*
X2690317Y9243974D01*
G37*
G36*
X2563266Y9243974D02*
G01*
X2562707Y9243720D01*
X2562707Y9236049D01*
X2563063Y9235694D01*
X2570327Y9235694D01*
X2570683Y9235338D01*
X2570683Y9228226D01*
X2570226Y9228023D01*
X2555290Y9228023D01*
X2554681Y9227718D01*
X2554681Y9211106D01*
X2578963Y9211106D01*
X2579116Y9211767D01*
X2586634Y9211767D01*
X2586939Y9212326D01*
X2587142Y9219742D01*
X2594305Y9219742D01*
X2594660Y9219387D01*
X2594660Y9212122D01*
X2595016Y9211767D01*
X2602280Y9211767D01*
X2602636Y9211411D01*
X2602636Y9204096D01*
X2602992Y9203740D01*
X2610256Y9203740D01*
X2610612Y9203385D01*
X2610612Y9196273D01*
X2610154Y9196070D01*
X2603195Y9196070D01*
X2602636Y9195765D01*
X2602636Y9195104D01*
X2610916Y9195104D01*
X2611069Y9195765D01*
X2618232Y9195765D01*
X2618587Y9195409D01*
X2618587Y9188246D01*
X2617927Y9188094D01*
X2610967Y9188145D01*
X2610916Y9195104D01*
X2602636Y9195104D01*
X2602636Y9180271D01*
X2601976Y9180068D01*
X2595016Y9180169D01*
X2594864Y9195765D01*
X2594406Y9196070D01*
X2587244Y9196070D01*
X2586634Y9195765D01*
X2586634Y9188246D01*
X2585974Y9188094D01*
X2579014Y9188145D01*
X2578963Y9211106D01*
X2554681Y9211106D01*
X2554681Y9180271D01*
X2554224Y9180118D01*
X2539288Y9180118D01*
X2538730Y9179814D01*
X2538730Y9156293D01*
X2538272Y9156141D01*
X2531313Y9156141D01*
X2530754Y9155836D01*
X2530754Y9140342D01*
X2530246Y9140139D01*
X2523337Y9140139D01*
X2522728Y9139834D01*
X2522728Y9132366D01*
X2522270Y9132163D01*
X2515311Y9132163D01*
X2514752Y9131858D01*
X2514752Y9124238D01*
X2515108Y9123883D01*
X2522728Y9123883D01*
X2523032Y9124442D01*
X2523236Y9131858D01*
X2530703Y9131858D01*
X2531008Y9132468D01*
X2531211Y9139834D01*
X2538374Y9139834D01*
X2538730Y9139478D01*
X2538730Y9131198D01*
X2562961Y9131198D01*
X2563164Y9131858D01*
X2570327Y9131858D01*
X2570683Y9131503D01*
X2570683Y9131198D01*
X2578963Y9131198D01*
X2579116Y9131858D01*
X2586278Y9131858D01*
X2586634Y9131503D01*
X2586634Y9124340D01*
X2585974Y9124188D01*
X2579014Y9124238D01*
X2578963Y9131198D01*
X2570683Y9131198D01*
X2570683Y9124238D01*
X2571038Y9123883D01*
X2578303Y9123883D01*
X2578658Y9123527D01*
X2578658Y9116364D01*
X2578201Y9116212D01*
X2571242Y9116212D01*
X2570683Y9115907D01*
X2570683Y9108338D01*
X2570022Y9108186D01*
X2563063Y9108287D01*
X2562961Y9131198D01*
X2538730Y9131198D01*
X2538730Y9124340D01*
X2538272Y9124188D01*
X2531313Y9124188D01*
X2530754Y9123883D01*
X2530754Y9116364D01*
X2530246Y9116212D01*
X2523337Y9116212D01*
X2522728Y9115907D01*
X2522728Y9107220D01*
X2531008Y9107220D01*
X2531211Y9107881D01*
X2554325Y9107881D01*
X2554681Y9107576D01*
X2554681Y9091269D01*
X2562961Y9091269D01*
X2563164Y9091930D01*
X2570683Y9091930D01*
X2570988Y9092488D01*
X2571140Y9107881D01*
X2578658Y9107881D01*
X2578963Y9108490D01*
X2579166Y9115907D01*
X2594305Y9115907D01*
X2594660Y9115552D01*
X2594660Y9100261D01*
X2595016Y9099905D01*
X2602280Y9099905D01*
X2602636Y9099550D01*
X2602636Y9092387D01*
X2602179Y9092234D01*
X2595219Y9092234D01*
X2594660Y9091930D01*
X2594660Y9091269D01*
X2610916Y9091269D01*
X2611069Y9091930D01*
X2618232Y9091930D01*
X2618587Y9091574D01*
X2618587Y9084411D01*
X2617927Y9084208D01*
X2610967Y9084310D01*
X2610916Y9091269D01*
X2594660Y9091269D01*
X2594660Y9084411D01*
X2594152Y9084259D01*
X2587244Y9084259D01*
X2586634Y9083954D01*
X2586634Y9083294D01*
X2594914Y9083294D01*
X2595067Y9083954D01*
X2602280Y9083954D01*
X2602636Y9083598D01*
X2602636Y9076385D01*
X2601976Y9076232D01*
X2595016Y9076334D01*
X2594914Y9083294D01*
X2586634Y9083294D01*
X2586634Y9076436D01*
X2586177Y9076232D01*
X2579217Y9076232D01*
X2578658Y9075928D01*
X2578658Y9068409D01*
X2577998Y9068257D01*
X2571038Y9068358D01*
X2570886Y9083903D01*
X2570632Y9084157D01*
X2563063Y9084310D01*
X2562961Y9091269D01*
X2554681Y9091269D01*
X2554681Y9084411D01*
X2554020Y9084208D01*
X2531110Y9084310D01*
X2531008Y9107220D01*
X2522728Y9107220D01*
X2522728Y9100413D01*
X2522270Y9100210D01*
X2515311Y9100210D01*
X2514752Y9099905D01*
X2514752Y9084411D01*
X2514092Y9084208D01*
X2507132Y9084310D01*
X2507081Y9107220D01*
X2507234Y9107881D01*
X2514752Y9107881D01*
X2515057Y9108490D01*
X2515057Y9115704D01*
X2514600Y9116212D01*
X2507335Y9116212D01*
X2506776Y9115907D01*
X2506776Y9108338D01*
X2506116Y9108186D01*
X2499156Y9108287D01*
X2499004Y9115907D01*
X2498547Y9116161D01*
X2491384Y9116212D01*
X2490774Y9115907D01*
X2490774Y9108236D01*
X2491130Y9107881D01*
X2498445Y9107881D01*
X2498801Y9107576D01*
X2498801Y9100413D01*
X2498293Y9100210D01*
X2491384Y9100210D01*
X2490774Y9099905D01*
X2490774Y9084310D01*
X2491130Y9083954D01*
X2506421Y9083954D01*
X2506776Y9083598D01*
X2506776Y9076283D01*
X2507132Y9075928D01*
X2514752Y9075928D01*
X2515057Y9076537D01*
X2515209Y9083954D01*
X2522372Y9083954D01*
X2522728Y9083598D01*
X2522728Y9071813D01*
X2539034Y9071813D01*
X2539187Y9075928D01*
X2554325Y9075928D01*
X2554681Y9075572D01*
X2554681Y9068409D01*
X2554020Y9068257D01*
X2539085Y9068358D01*
X2539034Y9071813D01*
X2522728Y9071813D01*
X2522728Y9068460D01*
X2522270Y9068257D01*
X2515311Y9068257D01*
X2514752Y9067952D01*
X2514752Y9044330D01*
X2515108Y9044025D01*
X2530703Y9044025D01*
X2531008Y9044584D01*
X2530906Y9059976D01*
X2530754Y9060180D01*
X2523134Y9060332D01*
X2523032Y9067292D01*
X2523185Y9067952D01*
X2538374Y9067952D01*
X2538730Y9067596D01*
X2538730Y9067292D01*
X2578963Y9067292D01*
X2579116Y9067952D01*
X2586278Y9067952D01*
X2586634Y9067596D01*
X2586634Y9060434D01*
X2585974Y9060281D01*
X2579014Y9060332D01*
X2578963Y9067292D01*
X2538730Y9067292D01*
X2538730Y9060332D01*
X2539085Y9059976D01*
X2554325Y9059976D01*
X2554681Y9059621D01*
X2554681Y9059316D01*
X2594914Y9059316D01*
X2595067Y9059976D01*
X2602280Y9059976D01*
X2602636Y9059621D01*
X2602636Y9052458D01*
X2601976Y9052255D01*
X2595016Y9052356D01*
X2594914Y9059316D01*
X2554681Y9059316D01*
X2554681Y9052356D01*
X2555036Y9052001D01*
X2562352Y9052001D01*
X2562707Y9051645D01*
X2562707Y9044330D01*
X2563063Y9044025D01*
X2578658Y9044025D01*
X2578963Y9044584D01*
X2578963Y9051493D01*
X2579166Y9052001D01*
X2594305Y9052001D01*
X2594660Y9051645D01*
X2594660Y9044330D01*
X2595016Y9044025D01*
X2610612Y9044025D01*
X2610916Y9044584D01*
X2611069Y9075928D01*
X2626563Y9075928D01*
X2626868Y9076537D01*
X2627071Y9107881D01*
X2642565Y9107881D01*
X2642870Y9108490D01*
X2642870Y9115653D01*
X2642565Y9116110D01*
X2626969Y9116263D01*
X2626817Y9123883D01*
X2626360Y9124188D01*
X2619197Y9124188D01*
X2618587Y9123883D01*
X2618587Y9116364D01*
X2618130Y9116212D01*
X2611170Y9116212D01*
X2610612Y9115907D01*
X2610612Y9115247D01*
X2618892Y9115247D01*
X2619044Y9115907D01*
X2626258Y9115907D01*
X2626614Y9115552D01*
X2626614Y9108338D01*
X2625902Y9108186D01*
X2618994Y9108287D01*
X2618892Y9115247D01*
X2610612Y9115247D01*
X2610612Y9108236D01*
X2610967Y9107881D01*
X2618232Y9107881D01*
X2618587Y9107576D01*
X2618587Y9100362D01*
X2617927Y9100210D01*
X2602992Y9100312D01*
X2602839Y9115856D01*
X2602585Y9116110D01*
X2595016Y9116263D01*
X2594914Y9123222D01*
X2595067Y9123883D01*
X2602636Y9123883D01*
X2602941Y9124442D01*
X2602941Y9139631D01*
X2602636Y9140088D01*
X2595016Y9140240D01*
X2594914Y9147200D01*
X2595067Y9147860D01*
X2602636Y9147860D01*
X2602941Y9148419D01*
X2602941Y9155684D01*
X2602484Y9156141D01*
X2595219Y9156141D01*
X2594660Y9155836D01*
X2594660Y9148318D01*
X2594000Y9148114D01*
X2587040Y9148216D01*
X2586888Y9171838D01*
X2586431Y9172092D01*
X2571242Y9172092D01*
X2570683Y9171787D01*
X2570683Y9164167D01*
X2571038Y9163812D01*
X2578303Y9163812D01*
X2578658Y9163456D01*
X2578658Y9156293D01*
X2578201Y9156141D01*
X2571242Y9156141D01*
X2570683Y9155836D01*
X2570683Y9148216D01*
X2571038Y9147860D01*
X2578303Y9147860D01*
X2578658Y9147505D01*
X2578658Y9132316D01*
X2577998Y9132163D01*
X2571038Y9132214D01*
X2570886Y9139834D01*
X2570632Y9140088D01*
X2555087Y9140240D01*
X2554986Y9147200D01*
X2555138Y9147860D01*
X2562656Y9147860D01*
X2562961Y9148419D01*
X2562860Y9163812D01*
X2562707Y9164066D01*
X2547061Y9164218D01*
X2547010Y9171127D01*
X2547162Y9171787D01*
X2554681Y9171787D01*
X2554986Y9172397D01*
X2555189Y9179814D01*
X2562656Y9179814D01*
X2562961Y9180372D01*
X2563164Y9195765D01*
X2570327Y9195765D01*
X2570683Y9195409D01*
X2570683Y9188145D01*
X2571038Y9187789D01*
X2578303Y9187789D01*
X2578658Y9187434D01*
X2578658Y9180169D01*
X2579014Y9179814D01*
X2594305Y9179814D01*
X2594660Y9179458D01*
X2594660Y9179153D01*
X2610916Y9179153D01*
X2611069Y9179814D01*
X2618232Y9179814D01*
X2618587Y9179458D01*
X2618587Y9172143D01*
X2618943Y9171787D01*
X2626258Y9171787D01*
X2626614Y9171432D01*
X2626614Y9164167D01*
X2626969Y9163812D01*
X2634234Y9163812D01*
X2634589Y9163456D01*
X2634589Y9156293D01*
X2633929Y9156141D01*
X2618994Y9156192D01*
X2618841Y9163812D01*
X2618587Y9164066D01*
X2610967Y9164218D01*
X2610916Y9179153D01*
X2594660Y9179153D01*
X2594660Y9164167D01*
X2595016Y9163812D01*
X2610256Y9163812D01*
X2610612Y9163456D01*
X2610612Y9156192D01*
X2610967Y9155836D01*
X2618232Y9155836D01*
X2618587Y9155480D01*
X2618587Y9155176D01*
X2634843Y9155176D01*
X2635046Y9155836D01*
X2642565Y9155836D01*
X2642870Y9156395D01*
X2642870Y9163608D01*
X2642565Y9164066D01*
X2634945Y9164218D01*
X2635046Y9171787D01*
X2650185Y9171787D01*
X2650540Y9171432D01*
X2650540Y9171127D01*
X2674823Y9171127D01*
X2674975Y9171787D01*
X2682138Y9171787D01*
X2682494Y9171432D01*
X2682494Y9164269D01*
X2681833Y9164116D01*
X2674874Y9164218D01*
X2674823Y9171127D01*
X2650540Y9171127D01*
X2650540Y9163151D01*
X2658821Y9163151D01*
X2658973Y9163812D01*
X2666187Y9163812D01*
X2666542Y9163456D01*
X2666542Y9148318D01*
X2665882Y9148114D01*
X2658922Y9148216D01*
X2658821Y9163151D01*
X2650540Y9163151D01*
X2650540Y9148216D01*
X2650896Y9147860D01*
X2658211Y9147860D01*
X2658567Y9147505D01*
X2658567Y9140190D01*
X2658922Y9139834D01*
X2666187Y9139834D01*
X2666542Y9139478D01*
X2666542Y9132366D01*
X2666085Y9132163D01*
X2659126Y9132163D01*
X2658567Y9131858D01*
X2658567Y9127744D01*
X2666847Y9127744D01*
X2667000Y9131858D01*
X2682138Y9131858D01*
X2682494Y9131503D01*
X2682494Y9124340D01*
X2681833Y9124188D01*
X2666898Y9124238D01*
X2666847Y9127744D01*
X2658567Y9127744D01*
X2658567Y9124340D01*
X2657856Y9124188D01*
X2650947Y9124238D01*
X2650794Y9139834D01*
X2650540Y9140088D01*
X2642920Y9140240D01*
X2642768Y9147810D01*
X2642565Y9148064D01*
X2634945Y9148216D01*
X2634843Y9155176D01*
X2618587Y9155176D01*
X2618587Y9148216D01*
X2618943Y9147860D01*
X2634234Y9147860D01*
X2634589Y9147505D01*
X2634589Y9140342D01*
X2634132Y9140139D01*
X2627172Y9140139D01*
X2626614Y9139834D01*
X2626614Y9139174D01*
X2634843Y9139174D01*
X2635046Y9139834D01*
X2642209Y9139834D01*
X2642565Y9139478D01*
X2642565Y9132316D01*
X2641904Y9132163D01*
X2634945Y9132214D01*
X2634843Y9139174D01*
X2626614Y9139174D01*
X2626614Y9132214D01*
X2626969Y9131858D01*
X2634234Y9131858D01*
X2634589Y9131503D01*
X2634589Y9124238D01*
X2634945Y9123883D01*
X2650185Y9123883D01*
X2650540Y9123527D01*
X2650540Y9108236D01*
X2650896Y9107881D01*
X2674518Y9107881D01*
X2674823Y9108490D01*
X2674975Y9115907D01*
X2682138Y9115907D01*
X2682494Y9115552D01*
X2682494Y9108236D01*
X2682849Y9107881D01*
X2690469Y9107881D01*
X2690774Y9108490D01*
X2690672Y9115907D01*
X2690520Y9116110D01*
X2682900Y9116263D01*
X2682798Y9123222D01*
X2682951Y9123883D01*
X2690469Y9123883D01*
X2690774Y9124442D01*
X2690672Y9131858D01*
X2690520Y9132112D01*
X2682900Y9132214D01*
X2682748Y9139834D01*
X2682494Y9140088D01*
X2666898Y9140240D01*
X2666847Y9147200D01*
X2667000Y9147860D01*
X2674518Y9147860D01*
X2674823Y9148419D01*
X2674975Y9155836D01*
X2682138Y9155836D01*
X2682494Y9155480D01*
X2682494Y9148216D01*
X2682849Y9147860D01*
X2690469Y9147860D01*
X2690774Y9148419D01*
X2690774Y9179610D01*
X2690317Y9180118D01*
X2667101Y9180118D01*
X2666542Y9179814D01*
X2666542Y9172244D01*
X2665882Y9172092D01*
X2658922Y9172194D01*
X2658770Y9179763D01*
X2658516Y9180017D01*
X2626969Y9180169D01*
X2626817Y9195765D01*
X2626563Y9196019D01*
X2618994Y9196120D01*
X2618841Y9203740D01*
X2618587Y9203994D01*
X2610967Y9204147D01*
X2610916Y9211106D01*
X2611069Y9211767D01*
X2618587Y9211767D01*
X2618892Y9212326D01*
X2619095Y9219742D01*
X2626563Y9219742D01*
X2626868Y9220301D01*
X2626766Y9227718D01*
X2626614Y9227972D01*
X2610967Y9228124D01*
X2610916Y9235033D01*
X2611069Y9235694D01*
X2618587Y9235694D01*
X2618892Y9236303D01*
X2618892Y9243517D01*
X2618435Y9243974D01*
X2610916Y9243872D01*
X2610612Y9243720D01*
X2610612Y9236151D01*
X2609951Y9235998D01*
X2595016Y9236100D01*
X2594864Y9243720D01*
X2594406Y9243974D01*
X2586939Y9243872D01*
X2586634Y9243720D01*
X2586634Y9227058D01*
X2594914Y9227058D01*
X2595067Y9227718D01*
X2602280Y9227718D01*
X2602636Y9227362D01*
X2602636Y9220200D01*
X2601976Y9220047D01*
X2595016Y9220098D01*
X2594914Y9227058D01*
X2586634Y9227058D01*
X2586634Y9220200D01*
X2585974Y9220047D01*
X2579014Y9220098D01*
X2578862Y9243720D01*
X2578455Y9243974D01*
G37*
G36*
X2491384Y9243974D02*
G01*
X2490774Y9243720D01*
X2490774Y9235033D01*
X2499055Y9235033D01*
X2499258Y9235694D01*
X2538577Y9235541D01*
X2538577Y9196222D01*
X2537917Y9196070D01*
X2499156Y9196120D01*
X2499055Y9235033D01*
X2490774Y9235033D01*
X2490774Y9188145D01*
X2491130Y9187789D01*
X2546705Y9187789D01*
X2547010Y9188348D01*
X2547010Y9243466D01*
X2546502Y9243974D01*
G37*
G36*
X2651150Y9228023D02*
G01*
X2650540Y9227718D01*
X2650540Y9204096D01*
X2650896Y9203740D01*
X2674518Y9203740D01*
X2674823Y9204350D01*
X2674823Y9227566D01*
X2674366Y9228023D01*
G37*
G36*
X2507335Y9228023D02*
G01*
X2506776Y9227718D01*
X2506776Y9204096D01*
X2507132Y9203740D01*
X2530703Y9203740D01*
X2531008Y9204350D01*
X2531008Y9227566D01*
X2530551Y9228023D01*
G37*
G36*
X2507335Y9180118D02*
G01*
X2506776Y9179814D01*
X2506776Y9172295D01*
X2506319Y9172092D01*
X2499360Y9172092D01*
X2498801Y9171787D01*
X2498801Y9164167D01*
X2499156Y9163812D01*
X2506776Y9163812D01*
X2507081Y9164370D01*
X2507234Y9171787D01*
X2514752Y9171787D01*
X2515057Y9172397D01*
X2515057Y9179610D01*
X2514600Y9180118D01*
G37*
G36*
X2523337Y9172092D02*
G01*
X2522728Y9171787D01*
X2522728Y9164320D01*
X2522270Y9164116D01*
X2515311Y9164116D01*
X2514752Y9163812D01*
X2514752Y9156192D01*
X2515108Y9155836D01*
X2522728Y9155836D01*
X2523032Y9156395D01*
X2523236Y9163812D01*
X2530703Y9163812D01*
X2531008Y9164370D01*
X2531008Y9171635D01*
X2530551Y9172092D01*
G37*
G36*
X2491384Y9156141D02*
G01*
X2490774Y9155836D01*
X2490774Y9124238D01*
X2491130Y9123883D01*
X2498750Y9123883D01*
X2499106Y9124442D01*
X2499258Y9139834D01*
X2514752Y9139834D01*
X2515057Y9140444D01*
X2515057Y9147606D01*
X2514752Y9148064D01*
X2507132Y9148216D01*
X2506980Y9155836D01*
X2506573Y9156141D01*
G37*
G36*
X2635148Y9100210D02*
G01*
X2634589Y9099905D01*
X2634589Y9091269D01*
X2642870Y9091269D01*
X2643022Y9091930D01*
X2682341Y9091777D01*
X2682341Y9052458D01*
X2681681Y9052255D01*
X2642920Y9052356D01*
X2642870Y9091269D01*
X2634589Y9091269D01*
X2634589Y9044330D01*
X2634945Y9044025D01*
X2690469Y9044025D01*
X2690774Y9044584D01*
X2690774Y9099651D01*
X2690317Y9100210D01*
G37*
G36*
X2579217Y9100210D02*
G01*
X2578658Y9099905D01*
X2578658Y9092285D01*
X2579014Y9091930D01*
X2586634Y9091930D01*
X2586939Y9092488D01*
X2586939Y9099753D01*
X2586482Y9100210D01*
G37*
G36*
X2539288Y9100210D02*
G01*
X2538730Y9099905D01*
X2538730Y9092285D01*
X2539085Y9091930D01*
X2546705Y9091930D01*
X2547010Y9092488D01*
X2547010Y9099753D01*
X2546553Y9100210D01*
G37*
G36*
X2651150Y9084259D02*
G01*
X2650540Y9083954D01*
X2650540Y9060332D01*
X2650896Y9059976D01*
X2674518Y9059976D01*
X2674823Y9060535D01*
X2674823Y9083751D01*
X2674366Y9084259D01*
G37*
G36*
X2619197Y9068257D02*
G01*
X2618587Y9067952D01*
X2618587Y9044330D01*
X2618943Y9044025D01*
X2626563Y9044025D01*
X2626868Y9044584D01*
X2626868Y9067800D01*
X2626410Y9068257D01*
G37*
G36*
X2491384Y9068257D02*
G01*
X2490774Y9067952D01*
X2490774Y9044330D01*
X2491130Y9044025D01*
X2506776Y9044025D01*
X2507081Y9044584D01*
X2507081Y9051747D01*
X2506776Y9052204D01*
X2499156Y9052356D01*
X2499004Y9067952D01*
X2498547Y9068257D01*
G37*
D10*
X6464300Y9352856D02*
G01*
X6453908Y9358053D01*
X6438323Y9373638D01*
X6438323Y9264535D01*
X6372859Y9373638D02*
G01*
X6388445Y9368444D01*
X6398836Y9352856D01*
X6404033Y9326879D01*
X6404033Y9311294D01*
X6398836Y9285315D01*
X6388445Y9269729D01*
X6372859Y9264535D01*
X6362468Y9264535D01*
X6346883Y9269729D01*
X6336492Y9285315D01*
X6331295Y9311294D01*
X6331295Y9326879D01*
X6336492Y9352856D01*
X6346883Y9368444D01*
X6362468Y9373638D01*
X6372859Y9373638D01*
X6297005Y9352856D02*
G01*
X6286614Y9358053D01*
X6271028Y9373638D01*
X6271028Y9264535D01*
X3619500Y9594156D02*
G01*
X3609108Y9599353D01*
X3593523Y9614938D01*
X3593523Y9505835D01*
X3528059Y9614938D02*
G01*
X3543645Y9609744D01*
X3554036Y9594156D01*
X3559233Y9568179D01*
X3559233Y9552594D01*
X3554036Y9526615D01*
X3543645Y9511029D01*
X3528059Y9505835D01*
X3517668Y9505835D01*
X3502083Y9511029D01*
X3491692Y9526615D01*
X3486495Y9552594D01*
X3486495Y9568179D01*
X3491692Y9594156D01*
X3502083Y9609744D01*
X3517668Y9614938D01*
X3528059Y9614938D01*
X3452205Y9614938D02*
G01*
X3452205Y9505835D01*
X3379470Y9614938D02*
G01*
X3452205Y9542203D01*
X3426228Y9568179D02*
G01*
X3379470Y9505835D01*
X5005834Y9023350D02*
G01*
X5005834Y8945371D01*
X5000754Y8929878D01*
X4990340Y8919463D01*
X4974592Y8914384D01*
X4964178Y8914384D01*
X4948684Y8919463D01*
X4938270Y8929878D01*
X4933190Y8945371D01*
X4933190Y9023350D01*
X4826002Y9023350D02*
G01*
X4878072Y8914384D01*
X4898900Y9023350D02*
G01*
X4826002Y9023350D01*
X4140352Y7760715D02*
G01*
X4140352Y7682737D01*
X4135018Y7667244D01*
X4124604Y7656829D01*
X4109110Y7651495D01*
X4098696Y7651495D01*
X4083202Y7656829D01*
X4072788Y7667244D01*
X4067454Y7682737D01*
X4067454Y7760715D01*
X4007256Y7760715D02*
G01*
X4022750Y7755381D01*
X4028084Y7745221D01*
X4028084Y7734808D01*
X4022750Y7724394D01*
X4012590Y7719060D01*
X3991762Y7713979D01*
X3976014Y7708645D01*
X3965600Y7698231D01*
X3960520Y7688071D01*
X3960520Y7672323D01*
X3965600Y7661910D01*
X3970934Y7656829D01*
X3986428Y7651495D01*
X4007256Y7651495D01*
X4022750Y7656829D01*
X4028084Y7661910D01*
X4033164Y7672323D01*
X4033164Y7688071D01*
X4028084Y7698231D01*
X4017670Y7708645D01*
X4002176Y7713979D01*
X3981348Y7719060D01*
X3970934Y7724394D01*
X3965600Y7734808D01*
X3965600Y7745221D01*
X3970934Y7755381D01*
X3986428Y7760715D01*
X4007256Y7760715D01*
X6477000Y9733856D02*
G01*
X6466608Y9739053D01*
X6451023Y9754638D01*
X6451023Y9645535D01*
X6385559Y9754638D02*
G01*
X6401145Y9749444D01*
X6411536Y9733856D01*
X6416733Y9707879D01*
X6416733Y9692294D01*
X6411536Y9666315D01*
X6401145Y9650729D01*
X6385559Y9645535D01*
X6375168Y9645535D01*
X6359583Y9650729D01*
X6349192Y9666315D01*
X6343995Y9692294D01*
X6343995Y9707879D01*
X6349192Y9733856D01*
X6359583Y9749444D01*
X6375168Y9754638D01*
X6385559Y9754638D01*
X6278534Y9754638D02*
G01*
X6294120Y9749444D01*
X6304511Y9733856D01*
X6309705Y9707879D01*
X6309705Y9692294D01*
X6304511Y9666315D01*
X6294120Y9650729D01*
X6278534Y9645535D01*
X6268143Y9645535D01*
X6252555Y9650729D01*
X6242164Y9666315D01*
X6236970Y9692294D01*
X6236970Y9707879D01*
X6242164Y9733856D01*
X6252555Y9749444D01*
X6268143Y9754638D01*
X6278534Y9754638D01*
X1549400Y9614915D02*
G01*
X1549400Y9505950D01*
X1549400Y9614915D02*
G01*
X1502663Y9614915D01*
X1487170Y9609836D01*
X1481836Y9604502D01*
X1476756Y9594087D01*
X1476756Y9583674D01*
X1481836Y9573260D01*
X1487170Y9568179D01*
X1502663Y9563100D01*
X1549400Y9563100D02*
G01*
X1502663Y9563100D01*
X1487170Y9557765D01*
X1481836Y9552686D01*
X1476756Y9542271D01*
X1476756Y9526524D01*
X1481836Y9516110D01*
X1487170Y9511029D01*
X1502663Y9505950D01*
X1549400Y9505950D01*
X1405890Y9614915D02*
G01*
X1405890Y9505950D01*
X1442465Y9614915D02*
G01*
X1369568Y9614915D01*
X1330197Y9589008D02*
G01*
X1330197Y9594087D01*
X1324863Y9604502D01*
X1319784Y9609836D01*
X1309370Y9614915D01*
X1288541Y9614915D01*
X1278127Y9609836D01*
X1273047Y9604502D01*
X1267713Y9594087D01*
X1267713Y9583674D01*
X1273047Y9573260D01*
X1283461Y9557765D01*
X1335277Y9505950D01*
X1262634Y9505950D01*
D11*
X6155100Y9029700D02*
G01*
X6785102Y9029700D01*
X6144259Y9230360D02*
G01*
X6144259Y9030360D01*
X6784340Y9230360D02*
G01*
X6154338Y9230360D01*
X6784340Y9032239D02*
G01*
X6784340Y9232239D01*
X3310300Y9271000D02*
G01*
X3940302Y9271000D01*
X3299459Y9471660D02*
G01*
X3299459Y9271660D01*
X3939540Y9471660D02*
G01*
X3309538Y9471660D01*
X3939540Y9273539D02*
G01*
X3939540Y9473539D01*
X5049390Y9497187D02*
G01*
X4653409Y9497187D01*
X6167800Y9410700D02*
G01*
X6797802Y9410700D01*
X6156959Y9611360D02*
G01*
X6156959Y9411360D01*
X6797040Y9611360D02*
G01*
X6167038Y9611360D01*
X6797040Y9413239D02*
G01*
X6797040Y9613239D01*
D12*
X1848865Y9358401D02*
G01*
X1911858Y9358401D01*
X2306853Y9214408D01*
X1248867Y9358401D02*
G01*
X1002868Y9358401D01*
X794867Y9150400D01*
X794867Y7410424D01*
X1002868Y7202423D01*
X1248867Y7202423D01*
X1848865Y7202423D02*
G01*
X1911858Y7202423D01*
X2306853Y7346416D01*
D11*
G75*
G01*
X5049520Y9497314D02*
G02*
X4653280Y9497314I-198120J-149840D01*
D12*
G75*
G01*
X2403856Y7680427D02*
G02*
X2404212Y8880881I780995J599996D01*
G75*
G01*
X2306853Y9214409D02*
G02*
X2405507Y8880754I-72998J-202996D01*
G75*
G01*
X2403856Y7680427D02*
G02*
X2307692Y7347890I-170007J-131010D01*
D11*
G75*
G01
X4356176Y7391349D02*
G03X4356176Y7391349I-215900J0D01*
M02*
