G04 Layer: TopSilkscreenLayer*
G04 EasyEDA v6.5.50, 2025-04-23 09:50:51*
G04 6c52469611e04d4ea3f073e56dba2c01,9a905054fedc498b9ef7db2e0bce7d6d,10*
G04 Gerber Generator version 0.2*
G04 Scale: 100 percent, Rotated: No, Reflected: No *
G04 Dimensions in millimeters *
G04 leading zeros omitted , absolute positions ,4 integer and 5 decimal *
%FSLAX45Y45*%
%MOMM*%

%ADD10C,0.1524*%
%ADD11C,0.2540*%
%ADD12C,0.0152*%

%LPD*%
G36*
X7704378Y7261098D02*
G01*
X7699502Y7255713D01*
X7699502Y6783324D01*
X7783830Y6783324D01*
X7783830Y7176516D01*
X7787538Y7178040D01*
X8177275Y7178243D01*
X8178850Y7171588D01*
X8178038Y6782562D01*
X7790484Y6781749D01*
X7783830Y6783324D01*
X7699502Y6783324D01*
X7699502Y6704685D01*
X7702550Y6698996D01*
X8258098Y6698996D01*
X8261603Y6702501D01*
X8261603Y7258050D01*
X8255914Y7261098D01*
G37*
G36*
X8423097Y7261098D02*
G01*
X8418423Y7256424D01*
X8418423Y7183983D01*
X8421471Y7178243D01*
X8496757Y7178243D01*
X8498382Y7171588D01*
X8497570Y7102094D01*
X8341410Y7100570D01*
X8338616Y7096150D01*
X8338566Y7024217D01*
X8339219Y7022998D01*
X8581136Y7022998D01*
X8581136Y7094829D01*
X8584692Y7098385D01*
X8656523Y7098385D01*
X8658148Y7091730D01*
X8657336Y7022185D01*
X8587790Y7021372D01*
X8581136Y7022998D01*
X8339219Y7022998D01*
X8341614Y7018477D01*
X8416645Y7018477D01*
X8418423Y7013803D01*
X8418423Y6944359D01*
X8421471Y6938619D01*
X8496757Y6938619D01*
X8498382Y6931964D01*
X8497570Y6862419D01*
X8421624Y6860946D01*
X8419185Y6858508D01*
X8417731Y6783578D01*
X8501278Y6783578D01*
X8501278Y6855206D01*
X8504834Y6858711D01*
X8577580Y6858711D01*
X8581136Y6862267D01*
X8581136Y6935063D01*
X8584692Y6938619D01*
X8657488Y6938619D01*
X8661044Y6942175D01*
X8661044Y7014921D01*
X8664600Y7018477D01*
X8736177Y7018477D01*
X8737955Y7013803D01*
X8737955Y6944359D01*
X8741003Y6938619D01*
X8816289Y6938619D01*
X8817914Y6931964D01*
X8817102Y6702653D01*
X8747556Y6701840D01*
X8740902Y6703466D01*
X8740902Y6778752D01*
X8735212Y6781800D01*
X8663228Y6781749D01*
X8658809Y6778955D01*
X8657336Y6622796D01*
X8587790Y6621932D01*
X8581136Y6623608D01*
X8581136Y6778752D01*
X8575446Y6781800D01*
X8505952Y6781800D01*
X8501278Y6783578D01*
X8417731Y6783578D01*
X8417712Y6782562D01*
X8341766Y6781088D01*
X8339277Y6778599D01*
X8338591Y6703466D01*
X8421370Y6703466D01*
X8421370Y6775297D01*
X8424926Y6778853D01*
X8496757Y6778853D01*
X8498382Y6772198D01*
X8497570Y6702653D01*
X8428024Y6701840D01*
X8421370Y6703466D01*
X8338591Y6703466D01*
X8337803Y6622796D01*
X8022234Y6621322D01*
X8019745Y6618833D01*
X8018272Y6542887D01*
X7948777Y6542074D01*
X7942122Y6543700D01*
X7942122Y6618986D01*
X7936382Y6622034D01*
X7704124Y6622034D01*
X7699502Y6617411D01*
X7699502Y6463842D01*
X7782356Y6463842D01*
X7782356Y6535674D01*
X7785862Y6539230D01*
X7857744Y6539230D01*
X7859369Y6532524D01*
X7858506Y6463030D01*
X7789011Y6462166D01*
X7782356Y6463842D01*
X7699502Y6463842D01*
X7699502Y6305296D01*
X7702550Y6299555D01*
X7778800Y6299555D01*
X7782356Y6303111D01*
X7782356Y6375908D01*
X7785862Y6379464D01*
X7857490Y6379464D01*
X7859268Y6374739D01*
X7859268Y6305296D01*
X7859909Y6304076D01*
X7942122Y6304076D01*
X7942122Y6455765D01*
X7945628Y6459321D01*
X8017509Y6459321D01*
X8019084Y6452666D01*
X8018272Y6303264D01*
X7948777Y6302400D01*
X7942122Y6304076D01*
X7859909Y6304076D01*
X7862316Y6299555D01*
X7937601Y6299555D01*
X7939227Y6292900D01*
X7938414Y6223355D01*
X7782559Y6221882D01*
X7780121Y6219444D01*
X7778668Y6144564D01*
X7942122Y6144564D01*
X7942122Y6216142D01*
X7945628Y6219698D01*
X8018424Y6219698D01*
X8021980Y6223254D01*
X8021980Y6295999D01*
X8025536Y6299555D01*
X8098332Y6299555D01*
X8101838Y6303111D01*
X8101838Y6535674D01*
X8105394Y6539230D01*
X8257133Y6539230D01*
X8258759Y6532524D01*
X8257946Y6463030D01*
X8181644Y6461556D01*
X8178850Y6457086D01*
X8178800Y6385153D01*
X8179453Y6383934D01*
X8261603Y6383934D01*
X8261603Y6455765D01*
X8265159Y6459321D01*
X8337956Y6459321D01*
X8341512Y6462877D01*
X8341512Y6535674D01*
X8345068Y6539230D01*
X8417864Y6539230D01*
X8421370Y6542735D01*
X8421370Y6615531D01*
X8424926Y6619087D01*
X8496757Y6619087D01*
X8498382Y6612432D01*
X8497570Y6463030D01*
X8421624Y6461556D01*
X8419185Y6459067D01*
X8417712Y6383121D01*
X8268309Y6382308D01*
X8261603Y6383934D01*
X8179453Y6383934D01*
X8181848Y6379464D01*
X8257133Y6379464D01*
X8258759Y6372809D01*
X8257946Y6303264D01*
X8182000Y6301790D01*
X8179511Y6299301D01*
X8178038Y6223355D01*
X8102092Y6221882D01*
X8099653Y6219444D01*
X8098918Y6144310D01*
X8181746Y6144310D01*
X8181746Y6216142D01*
X8185302Y6219698D01*
X8257133Y6219698D01*
X8258759Y6213043D01*
X8257946Y6143498D01*
X8188401Y6142685D01*
X8181746Y6144310D01*
X8098918Y6144310D01*
X8098180Y6063589D01*
X8028635Y6062776D01*
X8021980Y6064402D01*
X8021980Y6139688D01*
X8016240Y6142736D01*
X7946796Y6142736D01*
X7942122Y6144564D01*
X7778668Y6144564D01*
X7778648Y6143498D01*
X7702346Y6142024D01*
X7699552Y6137605D01*
X7699502Y6065621D01*
X7700155Y6064402D01*
X7782356Y6064402D01*
X7782356Y6136233D01*
X7785862Y6139789D01*
X7937601Y6139789D01*
X7939227Y6133134D01*
X7938414Y6063589D01*
X7789011Y6062776D01*
X7782356Y6064402D01*
X7700155Y6064402D01*
X7702550Y6059932D01*
X7777835Y6059932D01*
X7779461Y6053277D01*
X7778648Y5983732D01*
X7702346Y5982258D01*
X7699552Y5977839D01*
X7699502Y5905855D01*
X7702550Y5900166D01*
X7778800Y5900166D01*
X7782356Y5903722D01*
X7782356Y5976467D01*
X7785862Y5980023D01*
X7857490Y5980023D01*
X7859268Y5975350D01*
X7859268Y5905855D01*
X7862316Y5900166D01*
X8098332Y5900166D01*
X8101838Y5903722D01*
X8101838Y6056376D01*
X8105394Y6059932D01*
X8258098Y6059932D01*
X8261603Y6063488D01*
X8261603Y6136233D01*
X8265159Y6139789D01*
X8337956Y6139789D01*
X8341512Y6143345D01*
X8341512Y6219596D01*
X8335772Y6222644D01*
X8266328Y6222644D01*
X8261603Y6224422D01*
X8261603Y6295999D01*
X8265159Y6299555D01*
X8417864Y6299555D01*
X8421370Y6303111D01*
X8421370Y6375908D01*
X8424926Y6379464D01*
X8497722Y6379464D01*
X8501278Y6382969D01*
X8501278Y6455765D01*
X8504834Y6459321D01*
X8657488Y6459321D01*
X8661044Y6462877D01*
X8661044Y6615531D01*
X8664600Y6619087D01*
X8817254Y6619087D01*
X8820810Y6622643D01*
X8820810Y6695440D01*
X8824366Y6698996D01*
X8897112Y6698996D01*
X8900668Y6702501D01*
X8900668Y6775297D01*
X8904224Y6778853D01*
X8975801Y6778853D01*
X8977579Y6774180D01*
X8977579Y6624828D01*
X8980678Y6619087D01*
X9055709Y6619087D01*
X9057487Y6614414D01*
X9057487Y6544919D01*
X9060535Y6539230D01*
X9135821Y6539230D01*
X9137446Y6532524D01*
X9136634Y6463030D01*
X8980474Y6461556D01*
X8977630Y6457086D01*
X8977579Y6305296D01*
X8980678Y6299555D01*
X9055963Y6299555D01*
X9057589Y6292900D01*
X9056725Y6223355D01*
X8900922Y6221882D01*
X8898432Y6219444D01*
X8896959Y6143498D01*
X8827465Y6142685D01*
X8820810Y6144310D01*
X8820810Y6295999D01*
X8824366Y6299555D01*
X8897112Y6299555D01*
X8900668Y6303111D01*
X8900668Y6379362D01*
X8894978Y6382410D01*
X8825484Y6382410D01*
X8820810Y6384188D01*
X8820810Y6455765D01*
X8824366Y6459321D01*
X8897112Y6459321D01*
X8900668Y6462877D01*
X8900668Y6539128D01*
X8894978Y6542176D01*
X8743137Y6542125D01*
X8738717Y6539331D01*
X8737193Y6303264D01*
X8667699Y6302400D01*
X8661044Y6304076D01*
X8661044Y6379362D01*
X8655304Y6382410D01*
X8582863Y6382410D01*
X8578189Y6377736D01*
X8578189Y6305296D01*
X8581237Y6299555D01*
X8656523Y6299555D01*
X8658148Y6292900D01*
X8657336Y6223355D01*
X8581034Y6221882D01*
X8578240Y6217462D01*
X8578189Y6065621D01*
X8578842Y6064402D01*
X8740902Y6064402D01*
X8740902Y6136233D01*
X8744458Y6139789D01*
X8816289Y6139789D01*
X8817914Y6133134D01*
X8817102Y6063589D01*
X8747556Y6062776D01*
X8740902Y6064402D01*
X8578842Y6064402D01*
X8581237Y6059932D01*
X8656523Y6059932D01*
X8658148Y6053277D01*
X8657348Y5984798D01*
X8820810Y5984798D01*
X8820810Y6056376D01*
X8824366Y6059932D01*
X8897112Y6059932D01*
X8900668Y6063488D01*
X8900668Y6136233D01*
X8904224Y6139789D01*
X8976055Y6139789D01*
X8977680Y6133134D01*
X8976868Y5903874D01*
X8907322Y5903010D01*
X8900668Y5904636D01*
X8900668Y5979922D01*
X8894978Y5982970D01*
X8825484Y5982970D01*
X8820810Y5984798D01*
X8657348Y5984798D01*
X8657336Y5983732D01*
X8581390Y5982258D01*
X8578951Y5979769D01*
X8577478Y5823966D01*
X8428024Y5823153D01*
X8421370Y5824778D01*
X8421370Y5896610D01*
X8424926Y5900166D01*
X8497722Y5900166D01*
X8501278Y5903722D01*
X8501278Y5979922D01*
X8495538Y5982970D01*
X8426043Y5982970D01*
X8421370Y5984798D01*
X8421370Y6059830D01*
X8415680Y6062878D01*
X8343747Y6062827D01*
X8339277Y6060033D01*
X8337803Y5983732D01*
X8181644Y5982258D01*
X8178850Y5977839D01*
X8178800Y5905855D01*
X8179453Y5904636D01*
X8341512Y5904636D01*
X8341512Y5976467D01*
X8345068Y5980023D01*
X8416899Y5980023D01*
X8418525Y5973368D01*
X8417712Y5903874D01*
X8348167Y5903010D01*
X8341512Y5904636D01*
X8179453Y5904636D01*
X8181848Y5900166D01*
X8336737Y5900166D01*
X8338566Y5895492D01*
X8338566Y5745124D01*
X8581136Y5745124D01*
X8581136Y5816701D01*
X8584692Y5820257D01*
X8657488Y5820257D01*
X8661044Y5823813D01*
X8661044Y5976467D01*
X8664600Y5980023D01*
X8816035Y5980023D01*
X8817813Y5975350D01*
X8817813Y5905855D01*
X8820912Y5900166D01*
X8895943Y5900166D01*
X8897721Y5895492D01*
X8897721Y5746089D01*
X8900769Y5740400D01*
X8976055Y5740400D01*
X8977680Y5733745D01*
X8976877Y5665012D01*
X9060434Y5665012D01*
X9060434Y5896610D01*
X9063990Y5900166D01*
X9295587Y5900166D01*
X9297212Y5893511D01*
X9296400Y5664200D01*
X9067088Y5663387D01*
X9060434Y5665012D01*
X8976877Y5665012D01*
X8976868Y5664200D01*
X8900922Y5662726D01*
X8898432Y5660288D01*
X8896967Y5505246D01*
X9060434Y5505246D01*
X9060434Y5577078D01*
X9063990Y5580634D01*
X9215729Y5580634D01*
X9217355Y5573979D01*
X9216491Y5504434D01*
X9067088Y5503621D01*
X9060434Y5505246D01*
X8896967Y5505246D01*
X8896959Y5504434D01*
X8827465Y5503621D01*
X8820810Y5505246D01*
X8820810Y5580532D01*
X8815070Y5583580D01*
X8745575Y5583580D01*
X8740902Y5585358D01*
X8740902Y5660390D01*
X8735212Y5663488D01*
X8665718Y5663488D01*
X8661044Y5665266D01*
X8661044Y5740298D01*
X8655304Y5743346D01*
X8585809Y5743346D01*
X8581136Y5745124D01*
X8338566Y5745124D01*
X8338566Y5665012D01*
X8421370Y5665012D01*
X8421370Y5736844D01*
X8424926Y5740400D01*
X8496757Y5740400D01*
X8498382Y5733745D01*
X8497570Y5664200D01*
X8428024Y5663387D01*
X8421370Y5665012D01*
X8338566Y5665012D01*
X8338566Y5586374D01*
X8339234Y5585104D01*
X8581136Y5585104D01*
X8581136Y5656935D01*
X8584692Y5660491D01*
X8656523Y5660491D01*
X8658148Y5653836D01*
X8657336Y5584342D01*
X8587790Y5583478D01*
X8581136Y5585104D01*
X8339234Y5585104D01*
X8341614Y5580634D01*
X8496503Y5580634D01*
X8498332Y5575960D01*
X8498332Y5425338D01*
X8740902Y5425338D01*
X8740902Y5497220D01*
X8744458Y5500725D01*
X8816289Y5500725D01*
X8817914Y5494070D01*
X8817102Y5424576D01*
X8747556Y5423712D01*
X8740902Y5425338D01*
X8498332Y5425338D01*
X8498332Y5345480D01*
X8581136Y5345480D01*
X8581136Y5417312D01*
X8584692Y5420868D01*
X8656523Y5420868D01*
X8658148Y5414213D01*
X8657336Y5344668D01*
X8587790Y5343855D01*
X8581136Y5345480D01*
X8498332Y5345480D01*
X8498332Y5266842D01*
X8501380Y5261102D01*
X8657488Y5261102D01*
X8661044Y5264658D01*
X8661044Y5337454D01*
X8664600Y5341010D01*
X8816035Y5341010D01*
X8817813Y5336286D01*
X8817813Y5266842D01*
X8820912Y5261102D01*
X8977020Y5261102D01*
X8980576Y5264658D01*
X8980576Y5337454D01*
X8984132Y5341010D01*
X9056878Y5341010D01*
X9060434Y5344515D01*
X9060434Y5417312D01*
X9063990Y5420868D01*
X9216644Y5420868D01*
X9220200Y5424424D01*
X9220200Y5497220D01*
X9223756Y5500725D01*
X9375495Y5500725D01*
X9377121Y5494070D01*
X9376257Y5424576D01*
X9299956Y5423103D01*
X9297162Y5418632D01*
X9297111Y5266842D01*
X9300210Y5261102D01*
X9456318Y5261102D01*
X9459874Y5264658D01*
X9459874Y5500624D01*
X9454134Y5503722D01*
X9384639Y5503722D01*
X9379966Y5505500D01*
X9379966Y5656935D01*
X9383522Y5660491D01*
X9455099Y5660491D01*
X9456877Y5655818D01*
X9456877Y5586374D01*
X9459976Y5580634D01*
X9536176Y5580634D01*
X9539732Y5584190D01*
X9539732Y5656935D01*
X9543288Y5660491D01*
X9695942Y5660491D01*
X9699498Y5664047D01*
X9699498Y5820156D01*
X9693757Y5823254D01*
X9624314Y5823254D01*
X9619589Y5825032D01*
X9619589Y5896610D01*
X9623145Y5900166D01*
X9695942Y5900166D01*
X9699498Y5903722D01*
X9699498Y5979922D01*
X9693757Y5982970D01*
X9621824Y5982970D01*
X9617405Y5980125D01*
X9615932Y5903874D01*
X9546386Y5903010D01*
X9539732Y5904636D01*
X9539732Y5979922D01*
X9533991Y5982970D01*
X9461550Y5982970D01*
X9456877Y5978347D01*
X9456877Y5905855D01*
X9459976Y5900166D01*
X9535210Y5900166D01*
X9536836Y5893511D01*
X9536023Y5664200D01*
X9466529Y5663387D01*
X9459874Y5665012D01*
X9459874Y5820156D01*
X9454134Y5823254D01*
X9384639Y5823254D01*
X9379966Y5825032D01*
X9379966Y5979922D01*
X9374225Y5982970D01*
X9304782Y5982970D01*
X9300108Y5984798D01*
X9300108Y6059830D01*
X9294368Y6062878D01*
X9224873Y6062878D01*
X9220200Y6064656D01*
X9220200Y6216142D01*
X9223756Y6219698D01*
X9295333Y6219698D01*
X9297111Y6215024D01*
X9297111Y6145530D01*
X9300210Y6139789D01*
X9375190Y6139789D01*
X9377019Y6135116D01*
X9377019Y6065621D01*
X9380067Y6059932D01*
X9456318Y6059932D01*
X9459874Y6063488D01*
X9459874Y6139688D01*
X9454134Y6142736D01*
X9384639Y6142736D01*
X9379966Y6144564D01*
X9379966Y6219596D01*
X9374225Y6222644D01*
X9304782Y6222644D01*
X9300108Y6224422D01*
X9300108Y6379362D01*
X9294368Y6382410D01*
X9224873Y6382410D01*
X9220200Y6384188D01*
X9220200Y6618986D01*
X9214459Y6622034D01*
X9065107Y6622034D01*
X9060434Y6623862D01*
X9060434Y7098284D01*
X9054693Y7101331D01*
X8905341Y7101331D01*
X8900668Y7103109D01*
X8900668Y7174687D01*
X8904224Y7178243D01*
X8977020Y7178243D01*
X8980576Y7181799D01*
X8980576Y7258050D01*
X8974836Y7261098D01*
X8822994Y7261047D01*
X8818575Y7258253D01*
X8817102Y7022185D01*
X8747556Y7021372D01*
X8740902Y7022998D01*
X8740902Y7258050D01*
X8735212Y7261098D01*
X8663228Y7261047D01*
X8658809Y7258253D01*
X8657336Y7181951D01*
X8507933Y7181138D01*
X8501278Y7182764D01*
X8501278Y7258050D01*
X8495538Y7261098D01*
G37*
G36*
X9142272Y7261098D02*
G01*
X9137345Y7255713D01*
X9137345Y6783324D01*
X9221673Y6783324D01*
X9221673Y7176516D01*
X9225381Y7178040D01*
X9615119Y7178243D01*
X9616744Y7171588D01*
X9615932Y6782562D01*
X9228328Y6781749D01*
X9221673Y6783324D01*
X9137345Y6783324D01*
X9137345Y6704685D01*
X9140444Y6698996D01*
X9695942Y6698996D01*
X9699498Y6702501D01*
X9699498Y7258050D01*
X9693757Y7261098D01*
G37*
G36*
X7863890Y7101331D02*
G01*
X7859268Y7096709D01*
X7859268Y6864451D01*
X7862316Y6858711D01*
X8098332Y6858711D01*
X8101838Y6862267D01*
X8101838Y7098284D01*
X8096148Y7101331D01*
G37*
G36*
X9301784Y7101331D02*
G01*
X9297111Y7096709D01*
X9297111Y6864451D01*
X9300210Y6858711D01*
X9536176Y6858711D01*
X9539732Y6862267D01*
X9539732Y7098284D01*
X9533991Y7101331D01*
G37*
G36*
X9461550Y6622034D02*
G01*
X9456877Y6617411D01*
X9456877Y6544919D01*
X9459976Y6539230D01*
X9534956Y6539230D01*
X9536785Y6534505D01*
X9536785Y6465062D01*
X9539833Y6459321D01*
X9616084Y6459321D01*
X9619589Y6462877D01*
X9619589Y6539128D01*
X9613900Y6542176D01*
X9544405Y6542176D01*
X9539732Y6543954D01*
X9539732Y6618986D01*
X9533991Y6622034D01*
G37*
G36*
X9301784Y6542176D02*
G01*
X9297111Y6537502D01*
X9297111Y6465062D01*
X9300210Y6459321D01*
X9375190Y6459321D01*
X9377019Y6454648D01*
X9377019Y6385153D01*
X9380067Y6379464D01*
X9456318Y6379464D01*
X9459874Y6382969D01*
X9459874Y6459220D01*
X9454134Y6462268D01*
X9384639Y6462268D01*
X9379966Y6464096D01*
X9379966Y6539128D01*
X9374225Y6542176D01*
G37*
G36*
X9693757Y6382410D02*
G01*
X9541967Y6382359D01*
X9537496Y6379565D01*
X9536023Y6303264D01*
X9459722Y6301790D01*
X9456928Y6297320D01*
X9456877Y6225387D01*
X9459976Y6219698D01*
X9614865Y6219698D01*
X9616643Y6215024D01*
X9616643Y6065621D01*
X9619742Y6059932D01*
X9695942Y6059932D01*
X9699498Y6063488D01*
X9699498Y6379362D01*
G37*
G36*
X7704378Y5823254D02*
G01*
X7699502Y5817819D01*
X7699502Y5345480D01*
X7783830Y5345480D01*
X7783830Y5738672D01*
X7787538Y5740146D01*
X8177275Y5740400D01*
X8178850Y5733745D01*
X8178038Y5344668D01*
X7790484Y5343855D01*
X7783830Y5345480D01*
X7699502Y5345480D01*
X7699502Y5266842D01*
X7702550Y5261102D01*
X8258098Y5261102D01*
X8261603Y5264658D01*
X8261603Y5820156D01*
X8255914Y5823254D01*
G37*
G36*
X8742629Y5823254D02*
G01*
X8737955Y5818581D01*
X8737955Y5746089D01*
X8741003Y5740400D01*
X8817254Y5740400D01*
X8820810Y5743956D01*
X8820810Y5820156D01*
X8815070Y5823254D01*
G37*
G36*
X9142018Y5823254D02*
G01*
X9137345Y5818581D01*
X9137345Y5746089D01*
X9140444Y5740400D01*
X9216644Y5740400D01*
X9220200Y5743956D01*
X9220200Y5820156D01*
X9214459Y5823254D01*
G37*
G36*
X7863890Y5663488D02*
G01*
X7859268Y5658815D01*
X7859268Y5426608D01*
X7862316Y5420868D01*
X8098332Y5420868D01*
X8101838Y5424424D01*
X8101838Y5660390D01*
X8096148Y5663488D01*
G37*
G36*
X8343188Y5503722D02*
G01*
X8338566Y5499049D01*
X8338566Y5266842D01*
X8341614Y5261102D01*
X8417864Y5261102D01*
X8421370Y5264658D01*
X8421370Y5500624D01*
X8415680Y5503722D01*
G37*
G36*
X9693757Y5503722D02*
G01*
X9621824Y5503672D01*
X9617405Y5500878D01*
X9615932Y5344668D01*
X9539630Y5343194D01*
X9536836Y5338775D01*
X9536785Y5266842D01*
X9539833Y5261102D01*
X9695942Y5261102D01*
X9699498Y5264658D01*
X9699498Y5500624D01*
G37*
G36*
X6744258Y7011365D02*
G01*
X6742175Y7011111D01*
X6694424Y7009688D01*
X6692798Y7009079D01*
X6211458Y6606286D01*
X6339890Y6606286D01*
X6720738Y6924903D01*
X6722008Y6924903D01*
X6778396Y6882688D01*
X6779920Y6881317D01*
X6776212Y6850380D01*
X6775094Y6849313D01*
X6349441Y6605930D01*
X6344056Y6605219D01*
X6339890Y6606286D01*
X6211458Y6606286D01*
X6195009Y6592519D01*
X6174841Y6587083D01*
X6151836Y6579514D01*
X6469278Y6579514D01*
X6965950Y6863537D01*
X6967778Y6863994D01*
X6984238Y6798716D01*
X7042861Y6771995D01*
X7232091Y6868718D01*
X7233208Y6868922D01*
X7234123Y6860286D01*
X7244130Y6675678D01*
X6833565Y5978245D01*
X6833565Y6048400D01*
X6831431Y6074765D01*
X6827418Y6108903D01*
X6822389Y6138875D01*
X6817563Y6161532D01*
X6966356Y6403644D01*
X6967067Y6445300D01*
X6868769Y6619798D01*
X6860794Y6621830D01*
X6809486Y6633667D01*
X6612229Y6498640D01*
X6597142Y6510426D01*
X6575856Y6525361D01*
X6557213Y6537198D01*
X6531406Y6552031D01*
X6506667Y6564122D01*
X6481165Y6574739D01*
X6470446Y6578498D01*
X6469278Y6579514D01*
X6151836Y6579514D01*
X6147968Y6578244D01*
X6118453Y6566560D01*
X6082639Y6548881D01*
X6057950Y6534404D01*
X6033262Y6517944D01*
X6008471Y6499402D01*
X5987999Y6482334D01*
X5968187Y6464046D01*
X5943498Y6438696D01*
X5928563Y6421424D01*
X5915355Y6404914D01*
X5901334Y6386017D01*
X5885332Y6362242D01*
X5870041Y6336588D01*
X5858967Y6316370D01*
X5843625Y6284722D01*
X5832144Y6257544D01*
X5820562Y6226251D01*
X5812078Y6199073D01*
X5804154Y6169456D01*
X5797397Y6138164D01*
X5792419Y6108496D01*
X5789117Y6081318D01*
X5786628Y6050178D01*
X5785612Y6006388D01*
X5786535Y5988304D01*
X5868670Y5988304D01*
X5868670Y6043472D01*
X5870702Y6070650D01*
X5873953Y6099454D01*
X5877356Y6120841D01*
X5883097Y6148882D01*
X5888685Y6171082D01*
X5896254Y6196634D01*
X5906922Y6225895D01*
X5917844Y6251803D01*
X5934760Y6285534D01*
X5950966Y6312712D01*
X5964732Y6333286D01*
X5985713Y6361277D01*
X6003340Y6381902D01*
X6024829Y6404660D01*
X6047740Y6425438D01*
X6070498Y6443624D01*
X6091123Y6458051D01*
X6117234Y6473850D01*
X6152642Y6491427D01*
X6173216Y6499809D01*
X6197549Y6508242D01*
X6221780Y6514744D01*
X6242405Y6518909D01*
X6265418Y6522161D01*
X6288481Y6523939D01*
X6297574Y6524447D01*
X6317335Y6524701D01*
X6346139Y6523075D01*
X6373317Y6519672D01*
X6401308Y6514084D01*
X6424371Y6507530D01*
X6448755Y6499098D01*
X6470446Y6490004D01*
X6495186Y6477914D01*
X6517385Y6465214D01*
X6538823Y6451244D01*
X6552449Y6441033D01*
X6674205Y6441033D01*
X6818731Y6540144D01*
X6821474Y6535826D01*
X6883298Y6425996D01*
X6785356Y6266586D01*
X6784136Y6266180D01*
X6775196Y6287211D01*
X6754164Y6329172D01*
X6738264Y6356350D01*
X6717893Y6387134D01*
X6699758Y6411264D01*
X6684314Y6429654D01*
X6674205Y6441033D01*
X6552449Y6441033D01*
X6563512Y6432702D01*
X6582460Y6416548D01*
X6613855Y6385153D01*
X6634937Y6360464D01*
X6654698Y6334099D01*
X6671564Y6308598D01*
X6685025Y6285534D01*
X6701231Y6253429D01*
X6709816Y6233668D01*
X6718452Y6211417D01*
X6727698Y6183426D01*
X6733489Y6162649D01*
X6738315Y6142278D01*
X6743293Y6116726D01*
X6746646Y6094526D01*
X6749948Y6062421D01*
X6751878Y6023711D01*
X6750862Y5982462D01*
X6748322Y5951270D01*
X6745020Y5925718D01*
X6740144Y5897727D01*
X6734454Y5872429D01*
X6728409Y5849975D01*
X6727190Y5848654D01*
X6587947Y5851601D01*
X6568135Y5995466D01*
X6567627Y5995924D01*
X6511747Y6027572D01*
X6508343Y6026810D01*
X6242812Y5913628D01*
X6242812Y5911951D01*
X6274257Y5838037D01*
X6276136Y5838088D01*
X6493510Y5930798D01*
X6493814Y5930646D01*
X6510426Y5809640D01*
X6511391Y5805017D01*
X6551320Y5769660D01*
X6886295Y5763107D01*
X6896608Y5762701D01*
X6533997Y5574131D01*
X6469634Y5541060D01*
X6448247Y5532323D01*
X6425184Y5524195D01*
X6402222Y5517692D01*
X6379057Y5512917D01*
X6363411Y5510377D01*
X6339535Y5507786D01*
X6300012Y5506821D01*
X6270396Y5508752D01*
X6251448Y5511190D01*
X6227572Y5515457D01*
X6202883Y5521706D01*
X6181445Y5528614D01*
X6154267Y5539333D01*
X6124651Y5553659D01*
X6100978Y5567222D01*
X6080048Y5580989D01*
X6060338Y5595721D01*
X6039866Y5612841D01*
X6012180Y5639917D01*
X5995924Y5658104D01*
X5984900Y5671312D01*
X5964986Y5697626D01*
X5948222Y5723178D01*
X5934760Y5746242D01*
X5918555Y5778347D01*
X5908548Y5801563D01*
X5900369Y5823153D01*
X5891225Y5851194D01*
X5884773Y5875477D01*
X5878982Y5901842D01*
X5874004Y5931560D01*
X5870702Y5961126D01*
X5868670Y5988304D01*
X5786535Y5988304D01*
X5787542Y5968542D01*
X5789726Y5945479D01*
X5789523Y5945225D01*
X5367934Y5894832D01*
X5361990Y5893917D01*
X5327751Y5842558D01*
X5327751Y5840577D01*
X5364882Y5706364D01*
X5450484Y5706364D01*
X5451957Y5707735D01*
X5648706Y5814364D01*
X5649772Y5815380D01*
X5639409Y5843371D01*
X5640222Y5844184D01*
X5798566Y5863386D01*
X5803849Y5863539D01*
X5808827Y5844082D01*
X5817768Y5813755D01*
X5828487Y5783275D01*
X5837529Y5760974D01*
X5846927Y5739638D01*
X5865622Y5702604D01*
X5881522Y5675426D01*
X5902045Y5644388D01*
X5921552Y5618581D01*
X5937758Y5599430D01*
X5948172Y5587746D01*
X5945276Y5587746D01*
X5680151Y5561279D01*
X5674258Y5566918D01*
X5570321Y5662218D01*
X5543346Y5672582D01*
X5488990Y5672734D01*
X5459476Y5673750D01*
X5450484Y5706364D01*
X5364882Y5706364D01*
X5388559Y5620867D01*
X5428081Y5590641D01*
X5527090Y5590032D01*
X5638038Y5488127D01*
X5670194Y5477357D01*
X6033211Y5513578D01*
X6060440Y5495696D01*
X6079337Y5484571D01*
X6105702Y5470906D01*
X6128766Y5460695D01*
X6149340Y5452872D01*
X6171996Y5445302D01*
X6196177Y5438698D01*
X6221780Y5433009D01*
X6246520Y5428894D01*
X6268720Y5426354D01*
X6291783Y5424678D01*
X6328003Y5424678D01*
X6351066Y5426354D01*
X6373317Y5428894D01*
X6393586Y5432145D01*
X6416954Y5437073D01*
X6442456Y5443728D01*
X6461404Y5449570D01*
X6490208Y5460288D01*
X6515862Y5471668D01*
X7078624Y5764580D01*
X7060641Y5841390D01*
X7059828Y5842203D01*
X6852615Y5846318D01*
X6852005Y5846927D01*
X7321550Y6644538D01*
X7327188Y6667906D01*
X7312406Y6936740D01*
X7311136Y6937908D01*
X7253376Y6971030D01*
X7251039Y6970928D01*
X7051751Y6869125D01*
X7034479Y6937451D01*
X6975195Y6962749D01*
X6973265Y6962749D01*
X6862876Y6899605D01*
X6848551Y6933133D01*
G37*
G36*
X6078575Y6269482D02*
G01*
X6069482Y6269329D01*
X6062065Y6267246D01*
X6055868Y6264605D01*
X6046978Y6258712D01*
X6036157Y6248044D01*
X6028740Y6237579D01*
X6022035Y6224270D01*
X6014872Y6202375D01*
X6010706Y6180988D01*
X6008573Y6164529D01*
X6008674Y6123330D01*
X6012332Y6099454D01*
X6017361Y6078880D01*
X6023152Y6063234D01*
X6027318Y6055004D01*
X6035090Y6043472D01*
X6042914Y6034735D01*
X6052159Y6027623D01*
X6061252Y6023051D01*
X6069482Y6020866D01*
X6081014Y6020866D01*
X6092342Y6024880D01*
X6101588Y6030976D01*
X6111036Y6039967D01*
X6117488Y6048400D01*
X6123940Y6059119D01*
X6130696Y6075578D01*
X6135674Y6094526D01*
X6138316Y6108496D01*
X6140704Y6130747D01*
X6140704Y6159550D01*
X6138265Y6182156D01*
X6133947Y6203188D01*
X6126784Y6225133D01*
X6119012Y6239865D01*
X6108649Y6252921D01*
X6097778Y6261912D01*
X6088278Y6266942D01*
G37*
G36*
X3682492Y6702196D02*
G01*
X3662375Y6700266D01*
X3638702Y6698284D01*
X3628593Y6697065D01*
X3620566Y6697065D01*
X3618585Y6695135D01*
X3578313Y6473748D01*
X4430522Y6473748D01*
X4430928Y6474866D01*
X4448708Y6493560D01*
X4450232Y6493560D01*
X4648200Y6303873D01*
X4648200Y6301689D01*
X4647234Y6301282D01*
X4464862Y6111087D01*
X4463186Y6110274D01*
X4467555Y6116980D01*
X4476800Y6132525D01*
X4484116Y6146444D01*
X4489602Y6159195D01*
X4492802Y6167526D01*
X4496968Y6180328D01*
X4500880Y6196330D01*
X4502251Y6203391D01*
X4505147Y6223863D01*
X4505147Y6321755D01*
X4503521Y6334556D01*
X4500880Y6349898D01*
X4498340Y6360820D01*
X4494276Y6374231D01*
X4491736Y6381597D01*
X4488230Y6389878D01*
X4488230Y6390538D01*
X4480255Y6407505D01*
X4474159Y6418173D01*
X4474159Y6418681D01*
X4467758Y6428638D01*
X4461103Y6438239D01*
X4452112Y6450076D01*
X4447590Y6455511D01*
X4437989Y6466382D01*
X4430522Y6473748D01*
X3578313Y6473748D01*
X3520305Y6156350D01*
X3686352Y6156350D01*
X3724198Y6354419D01*
X3725367Y6359499D01*
X3728059Y6374231D01*
X3729177Y6379362D01*
X3730599Y6387693D01*
X3742791Y6451041D01*
X3744620Y6458864D01*
X3744620Y6462014D01*
X3745433Y6462826D01*
X3783126Y6426098D01*
X3784142Y6424168D01*
X3779656Y6416954D01*
X3983939Y6416954D01*
X3983939Y6417919D01*
X3993235Y6421780D01*
X4000906Y6424574D01*
X4003446Y6425692D01*
X4019448Y6430873D01*
X4027119Y6433159D01*
X4043121Y6437223D01*
X4062323Y6441033D01*
X4079595Y6443624D01*
X4103928Y6446062D01*
X4148378Y6446215D01*
X4175607Y6443573D01*
X4192270Y6441033D01*
X4195114Y6440424D01*
X4195114Y6439509D01*
X4084218Y6323380D01*
X4082186Y6323380D01*
X3983939Y6416954D01*
X3779656Y6416954D01*
X3768598Y6395364D01*
X3764279Y6385102D01*
X3760520Y6374892D01*
X3756761Y6362395D01*
X3754374Y6352489D01*
X3752443Y6342888D01*
X3751072Y6333896D01*
X3749751Y6323025D01*
X3748379Y6287871D01*
X3748470Y6283452D01*
X3854907Y6283452D01*
X3858666Y6296152D01*
X3863898Y6309614D01*
X3870756Y6323025D01*
X3876497Y6332372D01*
X3877919Y6331915D01*
X3914464Y6295948D01*
X4258970Y6295948D01*
X4299762Y6338214D01*
X4300372Y6339230D01*
X4330547Y6370370D01*
X4336745Y6377127D01*
X4337659Y6377127D01*
X4348378Y6367678D01*
X4360570Y6355029D01*
X4365040Y6349898D01*
X4369460Y6344158D01*
X4370171Y6343497D01*
X4377994Y6332626D01*
X4385564Y6319824D01*
X4391507Y6307683D01*
X4395571Y6297422D01*
X4399940Y6283198D01*
X4398772Y6280150D01*
X4395520Y6269278D01*
X4391558Y6259068D01*
X4384344Y6244336D01*
X4380992Y6239205D01*
X4379366Y6236004D01*
X4370120Y6223101D01*
X4362500Y6213602D01*
X4353966Y6204712D01*
X4309516Y6247536D01*
X4308551Y6248146D01*
X4258970Y6295948D01*
X3914464Y6295948D01*
X3947972Y6262878D01*
X3947769Y6261150D01*
X3936898Y6256934D01*
X3877665Y6235039D01*
X3875938Y6235039D01*
X3869436Y6246266D01*
X3864406Y6256477D01*
X3861104Y6263792D01*
X3856482Y6277610D01*
X3854907Y6283452D01*
X3748470Y6283452D01*
X3749751Y6223863D01*
X3751072Y6212332D01*
X3752443Y6203391D01*
X3755440Y6188659D01*
X3755491Y6187033D01*
X3687724Y6156350D01*
X3520305Y6156350D01*
X3517276Y6139688D01*
X4011371Y6139688D01*
X4144873Y6199733D01*
X4146600Y6199835D01*
X4150664Y6196482D01*
X4181856Y6166256D01*
X4182821Y6165596D01*
X4214723Y6134658D01*
X4217822Y6132118D01*
X4216349Y6130594D01*
X4194810Y6126276D01*
X4179468Y6123787D01*
X4161536Y6121704D01*
X4128262Y6120028D01*
X4100728Y6121095D01*
X4085996Y6122466D01*
X4075125Y6123787D01*
X4056583Y6126784D01*
X4043781Y6129426D01*
X4025849Y6133947D01*
X4011828Y6138265D01*
X4011371Y6139688D01*
X3517276Y6139688D01*
X3480765Y5940653D01*
X3481628Y5939790D01*
X3496005Y5938824D01*
X3544570Y5934913D01*
X3545078Y5934405D01*
X3594252Y5956046D01*
X3594811Y5956046D01*
X3652520Y5981649D01*
X3653078Y5981649D01*
X3710736Y6007252D01*
X3711295Y6007252D01*
X3742740Y6021324D01*
X3743299Y6021324D01*
X3834739Y6061608D01*
X3835400Y6061608D01*
X3847134Y6051346D01*
X3864610Y6038088D01*
X3883812Y6025337D01*
X3897223Y6017310D01*
X3910685Y6010046D01*
X3927957Y6001613D01*
X3947769Y5993130D01*
X3963162Y5987288D01*
X3982364Y5980836D01*
X3995165Y5977229D01*
X4012437Y5972759D01*
X4024579Y5970117D01*
X4041241Y5966917D01*
X4057700Y5964377D01*
X4067454Y5963107D01*
X4080256Y5961837D01*
X4104589Y5959856D01*
X4150004Y5959856D01*
X4182008Y5962497D01*
X4205986Y5965748D01*
X4223613Y5968847D01*
X4244695Y5973368D01*
X4259427Y5977229D01*
X4272229Y5980836D01*
X4291431Y5987288D01*
X4307433Y5993384D01*
X4326636Y6001613D01*
X4343552Y6009894D01*
X4345381Y6009487D01*
X4460951Y5898438D01*
X4462373Y5898438D01*
X4822291Y6273292D01*
X4824831Y6276543D01*
X4824831Y6337096D01*
X4792522Y6368491D01*
X4504080Y6645554D01*
X4503064Y6646214D01*
X4446930Y6700266D01*
X4445558Y6700266D01*
X4304842Y6553657D01*
X4299102Y6556095D01*
X4290822Y6558940D01*
X4288231Y6560058D01*
X4254957Y6570268D01*
X4236059Y6574790D01*
X4222648Y6577482D01*
X4209034Y6579920D01*
X4191609Y6582460D01*
X4158335Y6586016D01*
X4097528Y6586067D01*
X4068724Y6583121D01*
X4049522Y6580530D01*
X4030979Y6577279D01*
X4004767Y6571538D01*
X3990644Y6567627D01*
X3977894Y6563817D01*
X3961892Y6558330D01*
X3945890Y6552234D01*
X3937863Y6548628D01*
X3937203Y6548628D01*
X3931158Y6545884D01*
X3904996Y6533032D01*
X3883151Y6520281D01*
X3878681Y6517284D01*
X3877767Y6517284D01*
G37*
G36*
X4085082Y5854954D02*
G01*
X4041241Y5853125D01*
X4004767Y5850483D01*
X3965092Y5846673D01*
X3954373Y5845352D01*
X3952240Y5844692D01*
X3911760Y5669534D01*
X4041546Y5669534D01*
X4041546Y5671261D01*
X4060850Y5753506D01*
X4061866Y5756148D01*
X4070654Y5757672D01*
X4075125Y5758180D01*
X4095800Y5757773D01*
X4106519Y5754878D01*
X4112260Y5752033D01*
X4117441Y5748223D01*
X4121912Y5741365D01*
X4123740Y5736234D01*
X4123639Y5720791D01*
X4121404Y5711901D01*
X4118101Y5703570D01*
X4112920Y5694832D01*
X4103319Y5684926D01*
X4093718Y5678525D01*
X4085285Y5674512D01*
X4075785Y5671362D01*
X4066184Y5669432D01*
X4050588Y5667857D01*
X4041546Y5669534D01*
X3911760Y5669534D01*
X3868674Y5483453D01*
X3866184Y5473700D01*
X3866184Y5472277D01*
X3996080Y5472277D01*
X4025137Y5598972D01*
X4025849Y5598972D01*
X4039514Y5566003D01*
X4052925Y5532069D01*
X4062984Y5505551D01*
X4066489Y5495594D01*
X4067098Y5494324D01*
X4068927Y5488584D01*
X4074972Y5472277D01*
X4221378Y5472277D01*
X4221378Y5473598D01*
X4200550Y5519267D01*
X4176572Y5567273D01*
X4164228Y5589676D01*
X4160570Y5595010D01*
X4160570Y5595924D01*
X4154830Y5603951D01*
X4148277Y5609691D01*
X4149039Y5610961D01*
X4164076Y5615686D01*
X4184548Y5623509D01*
X4194810Y5628589D01*
X4209542Y5638292D01*
X4226814Y5655310D01*
X4231944Y5661863D01*
X4233265Y5663285D01*
X4241190Y5675020D01*
X4243984Y5679897D01*
X4248607Y5688888D01*
X4253534Y5701030D01*
X4256582Y5711444D01*
X4259021Y5722772D01*
X4260342Y5731103D01*
X4261764Y5747918D01*
X4260342Y5763717D01*
X4257700Y5775909D01*
X4254042Y5786831D01*
X4248861Y5797397D01*
X4240987Y5809132D01*
X4227423Y5822746D01*
X4214012Y5831687D01*
X4202480Y5837174D01*
X4196740Y5839510D01*
X4185208Y5843219D01*
X4174947Y5845911D01*
X4155795Y5849721D01*
X4146804Y5851042D01*
X4135932Y5852312D01*
X4120591Y5853684D01*
G37*
G36*
X4466082Y5854954D02*
G01*
X4436059Y5853125D01*
X4417517Y5850585D01*
X4406646Y5848451D01*
X4395724Y5845860D01*
X4375251Y5839510D01*
X4363110Y5834583D01*
X4346448Y5826506D01*
X4333036Y5818530D01*
X4322368Y5810859D01*
X4315764Y5805373D01*
X4305655Y5795721D01*
X4296308Y5785104D01*
X4287418Y5772048D01*
X4279595Y5755944D01*
X4279595Y5754065D01*
X4278528Y5752846D01*
X4274566Y5738164D01*
X4272991Y5729173D01*
X4272991Y5707430D01*
X4274515Y5700369D01*
X4275886Y5695289D01*
X4277207Y5691428D01*
X4281170Y5682488D01*
X4284980Y5676087D01*
X4292904Y5665774D01*
X4306062Y5653227D01*
X4315104Y5646470D01*
X4328820Y5637326D01*
X4344568Y5628284D01*
X4389323Y5606338D01*
X4395724Y5602478D01*
X4400702Y5598668D01*
X4404004Y5593537D01*
X4404004Y5583275D01*
X4401058Y5577179D01*
X4394403Y5571134D01*
X4388053Y5568086D01*
X4385513Y5567121D01*
X4373981Y5564073D01*
X4347108Y5564073D01*
X4322775Y5568391D01*
X4301693Y5573877D01*
X4285030Y5579262D01*
X4281220Y5580329D01*
X4264812Y5586018D01*
X4263085Y5580735D01*
X4236161Y5484723D01*
X4235754Y5481675D01*
X4240885Y5479948D01*
X4249826Y5477459D01*
X4265828Y5473649D01*
X4278630Y5471058D01*
X4303572Y5467197D01*
X4330293Y5464454D01*
X4373372Y5464403D01*
X4395724Y5467197D01*
X4405985Y5469128D01*
X4421327Y5472785D01*
X4433519Y5476697D01*
X4442764Y5480405D01*
X4458309Y5487720D01*
X4473549Y5496864D01*
X4489805Y5509006D01*
X4509058Y5528259D01*
X4519930Y5542940D01*
X4524298Y5550001D01*
X4531004Y5562803D01*
X4535068Y5573064D01*
X4538065Y5583275D01*
X4540758Y5596331D01*
X4540808Y5616803D01*
X4539386Y5624220D01*
X4537964Y5630011D01*
X4535424Y5637682D01*
X4529937Y5649214D01*
X4523079Y5658967D01*
X4516678Y5666333D01*
X4508246Y5673496D01*
X4494936Y5683250D01*
X4485335Y5689041D01*
X4470603Y5697220D01*
X4450791Y5706973D01*
X4418787Y5722061D01*
X4411319Y5727039D01*
X4407560Y5732932D01*
X4407560Y5738368D01*
X4410202Y5744565D01*
X4414316Y5748832D01*
X4421327Y5753608D01*
X4427118Y5755894D01*
X4431588Y5757011D01*
X4441799Y5758942D01*
X4453991Y5758942D01*
X4467402Y5757113D01*
X4480204Y5754420D01*
X4494276Y5750610D01*
X4507738Y5746648D01*
X4524959Y5741111D01*
X4526483Y5742330D01*
X4527092Y5745835D01*
X4552899Y5841644D01*
X4551527Y5843270D01*
X4547412Y5843879D01*
X4530750Y5847892D01*
X4516526Y5850432D01*
X4508042Y5851702D01*
X4490466Y5853684D01*
G37*
G36*
X3490112Y5847232D02*
G01*
X3486810Y5833821D01*
X3403549Y5474309D01*
X3402736Y5472277D01*
X3536543Y5472277D01*
X3564229Y5590336D01*
X3567328Y5602782D01*
X3693922Y5602782D01*
X3695192Y5604408D01*
X3717086Y5694019D01*
X3717086Y5694934D01*
X3589070Y5694934D01*
X3588308Y5696915D01*
X3600246Y5747410D01*
X3723335Y5747410D01*
X3724656Y5749036D01*
X3748481Y5846165D01*
X3748481Y5847232D01*
G37*
G36*
X3784549Y5847232D02*
G01*
X3783025Y5845708D01*
X3783025Y5843219D01*
X3706876Y5515457D01*
X3697274Y5474817D01*
X3697274Y5472277D01*
X3830320Y5472277D01*
X3834282Y5488584D01*
X3896868Y5758637D01*
X3917391Y5846419D01*
X3917391Y5847232D01*
G37*
G36*
X4579264Y5847232D02*
G01*
X4577994Y5845657D01*
X4550308Y5752846D01*
X4546549Y5739485D01*
X4547158Y5738469D01*
X4650130Y5738469D01*
X4650130Y5737606D01*
X4586782Y5473039D01*
X4586782Y5472277D01*
X4719878Y5472277D01*
X4721047Y5475122D01*
X4784039Y5738469D01*
X4879797Y5738469D01*
X4880508Y5739638D01*
X4902606Y5845810D01*
X4903063Y5847232D01*
G37*
G36*
X4788204Y5538825D02*
G01*
X4777130Y5538622D01*
X4771085Y5536996D01*
X4763871Y5533390D01*
X4755845Y5525312D01*
X4752492Y5518505D01*
X4750612Y5512257D01*
X4750576Y5501894D01*
X4754422Y5501894D01*
X4754422Y5511088D01*
X4757115Y5519216D01*
X4760925Y5524754D01*
X4766259Y5529884D01*
X4773269Y5533390D01*
X4778400Y5534812D01*
X4786833Y5534964D01*
X4795062Y5532323D01*
X4800346Y5529275D01*
X4806696Y5522315D01*
X4810150Y5515203D01*
X4811471Y5507126D01*
X4810607Y5498795D01*
X4806442Y5489803D01*
X4799584Y5482945D01*
X4789932Y5478373D01*
X4775200Y5478424D01*
X4766767Y5482539D01*
X4761585Y5486958D01*
X4757115Y5493715D01*
X4754422Y5501894D01*
X4750576Y5501894D01*
X4750562Y5500166D01*
X4752035Y5495594D01*
X4755946Y5487314D01*
X4763973Y5479237D01*
X4773320Y5475020D01*
X4782667Y5473395D01*
X4791202Y5474919D01*
X4795062Y5476240D01*
X4799177Y5478068D01*
X4805324Y5482742D01*
X4809490Y5487314D01*
X4813960Y5496255D01*
X4815382Y5503926D01*
X4814620Y5514187D01*
X4812588Y5519775D01*
X4809388Y5525516D01*
X4803495Y5531764D01*
X4797298Y5535726D01*
G37*
G36*
X4779721Y5523890D02*
G01*
X4771085Y5523382D01*
X4769764Y5520944D01*
X4769834Y5513933D01*
X4780584Y5513933D01*
X4782058Y5515711D01*
X4784191Y5514949D01*
X4786426Y5513019D01*
X4786426Y5510276D01*
X4784801Y5508040D01*
X4780991Y5507786D01*
X4780584Y5513933D01*
X4769834Y5513933D01*
X4770120Y5490514D01*
X4780330Y5490514D01*
X4780737Y5499150D01*
X4781905Y5499150D01*
X4787138Y5490159D01*
X4798720Y5490159D01*
X4797958Y5492089D01*
X4791557Y5501640D01*
X4791557Y5502757D01*
X4794758Y5504484D01*
X4796688Y5507431D01*
X4797450Y5512917D01*
X4795977Y5518302D01*
X4792726Y5521553D01*
X4788560Y5523280D01*
G37*
G36*
X2599944Y6833311D02*
G01*
X2577439Y6812940D01*
X2556865Y6790131D01*
X2553766Y6787032D01*
X2543352Y6777939D01*
X2520746Y6755180D01*
X2510485Y6744512D01*
X2510485Y6742226D01*
X2505862Y6740804D01*
X2483612Y6718503D01*
X2475585Y6709156D01*
X2417216Y6651193D01*
X2401773Y6636816D01*
X2401773Y6633870D01*
X2395118Y6630060D01*
X2391308Y6623710D01*
X2384755Y6620357D01*
X2383282Y6615734D01*
X2377135Y6611924D01*
X2362250Y6596634D01*
X2351024Y6585610D01*
X2347417Y6581495D01*
X2327910Y6562496D01*
X2312111Y6546392D01*
X2309571Y6541312D01*
X2304084Y6538569D01*
X2292451Y6527393D01*
X2274163Y6508800D01*
X2236978Y6471818D01*
X2228900Y6462725D01*
X2223770Y6457746D01*
X2214626Y6449618D01*
X2200351Y6435445D01*
X2191715Y6425844D01*
X2176830Y6410909D01*
X2168855Y6404102D01*
X2146808Y6381750D01*
X2145233Y6376924D01*
X2140407Y6375400D01*
X2110181Y6345326D01*
X2108606Y6340398D01*
X2106269Y6340398D01*
X2071979Y6306870D01*
X2063546Y6297422D01*
X2060448Y6294323D01*
X2049780Y6284569D01*
X2027478Y6262827D01*
X2027478Y6259830D01*
X2019604Y6255207D01*
X2015947Y6248247D01*
X2013000Y6248247D01*
X2005025Y6239713D01*
X2001164Y6236309D01*
X1982114Y6216954D01*
X1980590Y6212941D01*
X1975408Y6210960D01*
X1968246Y6203289D01*
X1962810Y6197904D01*
X1957425Y6193078D01*
X1945081Y6180683D01*
X1945081Y6177635D01*
X1937156Y6172962D01*
X1935734Y6168542D01*
X1929638Y6164630D01*
X1897888Y6132474D01*
X1862632Y6098133D01*
X1862632Y6095796D01*
X1853488Y6090056D01*
X1853488Y6087618D01*
X2294432Y6087618D01*
X2313076Y6105601D01*
X2324862Y6117945D01*
X2349703Y6142126D01*
X2365451Y6158026D01*
X2381554Y6173724D01*
X2396591Y6189370D01*
X2418740Y6211265D01*
X2421788Y6214008D01*
X2435504Y6227521D01*
X2440584Y6232906D01*
X2455011Y6247231D01*
X2460396Y6252210D01*
X2473960Y6265875D01*
X2476754Y6268923D01*
X2509926Y6301638D01*
X2545537Y6337554D01*
X2550007Y6341516D01*
X2600502Y6392773D01*
X2611120Y6389166D01*
X2612542Y6384747D01*
X2618638Y6380835D01*
X2639771Y6360312D01*
X2648407Y6350355D01*
X2669438Y6329883D01*
X2706166Y6292697D01*
X2712923Y6289243D01*
X2714396Y6284671D01*
X2754579Y6245148D01*
X2792018Y6207302D01*
X2794203Y6207302D01*
X2795676Y6202629D01*
X2804668Y6196990D01*
X2804718Y6194196D01*
X2817977Y6180531D01*
X2836875Y6163462D01*
X2841853Y6158331D01*
X2850997Y6147968D01*
X2872740Y6126480D01*
X2875584Y6126480D01*
X2881274Y6117590D01*
X2885795Y6116116D01*
X2887319Y6111443D01*
X2907080Y6091580D01*
X2913989Y6087973D01*
X2907487Y6085535D01*
X2607970Y6084976D01*
X2601823Y6080404D01*
X2602179Y5777179D01*
X2599842Y5777179D01*
X2597505Y5781548D01*
X2592324Y5783122D01*
X2572105Y5802782D01*
X2513380Y5861507D01*
X2295652Y6078270D01*
X2294432Y6087618D01*
X1853488Y6087618D01*
X1853488Y6078880D01*
X1984298Y5948172D01*
X2064664Y5868314D01*
X2086406Y5845556D01*
X2088286Y5845454D01*
X2103272Y5829808D01*
X2135428Y5798007D01*
X2178405Y5754420D01*
X2179777Y5754420D01*
X2192324Y5741924D01*
X2192324Y5740349D01*
X2220366Y5713476D01*
X2231542Y5701284D01*
X2238654Y5693867D01*
X2243023Y5690108D01*
X2246934Y5685840D01*
X2250795Y5682132D01*
X2260955Y5673039D01*
X2279192Y5653684D01*
X2297074Y5636056D01*
X2299817Y5636056D01*
X2302459Y5630926D01*
X2317902Y5615279D01*
X2383180Y5550458D01*
X2392019Y5541416D01*
X2420670Y5512968D01*
X2426055Y5508040D01*
X2448102Y5484723D01*
X2464968Y5469026D01*
X2474264Y5459730D01*
X2488184Y5444794D01*
X2529027Y5404154D01*
X2538526Y5395112D01*
X2543098Y5390286D01*
X2580894Y5352745D01*
X2592832Y5341924D01*
X2596388Y5335727D01*
X2600960Y5333288D01*
X2610662Y5337556D01*
X2806395Y5532374D01*
X2821533Y5547868D01*
X2843022Y5568645D01*
X2871622Y5597956D01*
X2879293Y5604764D01*
X2923692Y5649976D01*
X2923743Y6078829D01*
X2931769Y6082182D01*
X3347669Y6082030D01*
X3353511Y6086348D01*
X3353511Y6088837D01*
X3090214Y6351879D01*
X3065068Y6376263D01*
X3053588Y6388201D01*
X2657094Y6783628D01*
X2643835Y6796481D01*
X2609951Y6830568D01*
X2603804Y6831838D01*
G37*
G36*
X1016762Y6833362D02*
G01*
X1015237Y6831838D01*
X971753Y6829958D01*
X944524Y6828536D01*
X897128Y6822592D01*
X885291Y6820103D01*
X867918Y6817918D01*
X847344Y6814362D01*
X828446Y6809740D01*
X805942Y6803847D01*
X801166Y6802221D01*
X796442Y6800189D01*
X773938Y6792975D01*
X766165Y6788251D01*
X763473Y6788251D01*
X741934Y6775399D01*
X729132Y6765848D01*
X718261Y6755536D01*
X709117Y6745122D01*
X704342Y6735622D01*
X700227Y6729730D01*
X690676Y6704888D01*
X686968Y6689547D01*
X683056Y6662318D01*
X682768Y6618884D01*
X764743Y6618884D01*
X768858Y6635699D01*
X777036Y6649313D01*
X786993Y6658457D01*
X797001Y6665366D01*
X807110Y6668922D01*
X818946Y6671005D01*
X837895Y6669786D01*
X855268Y6661302D01*
X865581Y6652209D01*
X875233Y6637832D01*
X879043Y6626859D01*
X880313Y6606235D01*
X876198Y6591401D01*
X868171Y6576923D01*
X853998Y6563817D01*
X834339Y6556146D01*
X813053Y6556146D01*
X793546Y6562496D01*
X782218Y6571894D01*
X777849Y6576009D01*
X770636Y6586423D01*
X766064Y6598412D01*
X764743Y6618884D01*
X682768Y6618884D01*
X681888Y6478778D01*
X684580Y6473748D01*
X1037894Y6473139D01*
X1037894Y6398666D01*
X469493Y6397193D01*
X455269Y6394602D01*
X439877Y6392367D01*
X426923Y6389776D01*
X403148Y6381750D01*
X391312Y6376670D01*
X360476Y6360769D01*
X336651Y6341516D01*
X313436Y6317081D01*
X304647Y6304076D01*
X292658Y6282791D01*
X281889Y6259118D01*
X274878Y6236665D01*
X260350Y6170472D01*
X254457Y6133795D01*
X252069Y6117234D01*
X249732Y6093612D01*
X249478Y6009640D01*
X252221Y5983630D01*
X258064Y5942736D01*
X261366Y5928055D01*
X264210Y5911545D01*
X268478Y5892596D01*
X272389Y5872480D01*
X277215Y5855970D01*
X283870Y5834684D01*
X295706Y5805068D01*
X305308Y5785002D01*
X319024Y5762548D01*
X340360Y5734862D01*
X359308Y5719165D01*
X372516Y5710123D01*
X394868Y5698134D01*
X421843Y5689803D01*
X443433Y5686044D01*
X585571Y5685383D01*
X605739Y5686856D01*
X607110Y5907989D01*
X611124Y5930290D01*
X616864Y5953404D01*
X627786Y5981293D01*
X633425Y5989878D01*
X637184Y5998819D01*
X648106Y6015583D01*
X657809Y6028588D01*
X676554Y6049873D01*
X699312Y6070752D01*
X733247Y6093155D01*
X751433Y6102096D01*
X759714Y6105093D01*
X764489Y6107176D01*
X775106Y6110884D01*
X808278Y6118250D01*
X1132890Y6119926D01*
X1166063Y6124041D01*
X1199235Y6135370D01*
X1213459Y6141262D01*
X1235964Y6154064D01*
X1247800Y6162090D01*
X1267917Y6179870D01*
X1277721Y6190538D01*
X1285900Y6200038D01*
X1296009Y6215329D01*
X1306728Y6236665D01*
X1313434Y6257442D01*
X1316482Y6272123D01*
X1316482Y6655257D01*
X1313383Y6670598D01*
X1306322Y6696608D01*
X1294180Y6721449D01*
X1277874Y6746290D01*
X1258163Y6766407D01*
X1246581Y6776059D01*
X1218184Y6794753D01*
X1195679Y6804507D01*
X1164844Y6814210D01*
X1124407Y6822440D01*
X1103274Y6825132D01*
X1059434Y6829755D01*
G37*
G36*
X1443228Y6474409D02*
G01*
X1396796Y6473698D01*
X1395374Y6449517D01*
X1396339Y6280404D01*
X1393901Y6243777D01*
X1390700Y6227216D01*
X1380134Y6195314D01*
X1372260Y6177534D01*
X1361795Y6157468D01*
X1349603Y6139738D01*
X1328775Y6114338D01*
X1306982Y6094120D01*
X1285697Y6078677D01*
X1269746Y6068110D01*
X1250137Y6058763D01*
X1230020Y6051346D01*
X1203960Y6044336D01*
X1182624Y6041034D01*
X869797Y6040983D01*
X842670Y6037580D01*
X830783Y6035243D01*
X823721Y6032500D01*
X804062Y6026810D01*
X783793Y6017361D01*
X762101Y6004001D01*
X753821Y5997854D01*
X734212Y5981547D01*
X715619Y5960008D01*
X705053Y5943447D01*
X697992Y5930442D01*
X691845Y5915050D01*
X688086Y5899708D01*
X685393Y5883148D01*
X684781Y5549341D01*
X1116787Y5549341D01*
X1119276Y5562701D01*
X1126490Y5580735D01*
X1136446Y5592470D01*
X1149553Y5602173D01*
X1161389Y5606846D01*
X1167231Y5607913D01*
X1187399Y5608218D01*
X1200607Y5605068D01*
X1215694Y5595924D01*
X1226108Y5585206D01*
X1232103Y5574995D01*
X1237742Y5556808D01*
X1237742Y5540400D01*
X1231798Y5520944D01*
X1222603Y5509514D01*
X1213459Y5501030D01*
X1201470Y5493613D01*
X1190904Y5489600D01*
X1164844Y5489397D01*
X1143812Y5499506D01*
X1125677Y5517794D01*
X1119174Y5534609D01*
X1116787Y5549341D01*
X684781Y5549341D01*
X684733Y5524855D01*
X686968Y5504789D01*
X691743Y5481116D01*
X700074Y5456326D01*
X712063Y5433822D01*
X722579Y5419648D01*
X744829Y5395722D01*
X766826Y5379059D01*
X790854Y5366054D01*
X803554Y5360263D01*
X824890Y5352999D01*
X873455Y5343144D01*
X875030Y5342178D01*
X920851Y5336540D01*
X957580Y5333390D01*
X1019149Y5333492D01*
X1077214Y5338622D01*
X1098550Y5341162D01*
X1122222Y5345734D01*
X1164844Y5352796D01*
X1193292Y5360212D01*
X1206347Y5364886D01*
X1222908Y5370271D01*
X1248105Y5382412D01*
X1271473Y5399836D01*
X1287170Y5416397D01*
X1294739Y5427421D01*
X1302613Y5444591D01*
X1310944Y5471668D01*
X1313688Y5487060D01*
X1315567Y5576925D01*
X1315059Y5683300D01*
X1314704Y5686298D01*
X961644Y5686298D01*
X959916Y5690412D01*
X959967Y5762548D01*
X961644Y5766663D01*
X1525016Y5766714D01*
X1553413Y5771438D01*
X1570024Y5775045D01*
X1585417Y5778703D01*
X1605534Y5785916D01*
X1624380Y5795314D01*
X1642262Y5806084D01*
X1656435Y5816904D01*
X1672640Y5832144D01*
X1687575Y5850026D01*
X1700631Y5870143D01*
X1709166Y5887161D01*
X1718818Y5912713D01*
X1724812Y5933998D01*
X1734108Y5976569D01*
X1737461Y5990742D01*
X1739950Y6002578D01*
X1743405Y6028588D01*
X1749501Y6083350D01*
X1749450Y6131458D01*
X1747062Y6164529D01*
X1743506Y6196533D01*
X1738884Y6224828D01*
X1731568Y6259118D01*
X1727200Y6281623D01*
X1724761Y6289903D01*
X1716582Y6320637D01*
X1710436Y6338874D01*
X1700834Y6361328D01*
X1689811Y6382105D01*
X1676907Y6402222D01*
X1670710Y6411468D01*
X1644650Y6437731D01*
X1624228Y6452362D01*
X1607108Y6460947D01*
X1577136Y6471056D01*
X1558188Y6473698D01*
G37*
G36*
X1315974Y8951214D02*
G01*
X1303223Y8951010D01*
X1290675Y8950452D01*
X1278382Y8949537D01*
X1266240Y8948216D01*
X1254353Y8946540D01*
X1242669Y8944457D01*
X1231188Y8942019D01*
X1219962Y8939174D01*
X1208938Y8935974D01*
X1198118Y8932418D01*
X1187500Y8928455D01*
X1177137Y8924137D01*
X1166977Y8919464D01*
X1157020Y8914384D01*
X1147267Y8908948D01*
X1137716Y8903106D01*
X1128420Y8896908D01*
X1119327Y8890355D01*
X1110437Y8883396D01*
X1101750Y8876080D01*
X1093317Y8868359D01*
X1085088Y8860282D01*
X1077772Y8852560D01*
X1070762Y8844534D01*
X1064056Y8836202D01*
X1057706Y8827617D01*
X1051610Y8818676D01*
X1045870Y8809482D01*
X1040434Y8799931D01*
X1035253Y8790127D01*
X1030427Y8780068D01*
X1025956Y8769654D01*
X1021740Y8758936D01*
X1017828Y8747963D01*
X1014272Y8736634D01*
X1010970Y8725052D01*
X1008024Y8713165D01*
X1005382Y8700973D01*
X1003046Y8688527D01*
X1001014Y8675725D01*
X999337Y8662670D01*
X997915Y8649309D01*
X996848Y8635593D01*
X996035Y8621623D01*
X995578Y8607399D01*
X995436Y8591804D01*
X1200404Y8591804D01*
X1200708Y8607348D01*
X1201724Y8622182D01*
X1203350Y8636304D01*
X1205585Y8649716D01*
X1208532Y8662416D01*
X1212088Y8674404D01*
X1216355Y8685682D01*
X1221232Y8696248D01*
X1226718Y8706104D01*
X1232916Y8715248D01*
X1241298Y8725560D01*
X1250137Y8734450D01*
X1259484Y8742019D01*
X1269288Y8748217D01*
X1279601Y8752992D01*
X1290421Y8756446D01*
X1301699Y8758478D01*
X1313434Y8759190D01*
X1325168Y8758529D01*
X1336446Y8756497D01*
X1347266Y8753144D01*
X1357579Y8748471D01*
X1367383Y8742426D01*
X1376730Y8735060D01*
X1385570Y8726322D01*
X1393952Y8716264D01*
X1400149Y8707323D01*
X1405636Y8697620D01*
X1410512Y8687155D01*
X1414780Y8675979D01*
X1418336Y8664092D01*
X1421282Y8651392D01*
X1423517Y8637981D01*
X1425143Y8623858D01*
X1426159Y8608974D01*
X1426464Y8593328D01*
X1426159Y8577681D01*
X1425194Y8562797D01*
X1423619Y8548674D01*
X1421434Y8535263D01*
X1418590Y8522563D01*
X1415135Y8510676D01*
X1411020Y8499500D01*
X1406296Y8489035D01*
X1400962Y8479332D01*
X1394968Y8470392D01*
X1386789Y8460282D01*
X1378051Y8451494D01*
X1368653Y8444077D01*
X1358696Y8437981D01*
X1348181Y8433308D01*
X1337005Y8429904D01*
X1325270Y8427872D01*
X1312926Y8427212D01*
X1300581Y8427872D01*
X1288897Y8429904D01*
X1277772Y8433206D01*
X1267256Y8437880D01*
X1257401Y8443874D01*
X1248105Y8451189D01*
X1239469Y8459876D01*
X1231392Y8469884D01*
X1225499Y8478723D01*
X1220216Y8488324D01*
X1215593Y8498687D01*
X1211580Y8509762D01*
X1208176Y8521547D01*
X1205382Y8534146D01*
X1203198Y8547455D01*
X1201623Y8561476D01*
X1200708Y8576259D01*
X1200404Y8591804D01*
X995436Y8591804D01*
X995578Y8578240D01*
X996035Y8563965D01*
X996797Y8549995D01*
X997864Y8536330D01*
X999286Y8522919D01*
X1000963Y8509863D01*
X1002944Y8497062D01*
X1005281Y8484514D01*
X1007871Y8472322D01*
X1010818Y8460384D01*
X1014069Y8448751D01*
X1017574Y8437422D01*
X1021435Y8426399D01*
X1025601Y8415629D01*
X1030071Y8405215D01*
X1034846Y8395055D01*
X1039926Y8385149D01*
X1045311Y8375599D01*
X1051001Y8366302D01*
X1056995Y8357362D01*
X1063294Y8348675D01*
X1069898Y8340242D01*
X1076858Y8332165D01*
X1084072Y8324342D01*
X1092200Y8316163D01*
X1100582Y8308390D01*
X1109167Y8300974D01*
X1117955Y8293963D01*
X1126947Y8287308D01*
X1136142Y8281009D01*
X1145590Y8275116D01*
X1155242Y8269630D01*
X1165098Y8264499D01*
X1175207Y8259775D01*
X1185468Y8255355D01*
X1195984Y8251393D01*
X1206703Y8247786D01*
X1217676Y8244535D01*
X1228801Y8241690D01*
X1240180Y8239252D01*
X1251762Y8237118D01*
X1263548Y8235442D01*
X1275588Y8234121D01*
X1287830Y8233156D01*
X1300276Y8232597D01*
X1312926Y8232394D01*
X1326845Y8232597D01*
X1340510Y8233257D01*
X1353921Y8234375D01*
X1367078Y8235950D01*
X1379931Y8237931D01*
X1392580Y8240369D01*
X1404975Y8243214D01*
X1417066Y8246516D01*
X1428953Y8250275D01*
X1440586Y8254492D01*
X1451914Y8259114D01*
X1462989Y8264194D01*
X1473860Y8269731D01*
X1484426Y8275726D01*
X1494739Y8282127D01*
X1504848Y8288985D01*
X1514652Y8296249D01*
X1524203Y8303971D01*
X1533499Y8312150D01*
X1542542Y8320786D01*
X1549806Y8328304D01*
X1556766Y8336178D01*
X1563370Y8344357D01*
X1569720Y8352840D01*
X1575714Y8361680D01*
X1581454Y8370824D01*
X1586839Y8380272D01*
X1591919Y8390077D01*
X1596694Y8400186D01*
X1601216Y8410651D01*
X1605381Y8421370D01*
X1609191Y8432495D01*
X1612747Y8443874D01*
X1615998Y8455609D01*
X1618945Y8467699D01*
X1621586Y8480094D01*
X1623872Y8492794D01*
X1625904Y8505799D01*
X1627581Y8519160D01*
X1628952Y8532825D01*
X1630070Y8546846D01*
X1630832Y8561171D01*
X1631289Y8575802D01*
X1631442Y8590788D01*
X1631289Y8605774D01*
X1630832Y8620404D01*
X1630070Y8634730D01*
X1629054Y8648750D01*
X1627682Y8662466D01*
X1626006Y8675827D01*
X1624076Y8688882D01*
X1621790Y8701633D01*
X1619250Y8714028D01*
X1616354Y8726119D01*
X1613204Y8737904D01*
X1609750Y8749334D01*
X1605940Y8760460D01*
X1601876Y8771280D01*
X1597507Y8781796D01*
X1592834Y8791956D01*
X1587855Y8801811D01*
X1582572Y8811361D01*
X1576984Y8820556D01*
X1571142Y8829446D01*
X1564944Y8838031D01*
X1558442Y8846261D01*
X1551686Y8854186D01*
X1544574Y8861806D01*
X1535734Y8870543D01*
X1526590Y8878773D01*
X1517192Y8886596D01*
X1507540Y8894013D01*
X1497634Y8900922D01*
X1487424Y8907424D01*
X1476908Y8913418D01*
X1466189Y8919006D01*
X1455166Y8924188D01*
X1443888Y8928862D01*
X1432306Y8933129D01*
X1420469Y8936888D01*
X1408328Y8940241D01*
X1395984Y8943187D01*
X1383334Y8945626D01*
X1370380Y8947658D01*
X1357172Y8949182D01*
X1343710Y8950299D01*
X1329994Y8951010D01*
G37*
G36*
X3431540Y8951214D02*
G01*
X3418433Y8950960D01*
X3405632Y8950248D01*
X3393186Y8949080D01*
X3380994Y8947454D01*
X3369157Y8945321D01*
X3357676Y8942730D01*
X3346450Y8939631D01*
X3335578Y8936126D01*
X3325012Y8932062D01*
X3314801Y8927592D01*
X3304895Y8922664D01*
X3295294Y8917228D01*
X3285998Y8911285D01*
X3277057Y8904935D01*
X3268421Y8898077D01*
X3260090Y8890762D01*
X3251047Y8881973D01*
X3242716Y8872931D01*
X3234994Y8863584D01*
X3227984Y8853982D01*
X3221634Y8844026D01*
X3215944Y8833866D01*
X3210966Y8823401D01*
X3206597Y8812631D01*
X3202940Y8801608D01*
X3199892Y8790279D01*
X3197555Y8778697D01*
X3195878Y8766810D01*
X3194913Y8754618D01*
X3194558Y8742172D01*
X3194812Y8727744D01*
X3195675Y8713724D01*
X3197047Y8700160D01*
X3198977Y8687003D01*
X3201466Y8674303D01*
X3204514Y8662060D01*
X3208121Y8650173D01*
X3212287Y8638743D01*
X3217011Y8627770D01*
X3222244Y8617204D01*
X3228086Y8607094D01*
X3234436Y8597392D01*
X3242208Y8586927D01*
X3251606Y8576665D01*
X3262528Y8566607D01*
X3275076Y8556752D01*
X3287623Y8547658D01*
X3298901Y8539988D01*
X3308858Y8533688D01*
X3317494Y8528812D01*
X3337509Y8518601D01*
X3380232Y8497925D01*
X3392474Y8491118D01*
X3402228Y8484717D01*
X3409442Y8478774D01*
X3418382Y8466429D01*
X3421379Y8452358D01*
X3420211Y8442248D01*
X3416655Y8434019D01*
X3410762Y8427618D01*
X3402533Y8422995D01*
X3391915Y8420252D01*
X3378962Y8419338D01*
X3368294Y8419744D01*
X3357473Y8420963D01*
X3346551Y8422995D01*
X3335528Y8425789D01*
X3324351Y8429447D01*
X3313023Y8433917D01*
X3301644Y8439150D01*
X3290062Y8445246D01*
X3262122Y8461451D01*
X3250438Y8468614D01*
X3240278Y8475167D01*
X3231642Y8481110D01*
X3224530Y8486394D01*
X3218891Y8481212D01*
X3213404Y8474557D01*
X3208020Y8466378D01*
X3202736Y8456726D01*
X3197555Y8445500D01*
X3192526Y8432800D01*
X3187954Y8419338D01*
X3184194Y8405774D01*
X3181299Y8392210D01*
X3179216Y8378596D01*
X3177946Y8364981D01*
X3177540Y8351266D01*
X3178556Y8337956D01*
X3181553Y8325307D01*
X3186531Y8313369D01*
X3193592Y8302040D01*
X3202584Y8291423D01*
X3213608Y8281416D01*
X3222752Y8274405D01*
X3232302Y8268004D01*
X3242259Y8262213D01*
X3252622Y8257031D01*
X3263341Y8252459D01*
X3274466Y8248446D01*
X3285998Y8245094D01*
X3297936Y8242300D01*
X3310229Y8239963D01*
X3322929Y8237981D01*
X3335934Y8236254D01*
X3349294Y8234883D01*
X3363061Y8233765D01*
X3377133Y8233003D01*
X3391611Y8232546D01*
X3406394Y8232394D01*
X3421532Y8232902D01*
X3436162Y8233918D01*
X3450336Y8235492D01*
X3463950Y8237524D01*
X3477107Y8240064D01*
X3489756Y8243163D01*
X3501898Y8246770D01*
X3513531Y8250885D01*
X3524656Y8255508D01*
X3535273Y8260638D01*
X3545382Y8266277D01*
X3555034Y8272424D01*
X3564178Y8279130D01*
X3572764Y8286292D01*
X3580892Y8294014D01*
X3588512Y8302244D01*
X3595624Y8310880D01*
X3602329Y8319871D01*
X3608527Y8329117D01*
X3614318Y8338718D01*
X3619601Y8348573D01*
X3624427Y8358784D01*
X3628796Y8369249D01*
X3632708Y8380018D01*
X3636162Y8391144D01*
X3639159Y8402523D01*
X3641699Y8414207D01*
X3643731Y8426196D01*
X3645357Y8438540D01*
X3646525Y8451138D01*
X3647186Y8464042D01*
X3647440Y8477250D01*
X3647084Y8490712D01*
X3645966Y8503716D01*
X3644137Y8516264D01*
X3641547Y8528405D01*
X3638245Y8540038D01*
X3634232Y8551265D01*
X3629456Y8562086D01*
X3623970Y8572398D01*
X3617722Y8582304D01*
X3610762Y8591753D01*
X3603040Y8600744D01*
X3594608Y8609330D01*
X3581755Y8620658D01*
X3569411Y8630869D01*
X3557524Y8639860D01*
X3546094Y8647684D01*
X3534968Y8654694D01*
X3524250Y8661095D01*
X3513886Y8666784D01*
X3494430Y8676386D01*
X3446526Y8699246D01*
X3430320Y8708085D01*
X3418687Y8717534D01*
X3411778Y8727643D01*
X3409442Y8738362D01*
X3410864Y8749284D01*
X3415080Y8758275D01*
X3422091Y8765235D01*
X3431895Y8770213D01*
X3444544Y8773160D01*
X3459987Y8774176D01*
X3470249Y8773871D01*
X3480765Y8772855D01*
X3491534Y8771229D01*
X3502558Y8768943D01*
X3513886Y8765997D01*
X3525469Y8762390D01*
X3537356Y8758123D01*
X3549497Y8753195D01*
X3561892Y8747658D01*
X3574542Y8741410D01*
X3577894Y8744661D01*
X3581958Y8750604D01*
X3586734Y8759190D01*
X3592271Y8770416D01*
X3598519Y8784285D01*
X3605529Y8800846D01*
X3610660Y8813901D01*
X3615080Y8826347D01*
X3618839Y8838285D01*
X3621938Y8849614D01*
X3624326Y8860383D01*
X3626002Y8870594D01*
X3627018Y8880195D01*
X3627374Y8889238D01*
X3627374Y8895334D01*
X3625138Y8903360D01*
X3619601Y8910878D01*
X3610711Y8917889D01*
X3598570Y8924340D01*
X3583127Y8930284D01*
X3564382Y8935720D01*
X3552088Y8938666D01*
X3539540Y8941308D01*
X3526840Y8943644D01*
X3513886Y8945626D01*
X3500678Y8947353D01*
X3487318Y8948724D01*
X3473704Y8949842D01*
X3459835Y8950604D01*
X3445814Y8951061D01*
G37*
G36*
X6637528Y8946388D02*
G01*
X6618528Y8946235D01*
X6601510Y8945727D01*
X6586474Y8944864D01*
X6573469Y8943644D01*
X6562445Y8942120D01*
X6553454Y8940241D01*
X6546443Y8938056D01*
X6541465Y8935516D01*
X6538468Y8932621D01*
X6537452Y8929370D01*
X6537452Y8258302D01*
X6540601Y8253730D01*
X6549948Y8249869D01*
X6565595Y8246719D01*
X6587490Y8244331D01*
X6643370Y8241284D01*
X6665468Y8241538D01*
X6684619Y8242198D01*
X6700774Y8243366D01*
X6714032Y8245043D01*
X6724345Y8247125D01*
X6731711Y8249716D01*
X6736130Y8252764D01*
X6737603Y8256270D01*
X6737603Y8497316D01*
X6753606Y8497316D01*
X6867398Y8279384D01*
X6873798Y8269071D01*
X6880961Y8260130D01*
X6888937Y8252561D01*
X6897674Y8246414D01*
X6907174Y8241639D01*
X6917436Y8238236D01*
X6941566Y8236203D01*
X6950964Y8236661D01*
X6960412Y8237981D01*
X6969912Y8240217D01*
X6979412Y8243316D01*
X6991654Y8248040D01*
X7003542Y8253171D01*
X7015175Y8258606D01*
X7026452Y8264347D01*
X7037374Y8270494D01*
X7048042Y8276945D01*
X7058355Y8283803D01*
X7068312Y8290966D01*
X7078014Y8298434D01*
X7101636Y8318042D01*
X7106412Y8323325D01*
X6904481Y8602218D01*
X7078929Y8917330D01*
X7079437Y8919210D01*
X7079488Y8920226D01*
X7077405Y8923934D01*
X7073646Y8927287D01*
X7068058Y8930335D01*
X7060793Y8933078D01*
X7051751Y8935466D01*
X7040930Y8937548D01*
X7028383Y8939326D01*
X7014108Y8940749D01*
X6998106Y8941917D01*
X6980326Y8942679D01*
X6960819Y8943187D01*
X6939534Y8943340D01*
X6916978Y8942933D01*
X6898131Y8941765D01*
X6882942Y8939834D01*
X6871462Y8937142D01*
X6863638Y8933637D01*
X6859524Y8929370D01*
X6737603Y8673338D01*
X6737603Y8929370D01*
X6736588Y8932621D01*
X6733590Y8935516D01*
X6728612Y8938056D01*
X6721602Y8940241D01*
X6712559Y8942120D01*
X6701586Y8943644D01*
X6688581Y8944864D01*
X6673545Y8945727D01*
X6656527Y8946235D01*
G37*
G36*
X5538978Y8944356D02*
G01*
X5519674Y8944152D01*
X5502402Y8943492D01*
X5487162Y8942476D01*
X5473954Y8941003D01*
X5462778Y8939072D01*
X5453634Y8936786D01*
X5446522Y8934043D01*
X5441442Y8930843D01*
X5438394Y8927287D01*
X5437378Y8923274D01*
X5437378Y8301228D01*
X5438190Y8290102D01*
X5440680Y8279587D01*
X5444794Y8269630D01*
X5450586Y8260334D01*
X5457596Y8252459D01*
X5465775Y8246821D01*
X5475020Y8243417D01*
X5485384Y8242300D01*
X5793486Y8242300D01*
X5799226Y8243620D01*
X5804357Y8247634D01*
X5808980Y8254288D01*
X5812993Y8263636D01*
X5816498Y8275624D01*
X5819394Y8290306D01*
X5820714Y8302701D01*
X5821680Y8314994D01*
X5822238Y8327237D01*
X5822442Y8339328D01*
X5822238Y8351215D01*
X5821680Y8363000D01*
X5820714Y8374735D01*
X5819394Y8386318D01*
X5816803Y8400694D01*
X5813602Y8412429D01*
X5809742Y8421573D01*
X5805271Y8428075D01*
X5800191Y8431987D01*
X5794502Y8433308D01*
X5640578Y8433308D01*
X5640578Y8923274D01*
X5639562Y8927287D01*
X5636514Y8930843D01*
X5631434Y8934043D01*
X5624322Y8936786D01*
X5615178Y8939072D01*
X5604002Y8941003D01*
X5590794Y8942476D01*
X5575554Y8943492D01*
X5558282Y8944152D01*
G37*
G36*
X446532Y8943340D02*
G01*
X428040Y8943086D01*
X411988Y8942425D01*
X398373Y8941257D01*
X387299Y8939580D01*
X378663Y8937498D01*
X372465Y8934907D01*
X368757Y8931859D01*
X367538Y8928354D01*
X367538Y8259318D01*
X368960Y8255101D01*
X373329Y8251444D01*
X380542Y8248345D01*
X390652Y8245805D01*
X403656Y8243824D01*
X419557Y8242401D01*
X438302Y8241588D01*
X459993Y8241284D01*
X481685Y8241588D01*
X500430Y8242401D01*
X516331Y8243824D01*
X529336Y8245805D01*
X539445Y8248345D01*
X546658Y8251444D01*
X551027Y8255101D01*
X552450Y8259318D01*
X552450Y8570214D01*
X719582Y8258302D01*
X722884Y8254796D01*
X728878Y8251748D01*
X737616Y8249158D01*
X748995Y8247075D01*
X763066Y8245398D01*
X779830Y8244230D01*
X799287Y8243570D01*
X821436Y8243316D01*
X839266Y8243519D01*
X855268Y8244179D01*
X869340Y8245195D01*
X881583Y8246668D01*
X891895Y8248599D01*
X900379Y8250885D01*
X906932Y8253628D01*
X911656Y8256828D01*
X914450Y8260384D01*
X915416Y8264398D01*
X915416Y8923274D01*
X913942Y8927744D01*
X909624Y8931605D01*
X902360Y8934907D01*
X892200Y8937548D01*
X879094Y8939631D01*
X863142Y8941155D01*
X844245Y8942019D01*
X822452Y8942324D01*
X800658Y8942019D01*
X781761Y8941155D01*
X765810Y8939631D01*
X752754Y8937548D01*
X742543Y8934907D01*
X735279Y8931605D01*
X730961Y8927744D01*
X729488Y8923274D01*
X729488Y8609330D01*
X569468Y8917178D01*
X562965Y8924188D01*
X552399Y8929928D01*
X537718Y8934450D01*
X518922Y8937752D01*
X505409Y8939479D01*
X480110Y8941968D01*
X468325Y8942730D01*
X457149Y8943187D01*
G37*
G36*
X2467610Y8943340D02*
G01*
X2448407Y8943136D01*
X2431237Y8942476D01*
X2416048Y8941460D01*
X2402890Y8939987D01*
X2391765Y8938056D01*
X2382672Y8935770D01*
X2375611Y8933027D01*
X2370582Y8929827D01*
X2367534Y8926271D01*
X2366518Y8922258D01*
X2366518Y8259318D01*
X2367534Y8256066D01*
X2370582Y8253171D01*
X2375611Y8250631D01*
X2382672Y8248446D01*
X2391765Y8246567D01*
X2402890Y8245043D01*
X2416048Y8243824D01*
X2431237Y8242960D01*
X2448407Y8242452D01*
X2467610Y8242300D01*
X2486761Y8242452D01*
X2503932Y8242960D01*
X2519019Y8243824D01*
X2532126Y8245043D01*
X2543251Y8246567D01*
X2552293Y8248446D01*
X2559354Y8250631D01*
X2564434Y8253171D01*
X2567432Y8256066D01*
X2568448Y8259318D01*
X2568448Y8489188D01*
X2708402Y8489188D01*
X2708402Y8259318D01*
X2709418Y8256066D01*
X2712466Y8253171D01*
X2717495Y8250631D01*
X2724556Y8248446D01*
X2733700Y8246567D01*
X2744774Y8245043D01*
X2757932Y8243824D01*
X2773121Y8242960D01*
X2790291Y8242452D01*
X2809494Y8242300D01*
X2828696Y8242452D01*
X2845866Y8242960D01*
X2861056Y8243824D01*
X2874213Y8245043D01*
X2885338Y8246567D01*
X2894431Y8248446D01*
X2901492Y8250631D01*
X2906522Y8253171D01*
X2909570Y8256066D01*
X2910586Y8259318D01*
X2910586Y8920226D01*
X2909214Y8924645D01*
X2905048Y8928658D01*
X2898089Y8932214D01*
X2888335Y8935364D01*
X2875838Y8938056D01*
X2860548Y8940292D01*
X2809494Y8942324D01*
X2796946Y8942222D01*
X2771444Y8941155D01*
X2758440Y8940292D01*
X2743149Y8938056D01*
X2730652Y8935364D01*
X2720898Y8932214D01*
X2713939Y8928658D01*
X2709773Y8924645D01*
X2708402Y8920226D01*
X2708402Y8687308D01*
X2568448Y8687308D01*
X2568448Y8922258D01*
X2567432Y8926271D01*
X2564434Y8929827D01*
X2559354Y8933027D01*
X2552293Y8935770D01*
X2543251Y8938056D01*
X2532126Y8939987D01*
X2519019Y8941460D01*
X2503932Y8942476D01*
X2486761Y8943136D01*
G37*
G36*
X4411472Y8942324D02*
G01*
X4402023Y8941358D01*
X4394250Y8938564D01*
X4388256Y8933789D01*
X4383938Y8927185D01*
X4381347Y8918702D01*
X4380484Y8908288D01*
X4380484Y8768334D01*
X4594606Y8768334D01*
X4607864Y8767876D01*
X4619701Y8766454D01*
X4630166Y8764066D01*
X4639208Y8760764D01*
X4646828Y8756497D01*
X4653026Y8751316D01*
X4658055Y8745016D01*
X4662220Y8737447D01*
X4665421Y8728608D01*
X4667707Y8718448D01*
X4669078Y8707069D01*
X4669536Y8694420D01*
X4668875Y8681567D01*
X4666843Y8669680D01*
X4663490Y8658809D01*
X4658817Y8648903D01*
X4652772Y8640064D01*
X4645406Y8632190D01*
X4637125Y8625535D01*
X4628235Y8620048D01*
X4618736Y8615781D01*
X4608626Y8612784D01*
X4597857Y8610955D01*
X4586478Y8610346D01*
X4573524Y8610346D01*
X4573524Y8768334D01*
X4380484Y8768334D01*
X4380484Y8260334D01*
X4381906Y8255609D01*
X4386173Y8251545D01*
X4393285Y8248091D01*
X4403191Y8245297D01*
X4415993Y8243112D01*
X4431639Y8241538D01*
X4450080Y8240572D01*
X4471416Y8240268D01*
X4490669Y8240775D01*
X4512157Y8242300D01*
X4535932Y8244840D01*
X4552391Y8247583D01*
X4564126Y8251240D01*
X4571187Y8255863D01*
X4573524Y8261350D01*
X4573524Y8440420D01*
X4586732Y8440572D01*
X4599635Y8441080D01*
X4612284Y8441893D01*
X4624628Y8443061D01*
X4636719Y8444585D01*
X4648504Y8446363D01*
X4660036Y8448548D01*
X4671263Y8451037D01*
X4682236Y8453831D01*
X4692954Y8456980D01*
X4703368Y8460486D01*
X4713478Y8464296D01*
X4725162Y8469274D01*
X4736287Y8474557D01*
X4746853Y8480196D01*
X4756810Y8486140D01*
X4766208Y8492337D01*
X4774996Y8498941D01*
X4783226Y8505799D01*
X4790846Y8512962D01*
X4797907Y8520480D01*
X4804410Y8528304D01*
X4811928Y8538362D01*
X4818938Y8548573D01*
X4825492Y8558885D01*
X4831537Y8569299D01*
X4837074Y8579866D01*
X4842154Y8590584D01*
X4846777Y8601354D01*
X4850892Y8612327D01*
X4854498Y8623401D01*
X4857648Y8634577D01*
X4860340Y8645906D01*
X4862525Y8657336D01*
X4864201Y8668867D01*
X4865420Y8680551D01*
X4866132Y8692388D01*
X4866386Y8704326D01*
X4866132Y8718600D01*
X4865370Y8732469D01*
X4864100Y8745931D01*
X4862322Y8758936D01*
X4860036Y8771483D01*
X4857191Y8783624D01*
X4853889Y8795359D01*
X4850079Y8806637D01*
X4845710Y8817457D01*
X4840884Y8827871D01*
X4835550Y8837879D01*
X4829657Y8847429D01*
X4823307Y8856573D01*
X4816398Y8865260D01*
X4809032Y8873540D01*
X4801108Y8881364D01*
X4793589Y8887968D01*
X4785512Y8894165D01*
X4776978Y8900007D01*
X4767884Y8905443D01*
X4758334Y8910523D01*
X4748225Y8915247D01*
X4737658Y8919565D01*
X4726533Y8923528D01*
X4714951Y8927084D01*
X4702810Y8930284D01*
X4690160Y8933129D01*
X4677054Y8935567D01*
X4663389Y8937599D01*
X4649216Y8939326D01*
X4634585Y8940647D01*
X4619396Y8941562D01*
X4603699Y8942120D01*
X4587494Y8942324D01*
G37*
G36*
X4977384Y8942324D02*
G01*
X4967376Y8940698D01*
X4960213Y8935821D01*
X4955946Y8927744D01*
X4954524Y8916416D01*
X4954524Y8273288D01*
X4955590Y8263839D01*
X4958740Y8256066D01*
X4963972Y8250021D01*
X4971338Y8245754D01*
X4980787Y8243163D01*
X4992370Y8242300D01*
X5334508Y8242300D01*
X5341010Y8244433D01*
X5346496Y8250834D01*
X5351018Y8261451D01*
X5354574Y8276336D01*
X5357114Y8292541D01*
X5358942Y8307171D01*
X5360060Y8320227D01*
X5360416Y8331708D01*
X5360212Y8342325D01*
X5359654Y8352688D01*
X5358688Y8362645D01*
X5357368Y8372348D01*
X5353761Y8391550D01*
X5348732Y8405317D01*
X5342331Y8413546D01*
X5334508Y8416290D01*
X5150612Y8416290D01*
X5150612Y8516366D01*
X5277612Y8516366D01*
X5283098Y8518144D01*
X5287670Y8523478D01*
X5291226Y8532368D01*
X5293868Y8544814D01*
X5295849Y8558580D01*
X5297322Y8571433D01*
X5298135Y8583320D01*
X5298440Y8594344D01*
X5298135Y8610701D01*
X5297271Y8624925D01*
X5295747Y8636914D01*
X5293664Y8646718D01*
X5291023Y8654389D01*
X5287721Y8659825D01*
X5283860Y8663127D01*
X5279390Y8664194D01*
X5150612Y8664194D01*
X5150612Y8765286D01*
X5335524Y8765286D01*
X5340451Y8766657D01*
X5344769Y8770823D01*
X5348376Y8777732D01*
X5351322Y8787384D01*
X5353659Y8799830D01*
X5355285Y8815019D01*
X5356301Y8832951D01*
X5356606Y8853678D01*
X5356301Y8874455D01*
X5355285Y8892438D01*
X5353659Y8907678D01*
X5351322Y8920175D01*
X5348376Y8929878D01*
X5344769Y8936786D01*
X5340451Y8940952D01*
X5335524Y8942324D01*
G37*
G36*
X1990598Y8941308D02*
G01*
X1948688Y8941104D01*
X1914398Y8940393D01*
X1887728Y8939276D01*
X1877263Y8938564D01*
X1868678Y8937701D01*
X1862023Y8936736D01*
X1857248Y8935669D01*
X1854403Y8934500D01*
X1853438Y8933180D01*
X1746484Y8524240D01*
X1920493Y8524240D01*
X1974596Y8731250D01*
X1980438Y8731250D01*
X2025396Y8524240D01*
X1746484Y8524240D01*
X1676400Y8256270D01*
X1682191Y8252663D01*
X1699514Y8247888D01*
X1707845Y8246160D01*
X1717548Y8244789D01*
X1728673Y8243671D01*
X1741170Y8242909D01*
X1755089Y8242452D01*
X1770380Y8242300D01*
X1787550Y8242604D01*
X1803095Y8243519D01*
X1816912Y8245094D01*
X1829003Y8247278D01*
X1839468Y8250021D01*
X1848205Y8253475D01*
X1855317Y8257489D01*
X1860702Y8262112D01*
X1864360Y8267395D01*
X1866392Y8273288D01*
X1895602Y8397240D01*
X2054606Y8397240D01*
X2087372Y8268208D01*
X2089607Y8262874D01*
X2093417Y8258149D01*
X2098852Y8253933D01*
X2105863Y8250326D01*
X2114499Y8247278D01*
X2124710Y8244738D01*
X2136546Y8242808D01*
X2149957Y8241385D01*
X2164994Y8240572D01*
X2181606Y8240268D01*
X2201672Y8240725D01*
X2225954Y8242096D01*
X2254504Y8244331D01*
X2274620Y8246516D01*
X2288997Y8249107D01*
X2297582Y8252002D01*
X2300478Y8255253D01*
X2127504Y8933180D01*
X2126538Y8934500D01*
X2123694Y8935669D01*
X2118969Y8936736D01*
X2112314Y8937701D01*
X2103729Y8938564D01*
X2080920Y8939885D01*
X2050491Y8940800D01*
X2012442Y8941257D01*
G37*
G36*
X4008374Y8941308D02*
G01*
X3966565Y8941104D01*
X3932326Y8940393D01*
X3905707Y8939276D01*
X3895242Y8938564D01*
X3886657Y8937701D01*
X3880002Y8936736D01*
X3875278Y8935669D01*
X3872433Y8934500D01*
X3871468Y8933180D01*
X3764514Y8524240D01*
X3938524Y8524240D01*
X3992372Y8731250D01*
X3998468Y8731250D01*
X4043426Y8524240D01*
X3764514Y8524240D01*
X3694429Y8256270D01*
X3700221Y8252663D01*
X3717544Y8247888D01*
X3725875Y8246160D01*
X3735578Y8244789D01*
X3746703Y8243671D01*
X3759200Y8242909D01*
X3773119Y8242452D01*
X3788410Y8242300D01*
X3805580Y8242604D01*
X3821125Y8243519D01*
X3834942Y8245094D01*
X3847033Y8247278D01*
X3857498Y8250021D01*
X3866235Y8253475D01*
X3873347Y8257489D01*
X3878732Y8262112D01*
X3882390Y8267395D01*
X3884422Y8273288D01*
X3913378Y8397240D01*
X4072382Y8397240D01*
X4105401Y8268208D01*
X4107637Y8262874D01*
X4111447Y8258149D01*
X4116832Y8253933D01*
X4123842Y8250326D01*
X4132427Y8247278D01*
X4142638Y8244738D01*
X4154424Y8242808D01*
X4167835Y8241385D01*
X4182821Y8240572D01*
X4199382Y8240268D01*
X4219600Y8240725D01*
X4243984Y8242096D01*
X4272534Y8244331D01*
X4292650Y8246516D01*
X4307027Y8249107D01*
X4315612Y8252002D01*
X4318508Y8255253D01*
X4145534Y8933180D01*
X4144568Y8934500D01*
X4141724Y8935669D01*
X4136948Y8936736D01*
X4130294Y8937701D01*
X4121708Y8938564D01*
X4098848Y8939885D01*
X4068368Y8940800D01*
X4030268Y8941257D01*
G37*
G36*
X6161532Y8941308D02*
G01*
X6119622Y8941104D01*
X6085332Y8940393D01*
X6058662Y8939276D01*
X6048197Y8938564D01*
X6039612Y8937701D01*
X6032957Y8936736D01*
X6028182Y8935669D01*
X6025337Y8934500D01*
X6024372Y8933180D01*
X5917571Y8524240D01*
X6091428Y8524240D01*
X6145530Y8731250D01*
X6151372Y8731250D01*
X6196584Y8524240D01*
X5917571Y8524240D01*
X5847588Y8256270D01*
X5853328Y8252663D01*
X5870448Y8247888D01*
X5878830Y8246160D01*
X5888634Y8244789D01*
X5899759Y8243671D01*
X5912307Y8242909D01*
X5926277Y8242452D01*
X5941568Y8242300D01*
X5958738Y8242604D01*
X5974181Y8243519D01*
X5987999Y8245094D01*
X6000089Y8247278D01*
X6010554Y8250021D01*
X6019292Y8253475D01*
X6026353Y8257489D01*
X6031788Y8262112D01*
X6035548Y8267395D01*
X6037580Y8273288D01*
X6066536Y8397240D01*
X6225540Y8397240D01*
X6258560Y8268208D01*
X6260744Y8262874D01*
X6264503Y8258149D01*
X6269888Y8253933D01*
X6276898Y8250326D01*
X6285484Y8247278D01*
X6295694Y8244738D01*
X6307480Y8242808D01*
X6320891Y8241385D01*
X6335928Y8240572D01*
X6352540Y8240268D01*
X6372606Y8240725D01*
X6396888Y8242096D01*
X6425438Y8244331D01*
X6445554Y8246516D01*
X6459931Y8249107D01*
X6468516Y8252002D01*
X6471412Y8255253D01*
X6298438Y8933180D01*
X6297472Y8934500D01*
X6294628Y8935669D01*
X6289903Y8936736D01*
X6283248Y8937701D01*
X6274663Y8938564D01*
X6251854Y8939885D01*
X6221425Y8940800D01*
X6183376Y8941257D01*
G37*
G36*
X8746998Y7507731D02*
G01*
X8736939Y7506970D01*
X8727897Y7504734D01*
X8719820Y7501026D01*
X8712708Y7495794D01*
X8702802Y7482281D01*
X8699500Y7466075D01*
X8701532Y7449921D01*
X8707628Y7437120D01*
X8709202Y7434986D01*
X8711031Y7432954D01*
X8715756Y7428992D01*
X8720531Y7425588D01*
X8724138Y7423403D01*
X8739174Y7415733D01*
X8742680Y7413244D01*
X8743696Y7412075D01*
X8744407Y7410754D01*
X8744813Y7409383D01*
X8744966Y7407909D01*
X8744458Y7405014D01*
X8742883Y7402931D01*
X8740241Y7401712D01*
X8736584Y7401306D01*
X8732215Y7401661D01*
X8727795Y7402626D01*
X8723325Y7404303D01*
X8714435Y7409027D01*
X8707831Y7413142D01*
X8705596Y7414768D01*
X8703970Y7413142D01*
X8702344Y7410805D01*
X8700770Y7407808D01*
X8699246Y7404100D01*
X8697925Y7400036D01*
X8696960Y7395972D01*
X8696401Y7391908D01*
X8696198Y7387844D01*
X8696655Y7383932D01*
X8697976Y7380274D01*
X8700211Y7376922D01*
X8703310Y7373874D01*
X8707120Y7371181D01*
X8711234Y7368997D01*
X8715654Y7367270D01*
X8720328Y7366000D01*
X8730538Y7364475D01*
X8741918Y7363968D01*
X8753449Y7365034D01*
X8763355Y7367727D01*
X8771737Y7371994D01*
X8778494Y7377938D01*
X8783624Y7385253D01*
X8787231Y7393584D01*
X8789466Y7402779D01*
X8790178Y7412990D01*
X8787536Y7427823D01*
X8779510Y7439406D01*
X8774531Y7443724D01*
X8769858Y7447025D01*
X8765489Y7449769D01*
X8746845Y7459167D01*
X8744508Y7461046D01*
X8743137Y7463129D01*
X8742680Y7465314D01*
X8743289Y7468412D01*
X8745169Y7470648D01*
X8748268Y7471968D01*
X8752586Y7472425D01*
X8757818Y7472019D01*
X8763457Y7470800D01*
X8769400Y7468717D01*
X8775700Y7465822D01*
X8776766Y7467041D01*
X8779814Y7473035D01*
X8783675Y7482840D01*
X8785047Y7487462D01*
X8785860Y7491628D01*
X8786114Y7496556D01*
X8785250Y7498943D01*
X8782862Y7501128D01*
X8779002Y7503058D01*
X8773668Y7504684D01*
X8760917Y7506970D01*
G37*
G36*
X8448294Y7506716D02*
G01*
X8442147Y7506462D01*
X8430412Y7505242D01*
X8427516Y7504633D01*
X8425688Y7503820D01*
X8424926Y7502906D01*
X8413496Y7417816D01*
X8392668Y7503668D01*
X8391296Y7504887D01*
X8388248Y7505750D01*
X8383422Y7506309D01*
X8376920Y7506462D01*
X8370519Y7506258D01*
X8365794Y7505700D01*
X8362797Y7504734D01*
X8361425Y7503414D01*
X8340090Y7418324D01*
X8330438Y7502398D01*
X8324138Y7505242D01*
X8306816Y7506208D01*
X8297722Y7506055D01*
X8291322Y7505649D01*
X8287562Y7504938D01*
X8286496Y7503922D01*
X8307324Y7371080D01*
X8308492Y7369454D01*
X8311184Y7368031D01*
X8315452Y7366863D01*
X8321294Y7366000D01*
X8333994Y7365492D01*
X8340852Y7365593D01*
X8347709Y7366000D01*
X8353552Y7366863D01*
X8357819Y7368031D01*
X8360511Y7369454D01*
X8361680Y7371080D01*
X8376412Y7425944D01*
X8389874Y7371080D01*
X8397036Y7366863D01*
X8416036Y7365492D01*
X8423656Y7365796D01*
X8433308Y7366762D01*
X8437930Y7367625D01*
X8441334Y7368590D01*
X8443518Y7369759D01*
X8444484Y7371080D01*
X8468868Y7503922D01*
X8467750Y7505141D01*
X8463991Y7506004D01*
X8457488Y7506563D01*
G37*
G36*
X8487664Y7505953D02*
G01*
X8485682Y7505649D01*
X8484209Y7504684D01*
X8483396Y7503109D01*
X8483092Y7500874D01*
X8483092Y7372096D01*
X8483549Y7369403D01*
X8484971Y7367524D01*
X8487359Y7366355D01*
X8490712Y7366000D01*
X8559038Y7366000D01*
X8560358Y7366406D01*
X8561476Y7367727D01*
X8562390Y7369860D01*
X8563102Y7372858D01*
X8563864Y7379004D01*
X8564118Y7383780D01*
X8563610Y7391908D01*
X8562848Y7395819D01*
X8561832Y7398562D01*
X8560562Y7400239D01*
X8559038Y7400798D01*
X8522208Y7400798D01*
X8522208Y7420864D01*
X8547608Y7420864D01*
X8548674Y7421219D01*
X8549589Y7422286D01*
X8550300Y7424013D01*
X8550910Y7426452D01*
X8551468Y7431836D01*
X8551672Y7436358D01*
X8551468Y7442453D01*
X8550808Y7446822D01*
X8549690Y7449464D01*
X8548116Y7450328D01*
X8522208Y7450328D01*
X8522208Y7470648D01*
X8559292Y7470648D01*
X8561070Y7471765D01*
X8562340Y7475016D01*
X8563102Y7480503D01*
X8563356Y7488174D01*
X8563102Y7495946D01*
X8562340Y7501534D01*
X8561070Y7504836D01*
X8559292Y7505953D01*
G37*
G36*
X8587486Y7505953D02*
G01*
X8585606Y7505750D01*
X8584082Y7504836D01*
X8583726Y7503414D01*
X8583676Y7473696D01*
X8626348Y7473696D01*
X8630361Y7473492D01*
X8633764Y7472883D01*
X8636609Y7471816D01*
X8638794Y7470394D01*
X8640368Y7468514D01*
X8641486Y7466228D01*
X8642146Y7463434D01*
X8642350Y7460234D01*
X8637574Y7450531D01*
X8623300Y7447280D01*
X8622284Y7447280D01*
X8622284Y7473696D01*
X8583676Y7473696D01*
X8583676Y7423912D01*
X8626348Y7423912D01*
X8630361Y7423759D01*
X8633764Y7423200D01*
X8636609Y7422337D01*
X8638794Y7421118D01*
X8640368Y7419441D01*
X8641486Y7417257D01*
X8642146Y7414514D01*
X8642350Y7411212D01*
X8642096Y7407909D01*
X8641334Y7405116D01*
X8640064Y7402830D01*
X8638286Y7401052D01*
X8636101Y7399629D01*
X8633256Y7398562D01*
X8629853Y7397953D01*
X8622284Y7397750D01*
X8622284Y7423912D01*
X8583676Y7423912D01*
X8583676Y7374381D01*
X8583828Y7372553D01*
X8584234Y7370978D01*
X8584946Y7369505D01*
X8585962Y7368286D01*
X8587181Y7367270D01*
X8588502Y7366558D01*
X8589975Y7366152D01*
X8591550Y7366000D01*
X8638794Y7366000D01*
X8658352Y7368336D01*
X8672830Y7375398D01*
X8681770Y7386421D01*
X8684768Y7400798D01*
X8683091Y7415174D01*
X8678164Y7425690D01*
X8674658Y7429804D01*
X8670798Y7433259D01*
X8666530Y7436002D01*
X8661908Y7438136D01*
X8669680Y7444231D01*
X8675268Y7451547D01*
X8678570Y7460081D01*
X8679688Y7469886D01*
X8678367Y7480909D01*
X8674506Y7489901D01*
X8668004Y7496962D01*
X8658910Y7501940D01*
X8647226Y7504938D01*
X8632952Y7505953D01*
G37*
G36*
X8805672Y7505953D02*
G01*
X8804046Y7505395D01*
X8802674Y7503820D01*
X8801608Y7501077D01*
X8800490Y7495235D01*
X8800134Y7490917D01*
X8800134Y7486548D01*
X8800490Y7482331D01*
X8801608Y7476540D01*
X8802674Y7473797D01*
X8804046Y7472222D01*
X8805672Y7471664D01*
X8819896Y7471664D01*
X8819896Y7400290D01*
X8805926Y7400290D01*
X8804402Y7399781D01*
X8803132Y7398207D01*
X8802116Y7395565D01*
X8800998Y7389723D01*
X8800642Y7385405D01*
X8800642Y7381036D01*
X8800998Y7376718D01*
X8802116Y7370876D01*
X8803132Y7368184D01*
X8804402Y7366558D01*
X8805926Y7366000D01*
X8873490Y7366000D01*
X8875014Y7366558D01*
X8876334Y7368184D01*
X8877452Y7370876D01*
X8878671Y7376718D01*
X8879027Y7381036D01*
X8879027Y7385405D01*
X8878671Y7389723D01*
X8877452Y7395565D01*
X8876334Y7398207D01*
X8875014Y7399781D01*
X8873490Y7400290D01*
X8859520Y7400290D01*
X8859520Y7471664D01*
X8872728Y7471664D01*
X8874353Y7472222D01*
X8875623Y7473797D01*
X8876639Y7476540D01*
X8877757Y7482331D01*
X8878265Y7486548D01*
X8878265Y7490917D01*
X8877757Y7495235D01*
X8876639Y7501077D01*
X8875623Y7503820D01*
X8874353Y7505395D01*
X8872728Y7505953D01*
G37*
G36*
X8888984Y7505953D02*
G01*
X8887460Y7505395D01*
X8886139Y7503668D01*
X8885021Y7500823D01*
X8884158Y7496809D01*
X8883650Y7487920D01*
X8884158Y7478775D01*
X8885021Y7474762D01*
X8886139Y7471918D01*
X8887460Y7470190D01*
X8888984Y7469631D01*
X8913114Y7469631D01*
X8913114Y7369302D01*
X8914333Y7367524D01*
X8917990Y7366253D01*
X8924137Y7365492D01*
X8932672Y7365238D01*
X8941358Y7365492D01*
X8947556Y7366253D01*
X8951264Y7367524D01*
X8952484Y7369302D01*
X8952484Y7469631D01*
X8976106Y7469631D01*
X8977630Y7470190D01*
X8978900Y7471918D01*
X8979916Y7474762D01*
X8981033Y7480960D01*
X8981389Y7485532D01*
X8981389Y7490206D01*
X8981033Y7494625D01*
X8979916Y7500823D01*
X8978900Y7503668D01*
X8977630Y7505395D01*
X8976106Y7505953D01*
G37*
G36*
X8997442Y7505953D02*
G01*
X8995460Y7505649D01*
X8994038Y7504684D01*
X8993174Y7503109D01*
X8992870Y7500874D01*
X8992870Y7372096D01*
X8993327Y7369403D01*
X8994800Y7367524D01*
X8997137Y7366355D01*
X9000490Y7366000D01*
X9068816Y7366000D01*
X9070136Y7366406D01*
X9071254Y7367727D01*
X9072168Y7369860D01*
X9072880Y7372858D01*
X9073642Y7379004D01*
X9073896Y7383780D01*
X9073794Y7387945D01*
X9073388Y7391908D01*
X9072626Y7395819D01*
X9071610Y7398562D01*
X9070340Y7400239D01*
X9068816Y7400798D01*
X9031986Y7400798D01*
X9031986Y7420864D01*
X9057386Y7420864D01*
X9058452Y7421219D01*
X9059367Y7422286D01*
X9060078Y7424013D01*
X9061145Y7429246D01*
X9061653Y7434224D01*
X9061450Y7442453D01*
X9060738Y7446822D01*
X9059570Y7449464D01*
X9057894Y7450328D01*
X9031986Y7450328D01*
X9031986Y7470648D01*
X9069070Y7470648D01*
X9070848Y7471765D01*
X9072118Y7475016D01*
X9072880Y7480503D01*
X9073134Y7488174D01*
X9072880Y7495946D01*
X9072118Y7501534D01*
X9070848Y7504836D01*
X9069070Y7505953D01*
G37*
G36*
X8037830Y7493508D02*
G01*
X8035798Y7493203D01*
X8034274Y7492238D01*
X7987131Y7435850D01*
X7986115Y7433665D01*
X7986014Y7432548D01*
X7986166Y7431481D01*
X7987588Y7429093D01*
X8035036Y7376414D01*
X8036559Y7375245D01*
X8038592Y7374890D01*
X8041131Y7375398D01*
X8046770Y7377938D01*
X8048650Y7379208D01*
X8050326Y7380731D01*
X8053019Y7384288D01*
X8054441Y7386929D01*
X8054492Y7388707D01*
X8053882Y7390231D01*
X8012430Y7433056D01*
X8053374Y7478420D01*
X8053984Y7479944D01*
X8053933Y7481722D01*
X8052511Y7484211D01*
X8049818Y7487666D01*
X8048091Y7489190D01*
X8046262Y7490459D01*
X8042249Y7492339D01*
X8039100Y7493406D01*
G37*
G36*
X9318498Y7493508D02*
G01*
X9315907Y7493000D01*
X9310065Y7490459D01*
X9308236Y7489190D01*
X9306509Y7487666D01*
X9303918Y7484211D01*
X9302648Y7481722D01*
X9302546Y7479944D01*
X9303054Y7478420D01*
X9343898Y7433056D01*
X9302445Y7390231D01*
X9301835Y7388707D01*
X9301886Y7386929D01*
X9303308Y7384288D01*
X9306001Y7380731D01*
X9307626Y7379208D01*
X9309455Y7377938D01*
X9313418Y7376007D01*
X9316720Y7375042D01*
X9318955Y7374991D01*
X9320631Y7375753D01*
X9367520Y7427722D01*
X9369602Y7430312D01*
X9370161Y7431481D01*
X9370314Y7432548D01*
X9370212Y7433665D01*
X9369145Y7435850D01*
X9322054Y7492238D01*
X9320377Y7493203D01*
G37*
G36*
X8085328Y7427214D02*
G01*
X8083702Y7426858D01*
X8082280Y7425740D01*
X8081162Y7423912D01*
X8079892Y7419848D01*
X8079536Y7416952D01*
X8079536Y7414107D01*
X8079892Y7411212D01*
X8081162Y7407249D01*
X8082280Y7405471D01*
X8083651Y7404455D01*
X8085328Y7404100D01*
X8164322Y7404100D01*
X8165998Y7404455D01*
X8167420Y7405471D01*
X8168640Y7407249D01*
X8169656Y7409688D01*
X8170214Y7412685D01*
X8170418Y7415530D01*
X8170214Y7418374D01*
X8169656Y7421372D01*
X8168640Y7423912D01*
X8167420Y7425740D01*
X8165998Y7426858D01*
X8164322Y7427214D01*
G37*
G36*
X8190484Y7427214D02*
G01*
X8188706Y7426858D01*
X8187232Y7425740D01*
X8186064Y7423912D01*
X8184794Y7419848D01*
X8184438Y7416952D01*
X8184438Y7414107D01*
X8184794Y7411212D01*
X8186064Y7407249D01*
X8187232Y7405471D01*
X8188706Y7404455D01*
X8190484Y7404100D01*
X8269478Y7404100D01*
X8271154Y7404455D01*
X8272525Y7405471D01*
X8273694Y7407249D01*
X8274913Y7411212D01*
X8275269Y7414107D01*
X8275269Y7416952D01*
X8274913Y7419848D01*
X8273694Y7423912D01*
X8272525Y7425740D01*
X8271154Y7426858D01*
X8269478Y7427214D01*
G37*
G36*
X9094470Y7427214D02*
G01*
X9092793Y7426858D01*
X9091371Y7425740D01*
X9090152Y7423912D01*
X9089136Y7421372D01*
X9088577Y7418374D01*
X9088374Y7415530D01*
X9088577Y7412685D01*
X9089136Y7409688D01*
X9090152Y7407249D01*
X9091371Y7405471D01*
X9092793Y7404455D01*
X9094470Y7404100D01*
X9173464Y7404100D01*
X9175140Y7404455D01*
X9176512Y7405471D01*
X9177680Y7407249D01*
X9178899Y7411212D01*
X9179255Y7414107D01*
X9179255Y7416952D01*
X9178899Y7419848D01*
X9177629Y7423912D01*
X9176512Y7425740D01*
X9175140Y7426858D01*
X9173464Y7427214D01*
G37*
G36*
X9199372Y7427214D02*
G01*
X9197695Y7426858D01*
X9196324Y7425740D01*
X9195155Y7423912D01*
X9193834Y7419848D01*
X9193326Y7416952D01*
X9193326Y7414107D01*
X9193834Y7411212D01*
X9195155Y7407249D01*
X9196324Y7405471D01*
X9197695Y7404455D01*
X9199372Y7404100D01*
X9278366Y7404100D01*
X9280042Y7404455D01*
X9281464Y7405471D01*
X9282684Y7407249D01*
X9283700Y7409688D01*
X9284258Y7412685D01*
X9284462Y7415530D01*
X9284258Y7418374D01*
X9283700Y7421372D01*
X9282684Y7423912D01*
X9281464Y7425740D01*
X9280042Y7426858D01*
X9278366Y7427214D01*
G37*
G36*
X3039618Y8036052D02*
G01*
X3036925Y8035747D01*
X3034792Y8034934D01*
X3033115Y8033461D01*
X2845054Y7707122D01*
X2844088Y7705090D01*
X2843784Y7703058D01*
X2844088Y7700772D01*
X2845054Y7698486D01*
X2852115Y7690053D01*
X2864612Y7682484D01*
X2867660Y7681264D01*
X2870708Y7680401D01*
X2873756Y7679842D01*
X2876804Y7679690D01*
X2879496Y7679944D01*
X2881833Y7680655D01*
X2883712Y7681823D01*
X2885186Y7683500D01*
X3072231Y8008924D01*
X3072587Y8010804D01*
X3072536Y8013192D01*
X3071774Y8015884D01*
X3071114Y8017256D01*
X3064154Y8025841D01*
X3051810Y8033258D01*
X3048660Y8034477D01*
X3045561Y8035340D01*
X3042564Y8035899D01*
G37*
G36*
X4713986Y8036052D02*
G01*
X4711395Y8035747D01*
X4709261Y8034934D01*
X4707585Y8033461D01*
X4519422Y7707122D01*
X4518660Y7705090D01*
X4518406Y7703058D01*
X4518660Y7700772D01*
X4519422Y7698486D01*
X4526584Y7690053D01*
X4538980Y7682484D01*
X4542028Y7681264D01*
X4545076Y7680401D01*
X4548124Y7679842D01*
X4551172Y7679690D01*
X4553864Y7679944D01*
X4556201Y7680655D01*
X4558080Y7681823D01*
X4559554Y7683500D01*
X4746599Y8008924D01*
X4746955Y8010804D01*
X4746904Y8013192D01*
X4746142Y8015884D01*
X4745482Y8017256D01*
X4738522Y8025841D01*
X4726178Y8033258D01*
X4723028Y8034477D01*
X4719929Y8035340D01*
X4716932Y8035899D01*
G37*
G36*
X3282696Y8005318D02*
G01*
X3269894Y8004708D01*
X3257600Y8002879D01*
X3245866Y7999831D01*
X3234690Y7995615D01*
X3224022Y7990128D01*
X3213912Y7983474D01*
X3204362Y7975549D01*
X3195320Y7966456D01*
X3188665Y7958378D01*
X3182721Y7949742D01*
X3177438Y7940548D01*
X3172866Y7930743D01*
X3169056Y7920329D01*
X3165856Y7909407D01*
X3163417Y7897875D01*
X3161690Y7885734D01*
X3160623Y7873034D01*
X3160268Y7859775D01*
X3160623Y7846517D01*
X3161639Y7833868D01*
X3163316Y7821828D01*
X3165703Y7810449D01*
X3168802Y7799628D01*
X3172510Y7789468D01*
X3176930Y7779867D01*
X3182061Y7770926D01*
X3187852Y7762595D01*
X3194304Y7754874D01*
X3203092Y7746136D01*
X3212490Y7738516D01*
X3222498Y7732115D01*
X3233013Y7726883D01*
X3244189Y7722768D01*
X3255924Y7719872D01*
X3268268Y7718094D01*
X3281172Y7717536D01*
X3297021Y7718094D01*
X3311702Y7719822D01*
X3325317Y7722666D01*
X3337814Y7726680D01*
X3348380Y7731759D01*
X3355898Y7737602D01*
X3360420Y7744206D01*
X3361944Y7751572D01*
X3361588Y7756042D01*
X3360572Y7761274D01*
X3358794Y7767320D01*
X3356356Y7774178D01*
X3350514Y7787436D01*
X3344164Y7797800D01*
X3341115Y7801711D01*
X3338576Y7804454D01*
X3336544Y7806131D01*
X3335020Y7806690D01*
X3333140Y7806486D01*
X3331972Y7805928D01*
X3329127Y7803642D01*
X3325520Y7801660D01*
X3320999Y7799984D01*
X3315715Y7798562D01*
X3304844Y7796631D01*
X3299866Y7796174D01*
X3295142Y7796022D01*
X3284423Y7797038D01*
X3274720Y7800086D01*
X3265881Y7805166D01*
X3258058Y7812278D01*
X3251708Y7821625D01*
X3247186Y7833106D01*
X3244494Y7846771D01*
X3243580Y7862570D01*
X3244443Y7878368D01*
X3247136Y7892034D01*
X3251606Y7903514D01*
X3257803Y7912862D01*
X3265373Y7919974D01*
X3274110Y7925053D01*
X3284067Y7928102D01*
X3295142Y7929118D01*
X3298748Y7928965D01*
X3302609Y7928508D01*
X3311398Y7926578D01*
X3319068Y7924088D01*
X3321659Y7922920D01*
X3324555Y7920888D01*
X3326841Y7919821D01*
X3327908Y7919720D01*
X3335934Y7924850D01*
X3345687Y7940294D01*
X3353714Y7959242D01*
X3356356Y7974838D01*
X3350768Y7987334D01*
X3334004Y7996936D01*
X3322523Y8000593D01*
X3310128Y8003235D01*
X3296869Y8004809D01*
G37*
G36*
X4935982Y8005318D02*
G01*
X4922316Y8004657D01*
X4909515Y8002625D01*
X4897628Y7999222D01*
X4886655Y7994497D01*
X4876596Y7988401D01*
X4867402Y7980934D01*
X4859324Y7972602D01*
X4852720Y7963611D01*
X4847590Y7954009D01*
X4843932Y7943799D01*
X4841697Y7932978D01*
X4840986Y7921498D01*
X4842002Y7904734D01*
X4844999Y7889494D01*
X4849977Y7875778D01*
X4856988Y7863586D01*
X4860086Y7859420D01*
X4863846Y7855356D01*
X4868214Y7851292D01*
X4873244Y7847330D01*
X4882845Y7840725D01*
X4890262Y7836153D01*
X4915408Y7823911D01*
X4920284Y7821168D01*
X4924196Y7818577D01*
X4927092Y7816088D01*
X4929225Y7813700D01*
X4930698Y7811211D01*
X4931613Y7808518D01*
X4931918Y7805674D01*
X4927650Y7795768D01*
X4914900Y7792466D01*
X4906314Y7793126D01*
X4897526Y7795056D01*
X4888534Y7798308D01*
X4879340Y7802880D01*
X4863541Y7812176D01*
X4853178Y7819136D01*
X4846523Y7811262D01*
X4840224Y7797800D01*
X4835855Y7781544D01*
X4834382Y7765288D01*
X4837938Y7749997D01*
X4848606Y7737094D01*
X4856124Y7731861D01*
X4864303Y7727492D01*
X4873040Y7724089D01*
X4882388Y7721600D01*
X4892446Y7719822D01*
X4903012Y7718552D01*
X4914138Y7717790D01*
X4925822Y7717536D01*
X4941519Y7718501D01*
X4955844Y7720990D01*
X4968697Y7724902D01*
X4980127Y7730286D01*
X4990134Y7737144D01*
X4998720Y7745475D01*
X5005933Y7755026D01*
X5011826Y7765440D01*
X5016449Y7776718D01*
X5019700Y7788808D01*
X5021681Y7801762D01*
X5022342Y7815580D01*
X5021021Y7831175D01*
X5017008Y7845145D01*
X5010353Y7857591D01*
X5001006Y7868412D01*
X4990947Y7877098D01*
X4986223Y7880756D01*
X4981702Y7883906D01*
X4973066Y7889036D01*
X4964938Y7893303D01*
X4943652Y7903514D01*
X4935372Y7907934D01*
X4930800Y7911642D01*
X4928006Y7915656D01*
X4927092Y7919974D01*
X4932172Y7930845D01*
X4947412Y7934452D01*
X4957775Y7933639D01*
X4968900Y7931150D01*
X4980635Y7927035D01*
X4993132Y7921244D01*
X4998008Y7928356D01*
X5005578Y7945120D01*
X5012029Y7964627D01*
X5014214Y7980425D01*
X5014214Y7982712D01*
X5007559Y7991856D01*
X4989068Y7998968D01*
X4976622Y8001762D01*
X4963617Y8003743D01*
X4950053Y8004911D01*
G37*
G36*
X5550662Y8005318D02*
G01*
X5527040Y8003794D01*
X5519166Y7999222D01*
X5519166Y7923275D01*
X5513578Y7924292D01*
X5508040Y7925003D01*
X5497068Y7925562D01*
X5485028Y7924800D01*
X5473700Y7922564D01*
X5463032Y7918856D01*
X5453024Y7913573D01*
X5443728Y7906867D01*
X5435092Y7898638D01*
X5427472Y7889036D01*
X5421274Y7878165D01*
X5416397Y7866075D01*
X5412943Y7852714D01*
X5410911Y7838084D01*
X5410242Y7821168D01*
X5483606Y7821168D01*
X5485028Y7838846D01*
X5489194Y7851444D01*
X5496204Y7859014D01*
X5505958Y7861553D01*
X5509158Y7861300D01*
X5512460Y7860538D01*
X5515762Y7859268D01*
X5519166Y7857490D01*
X5519166Y7789672D01*
X5515457Y7786674D01*
X5511749Y7784541D01*
X5507990Y7783220D01*
X5504180Y7782814D01*
X5500319Y7783372D01*
X5496712Y7785049D01*
X5493207Y7787792D01*
X5489956Y7791703D01*
X5485180Y7803642D01*
X5483606Y7821168D01*
X5410242Y7821168D01*
X5410860Y7806334D01*
X5412841Y7791754D01*
X5416092Y7778292D01*
X5420715Y7766100D01*
X5426608Y7755026D01*
X5433822Y7745222D01*
X5441950Y7736738D01*
X5450636Y7729829D01*
X5459831Y7724444D01*
X5469585Y7720634D01*
X5479897Y7718298D01*
X5490718Y7717536D01*
X5501487Y7718145D01*
X5511647Y7719923D01*
X5521147Y7722870D01*
X5529986Y7727035D01*
X5538216Y7732369D01*
X5545836Y7738872D01*
X5549392Y7733538D01*
X5551678Y7730794D01*
X5554776Y7728051D01*
X5558688Y7725460D01*
X5563362Y7722870D01*
X5568645Y7720533D01*
X5574284Y7718856D01*
X5580329Y7717891D01*
X5586730Y7717536D01*
X5601919Y7722006D01*
X5612384Y7735316D01*
X5614822Y7741412D01*
X5616600Y7747050D01*
X5617616Y7752232D01*
X5617972Y7756906D01*
X5617768Y7765034D01*
X5617210Y7771130D01*
X5612231Y7784642D01*
X5604002Y7789164D01*
X5589778Y7789164D01*
X5589778Y7999984D01*
X5588914Y8001152D01*
X5586272Y8002219D01*
X5581904Y8003082D01*
X5568899Y8004454D01*
X5556351Y8005216D01*
G37*
G36*
X653034Y8001508D02*
G01*
X643686Y7998155D01*
X640588Y7988046D01*
X640588Y7931912D01*
X726186Y7931912D01*
X740613Y7930286D01*
X749808Y7925308D01*
X754786Y7916164D01*
X756412Y7902448D01*
X753973Y7888224D01*
X746760Y7877556D01*
X736041Y7871104D01*
X723138Y7868920D01*
X717804Y7868920D01*
X717804Y7931912D01*
X640588Y7931912D01*
X640588Y7728712D01*
X642874Y7725257D01*
X649732Y7722819D01*
X661162Y7721346D01*
X677164Y7720838D01*
X688898Y7721295D01*
X702818Y7722616D01*
X709371Y7723682D01*
X714044Y7725156D01*
X716889Y7726984D01*
X717804Y7729220D01*
X717804Y7800848D01*
X733298Y7801457D01*
X747826Y7803286D01*
X761390Y7806283D01*
X773938Y7810500D01*
X785164Y7815630D01*
X794969Y7821523D01*
X803300Y7828330D01*
X810260Y7835900D01*
X817880Y7846771D01*
X824077Y7857947D01*
X828954Y7869580D01*
X832408Y7881518D01*
X834440Y7893812D01*
X835152Y7906512D01*
X834440Y7921294D01*
X832256Y7934909D01*
X828598Y7947304D01*
X823518Y7958429D01*
X816965Y7968386D01*
X808990Y7977124D01*
X801878Y7982813D01*
X793750Y7987792D01*
X784555Y7992008D01*
X774395Y7995412D01*
X763168Y7998104D01*
X750925Y7999984D01*
X737666Y8001152D01*
X723392Y8001508D01*
G37*
G36*
X4002532Y7964678D02*
G01*
X3987749Y7964170D01*
X3977182Y7962696D01*
X3970883Y7960258D01*
X3968750Y7956803D01*
X3968750Y7921498D01*
X3947414Y7921498D01*
X3945432Y7920837D01*
X3943807Y7918907D01*
X3942486Y7915656D01*
X3941572Y7911084D01*
X3940606Y7901635D01*
X3940301Y7893558D01*
X3942283Y7872984D01*
X3948176Y7866125D01*
X3968750Y7866125D01*
X3968750Y7724394D01*
X3971239Y7722768D01*
X3978706Y7721346D01*
X3991203Y7720177D01*
X4008628Y7719314D01*
X4023410Y7719618D01*
X4033977Y7720431D01*
X4040276Y7721904D01*
X4042410Y7723886D01*
X4042410Y7865618D01*
X4070604Y7865618D01*
X4075734Y7872628D01*
X4077462Y7893558D01*
X4075734Y7914538D01*
X4070604Y7921498D01*
X4036568Y7921498D01*
X4036314Y7932674D01*
X4036314Y7958328D01*
X4034180Y7961122D01*
X4027881Y7963103D01*
X4017314Y7964271D01*
G37*
G36*
X5105400Y7964678D02*
G01*
X5090617Y7964170D01*
X5080050Y7962696D01*
X5073751Y7960258D01*
X5071618Y7956803D01*
X5071618Y7921498D01*
X5050282Y7921498D01*
X5048300Y7920837D01*
X5046675Y7918907D01*
X5045354Y7915656D01*
X5044440Y7911084D01*
X5043474Y7901635D01*
X5043170Y7893558D01*
X5045151Y7872984D01*
X5051044Y7866125D01*
X5071618Y7866125D01*
X5071618Y7724394D01*
X5074107Y7722768D01*
X5081574Y7721346D01*
X5094071Y7720177D01*
X5111496Y7719314D01*
X5126177Y7719618D01*
X5136642Y7720431D01*
X5142941Y7721904D01*
X5145024Y7723886D01*
X5145024Y7865618D01*
X5173472Y7865618D01*
X5178602Y7872628D01*
X5180330Y7893558D01*
X5178602Y7914538D01*
X5173472Y7921498D01*
X5139436Y7921498D01*
X5139182Y7932674D01*
X5139182Y7958328D01*
X5137048Y7961122D01*
X5130749Y7963103D01*
X5120182Y7964271D01*
G37*
G36*
X6110986Y7964678D02*
G01*
X6096203Y7964170D01*
X6085636Y7962696D01*
X6079337Y7960258D01*
X6077204Y7956803D01*
X6077204Y7921498D01*
X6055868Y7921498D01*
X6053886Y7920837D01*
X6052261Y7918907D01*
X6050940Y7915656D01*
X6050026Y7911084D01*
X6049060Y7901635D01*
X6048756Y7893558D01*
X6050737Y7872984D01*
X6056630Y7866125D01*
X6077204Y7866125D01*
X6077204Y7724394D01*
X6079693Y7722768D01*
X6087160Y7721346D01*
X6099657Y7720177D01*
X6117082Y7719314D01*
X6131763Y7719618D01*
X6142228Y7720431D01*
X6148527Y7721904D01*
X6150610Y7723886D01*
X6150610Y7865618D01*
X6179058Y7865618D01*
X6184188Y7872628D01*
X6185916Y7893558D01*
X6184188Y7914538D01*
X6179058Y7921498D01*
X6145022Y7921498D01*
X6144768Y7932674D01*
X6144768Y7958328D01*
X6142634Y7961122D01*
X6136335Y7963103D01*
X6125768Y7964271D01*
G37*
G36*
X883919Y7925562D02*
G01*
X876096Y7924342D01*
X869645Y7920786D01*
X864666Y7914792D01*
X861110Y7906359D01*
X858977Y7895590D01*
X858266Y7882381D01*
X858519Y7876794D01*
X859231Y7871714D01*
X860399Y7867142D01*
X862076Y7863078D01*
X864158Y7859623D01*
X866495Y7857185D01*
X869238Y7855712D01*
X872236Y7855203D01*
X883158Y7855203D01*
X883158Y7722362D01*
X885444Y7721295D01*
X892251Y7720482D01*
X903579Y7719771D01*
X919480Y7719314D01*
X935380Y7719466D01*
X946708Y7720025D01*
X953516Y7720888D01*
X955802Y7722108D01*
X955802Y7833614D01*
X956767Y7844078D01*
X959612Y7851495D01*
X964387Y7856016D01*
X971042Y7857490D01*
X973785Y7857337D01*
X979779Y7855915D01*
X990346Y7851648D01*
X990955Y7852105D01*
X995171Y7858759D01*
X997102Y7862976D01*
X998982Y7868208D01*
X1002792Y7881874D01*
X1005636Y7895437D01*
X1006348Y7900466D01*
X1006602Y7904225D01*
X1006348Y7909610D01*
X1005586Y7913624D01*
X996137Y7922564D01*
X977392Y7925562D01*
X962761Y7923174D01*
X948436Y7915909D01*
X935685Y7904378D01*
X925830Y7889494D01*
X922832Y7902905D01*
X913892Y7914640D01*
X900430Y7922818D01*
G37*
G36*
X1111504Y7925562D02*
G01*
X1097838Y7924800D01*
X1085189Y7922463D01*
X1073454Y7918653D01*
X1062736Y7913268D01*
X1052982Y7906359D01*
X1044194Y7897875D01*
X1036523Y7888122D01*
X1030224Y7877200D01*
X1025347Y7865109D01*
X1021842Y7851800D01*
X1019759Y7837322D01*
X1019059Y7821930D01*
X1089152Y7821930D01*
X1090574Y7838033D01*
X1094790Y7849565D01*
X1101852Y7856474D01*
X1111758Y7858759D01*
X1121664Y7856474D01*
X1128725Y7849565D01*
X1132941Y7838033D01*
X1134364Y7821930D01*
X1132941Y7805826D01*
X1128725Y7794294D01*
X1121664Y7787386D01*
X1111758Y7785100D01*
X1101852Y7787386D01*
X1094790Y7794294D01*
X1090574Y7805826D01*
X1089152Y7821930D01*
X1019059Y7821930D01*
X1019759Y7806029D01*
X1021842Y7791500D01*
X1025347Y7778191D01*
X1030224Y7765999D01*
X1036523Y7755026D01*
X1044194Y7745222D01*
X1052982Y7736738D01*
X1062736Y7729829D01*
X1073454Y7724444D01*
X1085189Y7720634D01*
X1097838Y7718298D01*
X1111504Y7717536D01*
X1125169Y7718298D01*
X1137818Y7720634D01*
X1149553Y7724444D01*
X1160272Y7729829D01*
X1170025Y7736738D01*
X1178814Y7745222D01*
X1186332Y7755026D01*
X1192479Y7765999D01*
X1197305Y7778191D01*
X1200708Y7791500D01*
X1202791Y7806029D01*
X1203452Y7821675D01*
X1202791Y7837322D01*
X1200708Y7851800D01*
X1197305Y7865109D01*
X1192479Y7877200D01*
X1186332Y7888122D01*
X1178814Y7897875D01*
X1170025Y7906359D01*
X1160272Y7913268D01*
X1149553Y7918653D01*
X1137818Y7922463D01*
X1125169Y7924800D01*
G37*
G36*
X1453896Y7925562D02*
G01*
X1446072Y7924342D01*
X1439621Y7920786D01*
X1434642Y7914792D01*
X1431086Y7906359D01*
X1428953Y7895590D01*
X1428242Y7882381D01*
X1428496Y7876794D01*
X1429207Y7871714D01*
X1430375Y7867142D01*
X1432052Y7863078D01*
X1434134Y7859623D01*
X1436522Y7857185D01*
X1439214Y7855712D01*
X1442212Y7855203D01*
X1453134Y7855203D01*
X1453134Y7722362D01*
X1455420Y7721295D01*
X1462227Y7720482D01*
X1473555Y7719771D01*
X1489456Y7719314D01*
X1505356Y7719466D01*
X1516684Y7720025D01*
X1523492Y7720888D01*
X1525778Y7722108D01*
X1525778Y7833614D01*
X1526743Y7844078D01*
X1529588Y7851495D01*
X1534363Y7856016D01*
X1541018Y7857490D01*
X1543761Y7857337D01*
X1549755Y7855915D01*
X1560322Y7851648D01*
X1560931Y7852105D01*
X1565148Y7858759D01*
X1567180Y7862976D01*
X1569161Y7868208D01*
X1571091Y7874508D01*
X1573022Y7881874D01*
X1574596Y7889290D01*
X1576374Y7900466D01*
X1576527Y7907121D01*
X1576019Y7911795D01*
X1575562Y7913624D01*
X1566164Y7922564D01*
X1547622Y7925562D01*
X1532839Y7923174D01*
X1518412Y7915909D01*
X1505661Y7904378D01*
X1495806Y7889494D01*
X1492808Y7902905D01*
X1483868Y7914640D01*
X1470406Y7922818D01*
G37*
G36*
X1680210Y7925562D02*
G01*
X1667408Y7925308D01*
X1655521Y7924444D01*
X1644599Y7923072D01*
X1634591Y7921142D01*
X1625549Y7918703D01*
X1617472Y7915656D01*
X1614474Y7913319D01*
X1612341Y7909814D01*
X1611020Y7905191D01*
X1610614Y7899400D01*
X1613408Y7884922D01*
X1621790Y7866888D01*
X1635099Y7869681D01*
X1646732Y7871663D01*
X1656791Y7872831D01*
X1665224Y7873238D01*
X1670761Y7873034D01*
X1675231Y7872475D01*
X1678635Y7871510D01*
X1680972Y7870190D01*
X1682394Y7868208D01*
X1683461Y7865313D01*
X1684070Y7861452D01*
X1684274Y7852918D01*
X1662175Y7852918D01*
X1649730Y7852460D01*
X1638350Y7851089D01*
X1628038Y7848853D01*
X1618843Y7845653D01*
X1610715Y7841589D01*
X1603705Y7836611D01*
X1597710Y7830718D01*
X1592884Y7823911D01*
X1589074Y7816189D01*
X1586382Y7807604D01*
X1584756Y7798053D01*
X1584497Y7793228D01*
X1653793Y7793228D01*
X1655013Y7801457D01*
X1658620Y7807350D01*
X1664665Y7810855D01*
X1673098Y7812024D01*
X1684274Y7812024D01*
X1684274Y7781290D01*
X1681124Y7778597D01*
X1677873Y7776718D01*
X1674418Y7775600D01*
X1670812Y7775194D01*
X1667306Y7775498D01*
X1664055Y7776362D01*
X1661210Y7777784D01*
X1658620Y7779766D01*
X1656486Y7782306D01*
X1655013Y7785404D01*
X1654098Y7789062D01*
X1653793Y7793228D01*
X1584497Y7793228D01*
X1584198Y7787640D01*
X1585468Y7773873D01*
X1589227Y7761071D01*
X1595475Y7749235D01*
X1604264Y7738364D01*
X1614881Y7729270D01*
X1626616Y7722768D01*
X1639519Y7718856D01*
X1653539Y7717536D01*
X1665935Y7718196D01*
X1677162Y7720126D01*
X1687271Y7723378D01*
X1696212Y7727899D01*
X1704035Y7733741D01*
X1710689Y7740903D01*
X1712518Y7737602D01*
X1714601Y7734553D01*
X1717090Y7731759D01*
X1719834Y7729220D01*
X1726946Y7724089D01*
X1735124Y7720431D01*
X1744370Y7718247D01*
X1754632Y7717536D01*
X1765503Y7720990D01*
X1773682Y7731252D01*
X1779016Y7744815D01*
X1780793Y7758684D01*
X1780539Y7765389D01*
X1779828Y7771333D01*
X1778660Y7776464D01*
X1776984Y7780781D01*
X1774901Y7784338D01*
X1772412Y7786878D01*
X1769567Y7788402D01*
X1766316Y7788909D01*
X1752600Y7788909D01*
X1752600Y7851902D01*
X1751584Y7869072D01*
X1748536Y7883956D01*
X1743456Y7896606D01*
X1736343Y7907020D01*
X1730197Y7912709D01*
X1722780Y7917332D01*
X1714042Y7920939D01*
X1704035Y7923479D01*
X1692757Y7925053D01*
G37*
G36*
X1819148Y7925562D02*
G01*
X1806702Y7921193D01*
X1798320Y7908036D01*
X1794713Y7895285D01*
X1793493Y7882890D01*
X1794306Y7870799D01*
X1796796Y7862112D01*
X1800910Y7856931D01*
X1806702Y7855203D01*
X1816607Y7855203D01*
X1816607Y7724394D01*
X1818741Y7722514D01*
X1825193Y7721142D01*
X1835912Y7720330D01*
X1850898Y7720075D01*
X1865884Y7720330D01*
X1876602Y7721041D01*
X1883054Y7722209D01*
X1885188Y7723886D01*
X1885188Y7851902D01*
X1890522Y7855813D01*
X1895297Y7858556D01*
X1899513Y7860233D01*
X1903222Y7860792D01*
X1912924Y7855762D01*
X1916175Y7840725D01*
X1916175Y7724394D01*
X1924761Y7721752D01*
X1950466Y7720838D01*
X1976170Y7721549D01*
X1984756Y7723631D01*
X1984756Y7851902D01*
X1990089Y7855813D01*
X1994916Y7858556D01*
X1999234Y7860233D01*
X2003043Y7860792D01*
X2012950Y7855762D01*
X2016252Y7840725D01*
X2016252Y7724394D01*
X2024837Y7721752D01*
X2050542Y7720838D01*
X2076043Y7721549D01*
X2084578Y7723631D01*
X2084578Y7845298D01*
X2084120Y7858099D01*
X2082749Y7869834D01*
X2080463Y7880400D01*
X2077262Y7889900D01*
X2073148Y7898231D01*
X2068118Y7905496D01*
X2062175Y7911642D01*
X2055317Y7916621D01*
X2047595Y7920532D01*
X2038908Y7923326D01*
X2029307Y7925003D01*
X2018792Y7925562D01*
X2004110Y7924393D01*
X1990547Y7920888D01*
X1978050Y7914995D01*
X1966722Y7906766D01*
X1956714Y7914995D01*
X1945335Y7920888D01*
X1932482Y7924393D01*
X1918207Y7925562D01*
X1903425Y7924190D01*
X1889302Y7920126D01*
X1875891Y7913268D01*
X1863089Y7903718D01*
X1861007Y7907070D01*
X1857654Y7910575D01*
X1852879Y7914182D01*
X1846834Y7917942D01*
X1833168Y7923631D01*
G37*
G36*
X2134362Y7925562D02*
G01*
X2121916Y7921193D01*
X2113534Y7908036D01*
X2109927Y7895285D01*
X2108708Y7882890D01*
X2109520Y7870799D01*
X2112010Y7862112D01*
X2116124Y7856931D01*
X2121916Y7855203D01*
X2131822Y7855203D01*
X2131822Y7724394D01*
X2133955Y7722514D01*
X2140407Y7721142D01*
X2151126Y7720330D01*
X2166112Y7720075D01*
X2181098Y7720330D01*
X2191816Y7721041D01*
X2198268Y7722209D01*
X2200402Y7723886D01*
X2200402Y7851902D01*
X2205685Y7855813D01*
X2210409Y7858556D01*
X2214575Y7860233D01*
X2218182Y7860792D01*
X2228088Y7855762D01*
X2231390Y7840725D01*
X2231390Y7724394D01*
X2239975Y7721752D01*
X2265680Y7720838D01*
X2291384Y7721549D01*
X2299970Y7723631D01*
X2299970Y7851902D01*
X2305304Y7855813D01*
X2310130Y7858556D01*
X2314448Y7860233D01*
X2318258Y7860792D01*
X2328164Y7855762D01*
X2331466Y7840725D01*
X2331466Y7724394D01*
X2340051Y7721752D01*
X2365756Y7720838D01*
X2391257Y7721549D01*
X2399792Y7723631D01*
X2399792Y7845298D01*
X2399334Y7858099D01*
X2397963Y7869834D01*
X2395677Y7880400D01*
X2392476Y7889900D01*
X2388362Y7898231D01*
X2383332Y7905496D01*
X2377389Y7911642D01*
X2370531Y7916621D01*
X2362809Y7920532D01*
X2354122Y7923326D01*
X2344521Y7925003D01*
X2334006Y7925562D01*
X2319324Y7924393D01*
X2305761Y7920888D01*
X2293264Y7914995D01*
X2281936Y7906766D01*
X2271928Y7914995D01*
X2260549Y7920888D01*
X2247696Y7924393D01*
X2233422Y7925562D01*
X2218639Y7924190D01*
X2204516Y7920126D01*
X2191105Y7913268D01*
X2178304Y7903718D01*
X2176221Y7907070D01*
X2172868Y7910575D01*
X2168093Y7914182D01*
X2162048Y7917942D01*
X2148382Y7923631D01*
G37*
G36*
X2518664Y7925562D02*
G01*
X2505760Y7924749D01*
X2493568Y7922310D01*
X2482138Y7918246D01*
X2471470Y7912557D01*
X2461564Y7905292D01*
X2452370Y7896352D01*
X2444394Y7886090D01*
X2437841Y7874812D01*
X2432761Y7862519D01*
X2429103Y7849158D01*
X2426900Y7834375D01*
X2500376Y7834375D01*
X2500376Y7846822D01*
X2500731Y7850987D01*
X2501696Y7854645D01*
X2503373Y7857744D01*
X2505710Y7860284D01*
X2508504Y7862265D01*
X2511602Y7863738D01*
X2515006Y7864551D01*
X2518664Y7864856D01*
X2531059Y7860639D01*
X2535174Y7848092D01*
X2531872Y7837779D01*
X2521966Y7834375D01*
X2426900Y7834375D01*
X2426208Y7819390D01*
X2426970Y7804048D01*
X2429205Y7789875D01*
X2433015Y7776819D01*
X2438298Y7764983D01*
X2445105Y7754264D01*
X2453386Y7744714D01*
X2462885Y7736433D01*
X2472994Y7729626D01*
X2483815Y7724343D01*
X2495245Y7720533D01*
X2507386Y7718298D01*
X2520188Y7717536D01*
X2532989Y7717942D01*
X2545029Y7719212D01*
X2556256Y7721295D01*
X2566720Y7724190D01*
X2576372Y7727950D01*
X2585212Y7732522D01*
X2588412Y7734808D01*
X2590749Y7738109D01*
X2592120Y7742428D01*
X2592578Y7747762D01*
X2590241Y7760970D01*
X2583180Y7776718D01*
X2580589Y7781137D01*
X2579776Y7782153D01*
X2579370Y7782306D01*
X2566619Y7776768D01*
X2553512Y7772755D01*
X2540101Y7770418D01*
X2526284Y7769606D01*
X2520340Y7769910D01*
X2515108Y7770723D01*
X2510688Y7772196D01*
X2506980Y7774178D01*
X2504084Y7776921D01*
X2502052Y7780578D01*
X2500782Y7785201D01*
X2500376Y7790688D01*
X2527808Y7790688D01*
X2541930Y7791348D01*
X2554579Y7793278D01*
X2565755Y7796530D01*
X2575458Y7801102D01*
X2583637Y7806944D01*
X2590342Y7814106D01*
X2595524Y7822539D01*
X2599232Y7832293D01*
X2601468Y7843367D01*
X2602230Y7855712D01*
X2600858Y7869783D01*
X2596743Y7882686D01*
X2589936Y7894523D01*
X2580386Y7905242D01*
X2572664Y7911439D01*
X2563926Y7916519D01*
X2554173Y7920481D01*
X2543352Y7923326D01*
X2531516Y7925003D01*
G37*
G36*
X2643886Y7925562D02*
G01*
X2636062Y7924342D01*
X2629611Y7920786D01*
X2624632Y7914792D01*
X2621076Y7906359D01*
X2618943Y7895590D01*
X2618232Y7882381D01*
X2618486Y7876794D01*
X2619197Y7871714D01*
X2620365Y7867142D01*
X2622042Y7863078D01*
X2624124Y7859623D01*
X2626461Y7857185D01*
X2629204Y7855712D01*
X2632202Y7855203D01*
X2643124Y7855203D01*
X2643124Y7722362D01*
X2645410Y7721295D01*
X2652217Y7720482D01*
X2663545Y7719771D01*
X2679446Y7719314D01*
X2695448Y7719466D01*
X2706878Y7720025D01*
X2713736Y7720888D01*
X2716022Y7722108D01*
X2716022Y7833614D01*
X2716936Y7844078D01*
X2719781Y7851495D01*
X2724454Y7856016D01*
X2731008Y7857490D01*
X2733751Y7857337D01*
X2739745Y7855915D01*
X2750312Y7851648D01*
X2750921Y7852105D01*
X2755138Y7858759D01*
X2757170Y7862976D01*
X2759151Y7868208D01*
X2761081Y7874508D01*
X2763012Y7881874D01*
X2765856Y7895437D01*
X2766568Y7900466D01*
X2766822Y7904225D01*
X2766517Y7909610D01*
X2765552Y7913624D01*
X2756154Y7922564D01*
X2737612Y7925562D01*
X2722829Y7923174D01*
X2708402Y7915909D01*
X2695651Y7904378D01*
X2685796Y7889494D01*
X2682798Y7902905D01*
X2673858Y7914640D01*
X2660396Y7922818D01*
G37*
G36*
X3406394Y7925562D02*
G01*
X3398570Y7924342D01*
X3392119Y7920786D01*
X3387140Y7914792D01*
X3383584Y7906359D01*
X3381451Y7895590D01*
X3380740Y7882381D01*
X3380994Y7876794D01*
X3381705Y7871714D01*
X3382873Y7867142D01*
X3384550Y7863078D01*
X3386632Y7859623D01*
X3388969Y7857185D01*
X3391712Y7855712D01*
X3394710Y7855203D01*
X3405378Y7855203D01*
X3405378Y7722362D01*
X3407664Y7721295D01*
X3414522Y7720482D01*
X3425951Y7719771D01*
X3441954Y7719314D01*
X3457854Y7719466D01*
X3469182Y7720025D01*
X3475990Y7720888D01*
X3478276Y7722108D01*
X3478276Y7833614D01*
X3479241Y7844078D01*
X3482086Y7851495D01*
X3486861Y7856016D01*
X3493515Y7857490D01*
X3496157Y7857337D01*
X3499002Y7856778D01*
X3501999Y7855915D01*
X3511956Y7851851D01*
X3512820Y7851648D01*
X3514344Y7853425D01*
X3517392Y7858759D01*
X3519424Y7862976D01*
X3521405Y7868208D01*
X3523335Y7874508D01*
X3525265Y7881874D01*
X3528110Y7895437D01*
X3528822Y7900466D01*
X3529076Y7904225D01*
X3528771Y7909610D01*
X3527806Y7913624D01*
X3518408Y7922564D01*
X3499865Y7925562D01*
X3485286Y7923174D01*
X3470910Y7915909D01*
X3458159Y7904378D01*
X3448304Y7889494D01*
X3445306Y7902905D01*
X3436365Y7914640D01*
X3422802Y7922818D01*
G37*
G36*
X3633978Y7925562D02*
G01*
X3620973Y7924749D01*
X3608781Y7922310D01*
X3597351Y7918246D01*
X3586683Y7912557D01*
X3576777Y7905292D01*
X3567684Y7896352D01*
X3559708Y7886090D01*
X3553155Y7874812D01*
X3548075Y7862519D01*
X3544417Y7849158D01*
X3542214Y7834375D01*
X3615436Y7834375D01*
X3615436Y7846822D01*
X3615791Y7850987D01*
X3616756Y7854645D01*
X3618433Y7857744D01*
X3620770Y7860284D01*
X3623716Y7862265D01*
X3626865Y7863738D01*
X3630320Y7864551D01*
X3633978Y7864856D01*
X3646170Y7860639D01*
X3650234Y7848092D01*
X3646932Y7837779D01*
X3637026Y7834375D01*
X3542214Y7834375D01*
X3541522Y7819390D01*
X3542284Y7804048D01*
X3544519Y7789875D01*
X3548329Y7776819D01*
X3553612Y7764983D01*
X3560419Y7754264D01*
X3568700Y7744714D01*
X3578098Y7736433D01*
X3588207Y7729626D01*
X3598976Y7724343D01*
X3610457Y7720533D01*
X3622649Y7718298D01*
X3635501Y7717536D01*
X3648303Y7717942D01*
X3660292Y7719212D01*
X3671519Y7721295D01*
X3681882Y7724190D01*
X3691483Y7727950D01*
X3700272Y7732522D01*
X3703624Y7734808D01*
X3705961Y7738109D01*
X3707434Y7742428D01*
X3707892Y7747762D01*
X3705504Y7760970D01*
X3696868Y7779359D01*
X3695090Y7782153D01*
X3694684Y7782306D01*
X3681933Y7776768D01*
X3668826Y7772755D01*
X3655415Y7770418D01*
X3641598Y7769606D01*
X3635501Y7769910D01*
X3630218Y7770723D01*
X3625748Y7772196D01*
X3622040Y7774178D01*
X3619144Y7776921D01*
X3617112Y7780578D01*
X3615842Y7785201D01*
X3615436Y7790688D01*
X3643122Y7790688D01*
X3657244Y7791348D01*
X3669893Y7793278D01*
X3681069Y7796530D01*
X3690772Y7801102D01*
X3698951Y7806944D01*
X3705656Y7814106D01*
X3710838Y7822539D01*
X3714546Y7832293D01*
X3716782Y7843367D01*
X3717544Y7855712D01*
X3716172Y7869783D01*
X3712057Y7882686D01*
X3705250Y7894523D01*
X3695700Y7905242D01*
X3687927Y7911439D01*
X3679139Y7916519D01*
X3669334Y7920481D01*
X3658565Y7923326D01*
X3646779Y7925003D01*
G37*
G36*
X3827018Y7925562D02*
G01*
X3814216Y7925308D01*
X3802329Y7924444D01*
X3791407Y7923072D01*
X3781399Y7921142D01*
X3772357Y7918703D01*
X3764279Y7915656D01*
X3761282Y7913319D01*
X3759149Y7909814D01*
X3757828Y7905191D01*
X3757422Y7899400D01*
X3760215Y7884922D01*
X3768598Y7866888D01*
X3781856Y7869681D01*
X3793490Y7871663D01*
X3803446Y7872831D01*
X3811778Y7873238D01*
X3817467Y7873034D01*
X3821988Y7872475D01*
X3825443Y7871510D01*
X3827779Y7870190D01*
X3829202Y7868208D01*
X3830269Y7865313D01*
X3830878Y7861452D01*
X3831082Y7852918D01*
X3808984Y7852918D01*
X3796537Y7852460D01*
X3785158Y7851089D01*
X3774846Y7848853D01*
X3765651Y7845653D01*
X3757523Y7841589D01*
X3750513Y7836611D01*
X3744518Y7830718D01*
X3739692Y7823911D01*
X3735882Y7816189D01*
X3733190Y7807604D01*
X3731564Y7798053D01*
X3731305Y7793228D01*
X3800601Y7793228D01*
X3801821Y7801457D01*
X3805428Y7807350D01*
X3811473Y7810855D01*
X3819906Y7812024D01*
X3831082Y7812024D01*
X3831082Y7781290D01*
X3827932Y7778597D01*
X3824681Y7776718D01*
X3821226Y7775600D01*
X3817620Y7775194D01*
X3814114Y7775498D01*
X3810863Y7776362D01*
X3808018Y7777784D01*
X3805428Y7779766D01*
X3803294Y7782306D01*
X3801821Y7785404D01*
X3800906Y7789062D01*
X3800601Y7793228D01*
X3731305Y7793228D01*
X3731006Y7787640D01*
X3732276Y7773873D01*
X3736035Y7761071D01*
X3742283Y7749235D01*
X3751072Y7738364D01*
X3761689Y7729270D01*
X3773424Y7722768D01*
X3786327Y7718856D01*
X3800348Y7717536D01*
X3812743Y7718196D01*
X3823970Y7720126D01*
X3834079Y7723378D01*
X3843020Y7727899D01*
X3850843Y7733741D01*
X3857498Y7740903D01*
X3859326Y7737602D01*
X3861409Y7734553D01*
X3863898Y7731759D01*
X3866642Y7729220D01*
X3873754Y7724089D01*
X3881932Y7720431D01*
X3891178Y7718247D01*
X3901440Y7717536D01*
X3912158Y7720990D01*
X3920490Y7731252D01*
X3925824Y7744815D01*
X3927601Y7758684D01*
X3927348Y7765389D01*
X3926636Y7771333D01*
X3925468Y7776464D01*
X3923792Y7780781D01*
X3921709Y7784338D01*
X3919220Y7786878D01*
X3916375Y7788402D01*
X3913124Y7788909D01*
X3899408Y7788909D01*
X3899408Y7851902D01*
X3898392Y7869072D01*
X3895344Y7883956D01*
X3890264Y7896606D01*
X3883151Y7907020D01*
X3877005Y7912709D01*
X3869588Y7917332D01*
X3860850Y7920939D01*
X3850843Y7923479D01*
X3839565Y7925053D01*
G37*
G36*
X4182364Y7925562D02*
G01*
X4168698Y7924800D01*
X4155998Y7922463D01*
X4144264Y7918653D01*
X4133494Y7913268D01*
X4123639Y7906359D01*
X4114800Y7897875D01*
X4107179Y7888122D01*
X4100982Y7877200D01*
X4096156Y7865109D01*
X4092651Y7851800D01*
X4090619Y7837322D01*
X4089919Y7821930D01*
X4160012Y7821930D01*
X4161434Y7838033D01*
X4165650Y7849565D01*
X4172712Y7856474D01*
X4182618Y7858759D01*
X4192422Y7856474D01*
X4199382Y7849565D01*
X4203598Y7838033D01*
X4204970Y7821930D01*
X4203598Y7805826D01*
X4199382Y7794294D01*
X4192422Y7787386D01*
X4182618Y7785100D01*
X4172712Y7787386D01*
X4165650Y7794294D01*
X4161434Y7805826D01*
X4160012Y7821930D01*
X4089919Y7821930D01*
X4090619Y7806029D01*
X4092651Y7791500D01*
X4096156Y7778191D01*
X4100982Y7765999D01*
X4107179Y7755026D01*
X4114800Y7745222D01*
X4123639Y7736738D01*
X4133494Y7729829D01*
X4144264Y7724444D01*
X4155998Y7720634D01*
X4168698Y7718298D01*
X4182364Y7717536D01*
X4196029Y7718298D01*
X4208678Y7720634D01*
X4220311Y7724444D01*
X4231030Y7729829D01*
X4240733Y7736738D01*
X4249420Y7745222D01*
X4257040Y7755026D01*
X4263237Y7765999D01*
X4268063Y7778191D01*
X4271568Y7791500D01*
X4273600Y7806029D01*
X4274312Y7821675D01*
X4273600Y7837322D01*
X4271568Y7851800D01*
X4268063Y7865109D01*
X4263237Y7877200D01*
X4257040Y7888122D01*
X4249420Y7897875D01*
X4240733Y7906359D01*
X4231030Y7913268D01*
X4220311Y7918653D01*
X4208678Y7922463D01*
X4196029Y7924800D01*
G37*
G36*
X4318254Y7925562D02*
G01*
X4310430Y7924342D01*
X4303979Y7920786D01*
X4299000Y7914792D01*
X4295444Y7906359D01*
X4293311Y7895590D01*
X4292600Y7882381D01*
X4292854Y7876794D01*
X4293565Y7871714D01*
X4294733Y7867142D01*
X4296410Y7863078D01*
X4298492Y7859623D01*
X4300880Y7857185D01*
X4303572Y7855712D01*
X4306570Y7855203D01*
X4317492Y7855203D01*
X4317492Y7722362D01*
X4319778Y7721295D01*
X4326585Y7720482D01*
X4337913Y7719771D01*
X4353814Y7719314D01*
X4369816Y7719466D01*
X4381246Y7720025D01*
X4388104Y7720888D01*
X4390390Y7722108D01*
X4390390Y7833614D01*
X4391304Y7844078D01*
X4394149Y7851495D01*
X4398822Y7856016D01*
X4405376Y7857490D01*
X4408119Y7857337D01*
X4414113Y7855915D01*
X4424680Y7851648D01*
X4425289Y7852105D01*
X4429506Y7858759D01*
X4431538Y7862976D01*
X4433519Y7868208D01*
X4435449Y7874508D01*
X4437380Y7881874D01*
X4440224Y7895437D01*
X4440936Y7900466D01*
X4441190Y7904225D01*
X4440885Y7909610D01*
X4439920Y7913624D01*
X4430522Y7922564D01*
X4411980Y7925562D01*
X4397197Y7923174D01*
X4382770Y7915909D01*
X4370222Y7904378D01*
X4360418Y7889494D01*
X4357370Y7902905D01*
X4348226Y7914640D01*
X4334764Y7922818D01*
G37*
G36*
X5728716Y7925562D02*
G01*
X5715711Y7924749D01*
X5703519Y7922310D01*
X5692089Y7918246D01*
X5681421Y7912557D01*
X5671515Y7905292D01*
X5662422Y7896352D01*
X5654446Y7886090D01*
X5647893Y7874812D01*
X5642813Y7862519D01*
X5639155Y7849158D01*
X5636952Y7834375D01*
X5710174Y7834375D01*
X5710174Y7846822D01*
X5710529Y7850987D01*
X5711596Y7854645D01*
X5713323Y7857744D01*
X5715762Y7860284D01*
X5718556Y7862265D01*
X5721654Y7863738D01*
X5725058Y7864551D01*
X5728716Y7864856D01*
X5740908Y7860639D01*
X5744972Y7848092D01*
X5741670Y7837779D01*
X5731764Y7834375D01*
X5636952Y7834375D01*
X5636260Y7819390D01*
X5637022Y7804048D01*
X5639257Y7789875D01*
X5643067Y7776819D01*
X5648350Y7764983D01*
X5655157Y7754264D01*
X5663438Y7744714D01*
X5672836Y7736433D01*
X5682945Y7729626D01*
X5693714Y7724343D01*
X5705195Y7720533D01*
X5717387Y7718298D01*
X5730240Y7717536D01*
X5743041Y7717942D01*
X5755030Y7719212D01*
X5766257Y7721295D01*
X5776620Y7724190D01*
X5786221Y7727950D01*
X5795010Y7732522D01*
X5798362Y7734808D01*
X5800750Y7738109D01*
X5802172Y7742428D01*
X5802630Y7747762D01*
X5800191Y7760970D01*
X5791606Y7779359D01*
X5789828Y7782153D01*
X5789422Y7782306D01*
X5776671Y7776768D01*
X5763564Y7772755D01*
X5750153Y7770418D01*
X5736336Y7769606D01*
X5730240Y7769910D01*
X5724956Y7770723D01*
X5720486Y7772196D01*
X5716778Y7774178D01*
X5713882Y7776921D01*
X5711850Y7780578D01*
X5710580Y7785201D01*
X5710174Y7790688D01*
X5737860Y7790688D01*
X5751982Y7791348D01*
X5764631Y7793278D01*
X5775807Y7796530D01*
X5785510Y7801102D01*
X5793689Y7806944D01*
X5800394Y7814106D01*
X5805576Y7822539D01*
X5809284Y7832293D01*
X5811520Y7843367D01*
X5812282Y7855712D01*
X5810910Y7869783D01*
X5806795Y7882686D01*
X5799988Y7894523D01*
X5790438Y7905242D01*
X5782665Y7911439D01*
X5773877Y7916519D01*
X5764072Y7920481D01*
X5753303Y7923326D01*
X5741517Y7925003D01*
G37*
G36*
X5855462Y7925562D02*
G01*
X5842254Y7921193D01*
X5833110Y7908036D01*
X5829503Y7895590D01*
X5828284Y7883144D01*
X5828487Y7878013D01*
X5829046Y7872730D01*
X5834126Y7859572D01*
X5842762Y7855203D01*
X5853176Y7855203D01*
X5853176Y7725664D01*
X5855665Y7724140D01*
X5863132Y7722870D01*
X5875629Y7721853D01*
X5893054Y7721092D01*
X5914745Y7721803D01*
X5922010Y7723886D01*
X5922010Y7852409D01*
X5925159Y7854442D01*
X5931154Y7857490D01*
X5937504Y7859979D01*
X5940094Y7860588D01*
X5942330Y7860792D01*
X5952794Y7855762D01*
X5956300Y7840725D01*
X5956300Y7725156D01*
X5958433Y7723022D01*
X5964885Y7721549D01*
X5975604Y7720634D01*
X5990590Y7720330D01*
X6005474Y7720634D01*
X6016091Y7721549D01*
X6022492Y7723022D01*
X6024626Y7725156D01*
X6024626Y7845298D01*
X6024219Y7858861D01*
X6022898Y7871104D01*
X6020765Y7881975D01*
X6017717Y7891576D01*
X6013856Y7899857D01*
X6009132Y7906766D01*
X6000089Y7914995D01*
X5988608Y7920888D01*
X5974791Y7924393D01*
X5958586Y7925562D01*
X5947257Y7924952D01*
X5936437Y7923174D01*
X5926226Y7920177D01*
X5916472Y7915960D01*
X5907278Y7910575D01*
X5898642Y7903972D01*
X5896102Y7907528D01*
X5892596Y7911134D01*
X5888126Y7914792D01*
X5882640Y7918450D01*
X5869889Y7923784D01*
G37*
G36*
X1326134Y7925308D02*
G01*
X1311249Y7924546D01*
X1297381Y7922209D01*
X1284528Y7918297D01*
X1272743Y7912912D01*
X1261973Y7905902D01*
X1252220Y7897368D01*
X1243685Y7887563D01*
X1236675Y7876540D01*
X1231239Y7864348D01*
X1227378Y7850987D01*
X1225042Y7836408D01*
X1224319Y7819644D01*
X1297178Y7819644D01*
X1297940Y7831988D01*
X1300124Y7842097D01*
X1303832Y7849920D01*
X1309014Y7855559D01*
X1315720Y7858912D01*
X1323848Y7860030D01*
X1328420Y7859725D01*
X1332992Y7858759D01*
X1332992Y7782814D01*
X1327454Y7781848D01*
X1321054Y7781544D01*
X1317650Y7781899D01*
X1314246Y7782864D01*
X1310894Y7784541D01*
X1307592Y7786878D01*
X1299768Y7798866D01*
X1297178Y7819644D01*
X1224319Y7819644D01*
X1224889Y7804962D01*
X1226667Y7790637D01*
X1229614Y7777581D01*
X1233779Y7765897D01*
X1239113Y7755534D01*
X1245616Y7746492D01*
X1253134Y7738872D01*
X1261668Y7732674D01*
X1271168Y7727797D01*
X1281633Y7724343D01*
X1293114Y7722311D01*
X1305560Y7721600D01*
X1317650Y7722412D01*
X1332992Y7724902D01*
X1332992Y7712709D01*
X1327505Y7701076D01*
X1311148Y7697216D01*
X1296162Y7697927D01*
X1281633Y7700111D01*
X1267561Y7703769D01*
X1253998Y7708900D01*
X1250340Y7701991D01*
X1247698Y7693406D01*
X1246124Y7683195D01*
X1245616Y7671308D01*
X1245870Y7667345D01*
X1246581Y7663180D01*
X1247749Y7658760D01*
X1249426Y7654036D01*
X1259535Y7651089D01*
X1270101Y7648651D01*
X1281125Y7646822D01*
X1292555Y7645450D01*
X1304442Y7644638D01*
X1316736Y7644384D01*
X1328877Y7644841D01*
X1340256Y7646111D01*
X1350873Y7648295D01*
X1360779Y7651394D01*
X1369872Y7655306D01*
X1378204Y7660131D01*
X1388770Y7668869D01*
X1396288Y7679385D01*
X1400810Y7691628D01*
X1402334Y7705598D01*
X1402334Y7904734D01*
X1391869Y7911033D01*
X1380540Y7916164D01*
X1368298Y7920177D01*
X1355140Y7923022D01*
X1341069Y7924749D01*
G37*
G36*
X5232654Y7923530D02*
G01*
X5217668Y7923275D01*
X5206949Y7922463D01*
X5200497Y7921091D01*
X5198364Y7919212D01*
X5198364Y7801102D01*
X5198872Y7786928D01*
X5200396Y7774127D01*
X5202936Y7762748D01*
X5206492Y7752791D01*
X5211064Y7744256D01*
X5216652Y7737094D01*
X5223408Y7731099D01*
X5231231Y7726222D01*
X5240223Y7722412D01*
X5250281Y7719720D01*
X5261508Y7718094D01*
X5273802Y7717536D01*
X5287670Y7718907D01*
X5301030Y7722920D01*
X5313934Y7729677D01*
X5326380Y7739125D01*
X5326634Y7739634D01*
X5333949Y7729981D01*
X5343042Y7723073D01*
X5353761Y7718907D01*
X5366258Y7717536D01*
X5378500Y7722006D01*
X5387848Y7735316D01*
X5392013Y7748727D01*
X5393436Y7761986D01*
X5392572Y7773314D01*
X5390083Y7781442D01*
X5385866Y7786268D01*
X5379974Y7787894D01*
X5369560Y7787894D01*
X5369560Y7919212D01*
X5361076Y7922259D01*
X5335524Y7923275D01*
X5320639Y7923022D01*
X5310022Y7922259D01*
X5303621Y7920990D01*
X5301488Y7919212D01*
X5301488Y7790688D01*
X5295646Y7787030D01*
X5290108Y7784388D01*
X5284876Y7782814D01*
X5279898Y7782306D01*
X5270347Y7787335D01*
X5267198Y7802372D01*
X5267198Y7919212D01*
X5265013Y7921091D01*
X5258562Y7922463D01*
X5247792Y7923275D01*
G37*
G36*
X2874010Y7215631D02*
G01*
X2863850Y7214870D01*
X2854756Y7212634D01*
X2846730Y7208926D01*
X2839720Y7203694D01*
X2829814Y7190181D01*
X2826512Y7173975D01*
X2828544Y7157821D01*
X2834640Y7145020D01*
X2836214Y7142886D01*
X2840278Y7138822D01*
X2845308Y7135012D01*
X2849473Y7132218D01*
X2863748Y7125004D01*
X2868168Y7122312D01*
X2869692Y7121144D01*
X2870708Y7119975D01*
X2871419Y7118654D01*
X2871825Y7117283D01*
X2871978Y7115809D01*
X2871470Y7112914D01*
X2869895Y7110831D01*
X2867253Y7109612D01*
X2863596Y7109206D01*
X2859227Y7109561D01*
X2854858Y7110526D01*
X2850337Y7112203D01*
X2841447Y7116927D01*
X2834843Y7121042D01*
X2832608Y7122668D01*
X2830982Y7121042D01*
X2829356Y7118705D01*
X2827782Y7115708D01*
X2826258Y7112000D01*
X2824937Y7107936D01*
X2823972Y7103872D01*
X2823413Y7099808D01*
X2823210Y7095744D01*
X2823667Y7091832D01*
X2824988Y7088174D01*
X2827223Y7084822D01*
X2830322Y7081774D01*
X2834132Y7079081D01*
X2838246Y7076897D01*
X2842666Y7075170D01*
X2847340Y7073900D01*
X2857550Y7072375D01*
X2868930Y7071868D01*
X2880461Y7072934D01*
X2890418Y7075627D01*
X2898749Y7079894D01*
X2905506Y7085838D01*
X2910636Y7093153D01*
X2914294Y7101484D01*
X2916478Y7110679D01*
X2917190Y7120890D01*
X2914548Y7135723D01*
X2906522Y7147306D01*
X2901543Y7151624D01*
X2896870Y7154925D01*
X2892501Y7157669D01*
X2873857Y7167067D01*
X2871520Y7168946D01*
X2870149Y7171029D01*
X2869692Y7173214D01*
X2870301Y7176312D01*
X2872181Y7178548D01*
X2875280Y7179868D01*
X2879598Y7180325D01*
X2884830Y7179919D01*
X2890469Y7178700D01*
X2896412Y7176617D01*
X2902712Y7173722D01*
X2903778Y7174941D01*
X2905150Y7177328D01*
X2908808Y7185659D01*
X2910687Y7190740D01*
X2912059Y7195362D01*
X2912872Y7199528D01*
X2913126Y7204456D01*
X2912262Y7206843D01*
X2909874Y7209028D01*
X2906014Y7210958D01*
X2900680Y7212584D01*
X2887929Y7214870D01*
G37*
G36*
X2297938Y7214108D02*
G01*
X2291029Y7213904D01*
X2286152Y7213346D01*
X2283155Y7212380D01*
X2282190Y7211059D01*
X2282190Y7077202D01*
X2283358Y7075627D01*
X2286812Y7074509D01*
X2292604Y7073849D01*
X2300732Y7073646D01*
X2308860Y7073849D01*
X2314651Y7074560D01*
X2318105Y7075627D01*
X2319274Y7077202D01*
X2319274Y7139431D01*
X2352548Y7077202D01*
X2354478Y7075881D01*
X2358593Y7074916D01*
X2364790Y7074357D01*
X2373122Y7074153D01*
X2381351Y7074408D01*
X2387244Y7075170D01*
X2390749Y7076440D01*
X2391918Y7078218D01*
X2391918Y7210044D01*
X2390749Y7211720D01*
X2387244Y7212888D01*
X2381351Y7213600D01*
X2373122Y7213853D01*
X2364994Y7213600D01*
X2359202Y7212888D01*
X2355748Y7211720D01*
X2354580Y7210044D01*
X2354580Y7147306D01*
X2322576Y7208774D01*
X2321255Y7210196D01*
X2319121Y7211364D01*
X2316175Y7212330D01*
X2312416Y7213092D01*
X2304745Y7213853D01*
G37*
G36*
X2195322Y7213853D02*
G01*
X2193798Y7213295D01*
X2192477Y7211720D01*
X2191359Y7208977D01*
X2190496Y7205218D01*
X2189988Y7196581D01*
X2190496Y7188200D01*
X2191359Y7184440D01*
X2192477Y7181697D01*
X2193798Y7180122D01*
X2195322Y7179564D01*
X2209546Y7179564D01*
X2209546Y7108190D01*
X2195830Y7108190D01*
X2194204Y7107681D01*
X2192934Y7106107D01*
X2191918Y7103465D01*
X2190902Y7097623D01*
X2190546Y7093305D01*
X2190546Y7088936D01*
X2190902Y7084618D01*
X2191918Y7078776D01*
X2192934Y7076084D01*
X2194204Y7074458D01*
X2195830Y7073900D01*
X2263140Y7073900D01*
X2264765Y7074458D01*
X2266137Y7076084D01*
X2267204Y7078776D01*
X2268321Y7084618D01*
X2268677Y7088936D01*
X2268677Y7093305D01*
X2268321Y7097623D01*
X2267204Y7103465D01*
X2266137Y7106107D01*
X2264765Y7107681D01*
X2263140Y7108190D01*
X2249170Y7108190D01*
X2249170Y7179564D01*
X2262632Y7179564D01*
X2264156Y7180122D01*
X2265426Y7181697D01*
X2266442Y7184440D01*
X2267559Y7190231D01*
X2267915Y7194448D01*
X2267915Y7198817D01*
X2267559Y7203135D01*
X2266442Y7208977D01*
X2265426Y7211720D01*
X2264156Y7213295D01*
X2262632Y7213853D01*
G37*
G36*
X2408428Y7213853D02*
G01*
X2406802Y7213295D01*
X2405430Y7211568D01*
X2404364Y7208723D01*
X2403602Y7204709D01*
X2403144Y7198106D01*
X2403144Y7193432D01*
X2403602Y7186675D01*
X2404364Y7182662D01*
X2405430Y7179818D01*
X2406802Y7178090D01*
X2408428Y7177531D01*
X2432304Y7177531D01*
X2432304Y7077202D01*
X2433523Y7075424D01*
X2437231Y7074153D01*
X2443429Y7073392D01*
X2452116Y7073138D01*
X2460802Y7073392D01*
X2467000Y7074153D01*
X2470708Y7075424D01*
X2471928Y7077202D01*
X2471928Y7177531D01*
X2495296Y7177531D01*
X2496921Y7178090D01*
X2498293Y7179818D01*
X2499360Y7182662D01*
X2500477Y7188860D01*
X2500833Y7193432D01*
X2500833Y7198106D01*
X2500477Y7202525D01*
X2499360Y7208723D01*
X2498293Y7211568D01*
X2496921Y7213295D01*
X2495296Y7213853D01*
G37*
G36*
X2516886Y7213853D02*
G01*
X2514904Y7213549D01*
X2513431Y7212584D01*
X2512618Y7211009D01*
X2512314Y7208774D01*
X2512314Y7079996D01*
X2512771Y7077303D01*
X2514142Y7075424D01*
X2516479Y7074255D01*
X2519680Y7073900D01*
X2588260Y7073900D01*
X2589580Y7074306D01*
X2590698Y7075627D01*
X2591612Y7077760D01*
X2592324Y7080758D01*
X2593086Y7086904D01*
X2593340Y7091680D01*
X2593238Y7095845D01*
X2592832Y7099808D01*
X2592070Y7103719D01*
X2591054Y7106462D01*
X2589784Y7108139D01*
X2588260Y7108698D01*
X2551430Y7108698D01*
X2551430Y7128764D01*
X2576830Y7128764D01*
X2577896Y7129119D01*
X2578811Y7130186D01*
X2579522Y7131913D01*
X2580132Y7134352D01*
X2580690Y7139736D01*
X2580894Y7144258D01*
X2580640Y7150353D01*
X2579928Y7154722D01*
X2578760Y7157364D01*
X2577084Y7158228D01*
X2551430Y7158228D01*
X2551430Y7178548D01*
X2588514Y7178548D01*
X2590292Y7179665D01*
X2591562Y7182916D01*
X2592324Y7188403D01*
X2592578Y7196074D01*
X2592324Y7203846D01*
X2591562Y7209434D01*
X2590292Y7212736D01*
X2588514Y7213853D01*
G37*
G36*
X2618232Y7213853D02*
G01*
X2615031Y7213447D01*
X2612694Y7212126D01*
X2611323Y7209993D01*
X2610866Y7206996D01*
X2610866Y7178548D01*
X2653284Y7178548D01*
X2657195Y7178344D01*
X2660446Y7177684D01*
X2663139Y7176566D01*
X2665222Y7174992D01*
X2666898Y7173010D01*
X2668066Y7170521D01*
X2668778Y7167676D01*
X2669032Y7164324D01*
X2664256Y7152487D01*
X2649982Y7148575D01*
X2648966Y7148575D01*
X2648966Y7178548D01*
X2610866Y7178548D01*
X2610866Y7076440D01*
X2612034Y7075119D01*
X2615641Y7074153D01*
X2621584Y7073595D01*
X2629916Y7073392D01*
X2638247Y7073595D01*
X2644190Y7074204D01*
X2647797Y7075271D01*
X2648966Y7076694D01*
X2648966Y7122159D01*
X2655316Y7122159D01*
X2674112Y7078218D01*
X2676245Y7075779D01*
X2678887Y7074001D01*
X2681986Y7072985D01*
X2685542Y7072630D01*
X2689707Y7073188D01*
X2694432Y7074763D01*
X2699613Y7077506D01*
X2705354Y7081266D01*
X2709316Y7084314D01*
X2712415Y7087158D01*
X2714548Y7089800D01*
X2715768Y7092188D01*
X2690622Y7134352D01*
X2694787Y7137552D01*
X2698445Y7141260D01*
X2701544Y7145528D01*
X2704084Y7150353D01*
X2706217Y7155586D01*
X2707690Y7161072D01*
X2708605Y7166864D01*
X2708910Y7172959D01*
X2708097Y7182561D01*
X2705608Y7190841D01*
X2701493Y7197902D01*
X2695752Y7203643D01*
X2688386Y7208113D01*
X2679344Y7211314D01*
X2668676Y7213193D01*
X2656332Y7213853D01*
G37*
G36*
X2733294Y7213853D02*
G01*
X2731312Y7213549D01*
X2729890Y7212584D01*
X2729026Y7211009D01*
X2728722Y7208774D01*
X2728722Y7079996D01*
X2729179Y7077303D01*
X2730652Y7075424D01*
X2732989Y7074255D01*
X2736342Y7073900D01*
X2804922Y7073900D01*
X2806192Y7074306D01*
X2807258Y7075627D01*
X2808122Y7077760D01*
X2809290Y7084009D01*
X2809900Y7089495D01*
X2809951Y7093813D01*
X2809697Y7097877D01*
X2808732Y7103719D01*
X2807716Y7106462D01*
X2806446Y7108139D01*
X2804922Y7108698D01*
X2768092Y7108698D01*
X2768092Y7128764D01*
X2793492Y7128764D01*
X2794558Y7129119D01*
X2795473Y7130186D01*
X2796184Y7131913D01*
X2796794Y7134352D01*
X2797352Y7139736D01*
X2797556Y7144258D01*
X2797302Y7150353D01*
X2796590Y7154722D01*
X2795422Y7157364D01*
X2793746Y7158228D01*
X2768092Y7158228D01*
X2768092Y7178548D01*
X2804922Y7178548D01*
X2806801Y7179665D01*
X2808173Y7182916D01*
X2808986Y7188403D01*
X2809240Y7196074D01*
X2808986Y7203846D01*
X2808173Y7209434D01*
X2806801Y7212736D01*
X2804922Y7213853D01*
G37*
G36*
X2930144Y7213853D02*
G01*
X2928620Y7213295D01*
X2927299Y7211568D01*
X2926181Y7208723D01*
X2925318Y7204709D01*
X2924860Y7198106D01*
X2924860Y7193432D01*
X2925318Y7186675D01*
X2926181Y7182662D01*
X2927299Y7179818D01*
X2928620Y7178090D01*
X2930144Y7177531D01*
X2954274Y7177531D01*
X2954274Y7077202D01*
X2955493Y7075424D01*
X2959252Y7074153D01*
X2965399Y7073392D01*
X2974086Y7073138D01*
X2982772Y7073392D01*
X2988970Y7074153D01*
X2992678Y7075424D01*
X2993898Y7077202D01*
X2993898Y7177531D01*
X3017266Y7177531D01*
X3018790Y7178090D01*
X3020110Y7179818D01*
X3021228Y7182662D01*
X3022092Y7186675D01*
X3022600Y7195820D01*
X3022092Y7204709D01*
X3021228Y7208723D01*
X3020110Y7211568D01*
X3018790Y7213295D01*
X3017266Y7213853D01*
G37*
G36*
X1941830Y7201408D02*
G01*
X1939798Y7201103D01*
X1938274Y7200138D01*
X1891131Y7143750D01*
X1890115Y7141565D01*
X1890014Y7140448D01*
X1890166Y7139381D01*
X1891588Y7136993D01*
X1939036Y7084314D01*
X1940560Y7083145D01*
X1942592Y7082790D01*
X1945132Y7083298D01*
X1950770Y7085838D01*
X1952650Y7087108D01*
X1954326Y7088631D01*
X1957019Y7092188D01*
X1958441Y7094829D01*
X1958492Y7096607D01*
X1957882Y7098131D01*
X1916430Y7140956D01*
X1957374Y7186320D01*
X1957984Y7187844D01*
X1957933Y7189622D01*
X1956511Y7192111D01*
X1953818Y7195566D01*
X1952091Y7197090D01*
X1950262Y7198359D01*
X1946249Y7200239D01*
X1943100Y7201306D01*
G37*
G36*
X3261106Y7201408D02*
G01*
X3258515Y7200900D01*
X3252673Y7198359D01*
X3250793Y7197090D01*
X3249117Y7195566D01*
X3246526Y7192111D01*
X3245256Y7189622D01*
X3245154Y7187844D01*
X3245662Y7186320D01*
X3286506Y7140956D01*
X3245053Y7098131D01*
X3244443Y7096607D01*
X3244494Y7094829D01*
X3245916Y7092188D01*
X3248507Y7088631D01*
X3250133Y7087108D01*
X3251962Y7085838D01*
X3256026Y7083907D01*
X3259328Y7082942D01*
X3261563Y7082891D01*
X3263239Y7083653D01*
X3310128Y7135622D01*
X3312210Y7138212D01*
X3312769Y7139381D01*
X3312922Y7140448D01*
X3312820Y7141565D01*
X3311804Y7143750D01*
X3264662Y7200138D01*
X3263036Y7201103D01*
G37*
G36*
X1989328Y7135114D02*
G01*
X1987702Y7134758D01*
X1986280Y7133640D01*
X1985162Y7131812D01*
X1983892Y7127748D01*
X1983536Y7124852D01*
X1983536Y7122007D01*
X1983892Y7119112D01*
X1985162Y7115149D01*
X1986280Y7113371D01*
X1987702Y7112355D01*
X1989328Y7112000D01*
X2068322Y7112000D01*
X2069998Y7112355D01*
X2071420Y7113371D01*
X2072639Y7115149D01*
X2073656Y7117588D01*
X2074214Y7120585D01*
X2074418Y7123430D01*
X2074214Y7126274D01*
X2073656Y7129272D01*
X2072639Y7131812D01*
X2071420Y7133640D01*
X2069998Y7134758D01*
X2068322Y7135114D01*
G37*
G36*
X2094484Y7135114D02*
G01*
X2092706Y7134758D01*
X2091232Y7133640D01*
X2090064Y7131812D01*
X2088794Y7127748D01*
X2088438Y7124852D01*
X2088438Y7122007D01*
X2088794Y7119112D01*
X2090064Y7115149D01*
X2091232Y7113371D01*
X2092706Y7112355D01*
X2094484Y7112000D01*
X2173478Y7112000D01*
X2175154Y7112355D01*
X2176526Y7113371D01*
X2177694Y7115149D01*
X2178913Y7119112D01*
X2179269Y7122007D01*
X2179269Y7124852D01*
X2178913Y7127748D01*
X2177694Y7131812D01*
X2176526Y7133640D01*
X2175154Y7134758D01*
X2173478Y7135114D01*
G37*
G36*
X3037078Y7135114D02*
G01*
X3035401Y7134758D01*
X3033979Y7133640D01*
X3032760Y7131812D01*
X3031744Y7129272D01*
X3031185Y7126274D01*
X3030982Y7123430D01*
X3031185Y7120585D01*
X3031744Y7117588D01*
X3032760Y7115149D01*
X3033979Y7113371D01*
X3035401Y7112355D01*
X3037078Y7112000D01*
X3116072Y7112000D01*
X3117697Y7112355D01*
X3119120Y7113371D01*
X3120237Y7115149D01*
X3121507Y7119112D01*
X3121863Y7122007D01*
X3121863Y7124852D01*
X3121507Y7127748D01*
X3120237Y7131812D01*
X3119120Y7133640D01*
X3117697Y7134758D01*
X3116072Y7135114D01*
G37*
G36*
X3141980Y7135114D02*
G01*
X3140354Y7134758D01*
X3138932Y7133640D01*
X3137763Y7131812D01*
X3136442Y7127748D01*
X3135934Y7124852D01*
X3135934Y7122007D01*
X3136442Y7119112D01*
X3137763Y7115149D01*
X3138932Y7113371D01*
X3140354Y7112355D01*
X3141980Y7112000D01*
X3220974Y7112000D01*
X3222650Y7112355D01*
X3224072Y7113371D01*
X3225292Y7115149D01*
X3226308Y7117588D01*
X3226866Y7120585D01*
X3227070Y7123430D01*
X3226866Y7126274D01*
X3226308Y7129272D01*
X3225292Y7131812D01*
X3224072Y7133640D01*
X3222650Y7134758D01*
X3220974Y7135114D01*
G37*
D10*
X9194800Y9360915D02*
G01*
X9194800Y9282937D01*
X9199879Y9267444D01*
X9210293Y9257029D01*
X9226041Y9251950D01*
X9236456Y9251950D01*
X9251950Y9257029D01*
X9262363Y9267444D01*
X9267443Y9282937D01*
X9267443Y9360915D01*
X9307068Y9335008D02*
G01*
X9307068Y9340087D01*
X9312147Y9350502D01*
X9317481Y9355836D01*
X9327895Y9360915D01*
X9348470Y9360915D01*
X9358884Y9355836D01*
X9364218Y9350502D01*
X9369297Y9340087D01*
X9369297Y9329674D01*
X9364218Y9319260D01*
X9353804Y9303765D01*
X9301734Y9251950D01*
X9374631Y9251950D01*
X7581900Y8560815D02*
G01*
X7581900Y8482837D01*
X7586979Y8467344D01*
X7597393Y8456929D01*
X7613141Y8451850D01*
X7623556Y8451850D01*
X7639050Y8456929D01*
X7649463Y8467344D01*
X7654543Y8482837D01*
X7654543Y8560815D01*
X7699247Y8560815D02*
G01*
X7756397Y8560815D01*
X7725409Y8519160D01*
X7740904Y8519160D01*
X7751318Y8514079D01*
X7756397Y8509000D01*
X7761731Y8493252D01*
X7761731Y8482837D01*
X7756397Y8467344D01*
X7745984Y8456929D01*
X7730490Y8451850D01*
X7714995Y8451850D01*
X7699247Y8456929D01*
X7694168Y8462010D01*
X7688834Y8472424D01*
X9194800Y8573515D02*
G01*
X9194800Y8495537D01*
X9199879Y8480044D01*
X9210293Y8469629D01*
X9226041Y8464550D01*
X9236456Y8464550D01*
X9251950Y8469629D01*
X9262363Y8480044D01*
X9267443Y8495537D01*
X9267443Y8573515D01*
X9353804Y8573515D02*
G01*
X9301734Y8500871D01*
X9379711Y8500871D01*
X9353804Y8573515D02*
G01*
X9353804Y8464550D01*
X7594600Y7913115D02*
G01*
X7594600Y7835137D01*
X7599679Y7819644D01*
X7610093Y7809229D01*
X7625841Y7804150D01*
X7636256Y7804150D01*
X7651750Y7809229D01*
X7662163Y7819644D01*
X7667243Y7835137D01*
X7667243Y7913115D01*
X7764018Y7913115D02*
G01*
X7711947Y7913115D01*
X7706868Y7866379D01*
X7711947Y7871460D01*
X7727695Y7876794D01*
X7743190Y7876794D01*
X7758684Y7871460D01*
X7769097Y7861300D01*
X7774431Y7845552D01*
X7774431Y7835137D01*
X7769097Y7819644D01*
X7758684Y7809229D01*
X7743190Y7804150D01*
X7727695Y7804150D01*
X7711947Y7809229D01*
X7706868Y7814310D01*
X7701534Y7824723D01*
X9194800Y7887715D02*
G01*
X9194800Y7809737D01*
X9199879Y7794244D01*
X9210293Y7783829D01*
X9226041Y7778750D01*
X9236456Y7778750D01*
X9251950Y7783829D01*
X9262363Y7794244D01*
X9267443Y7809737D01*
X9267443Y7887715D01*
X9364218Y7872221D02*
G01*
X9358884Y7882636D01*
X9343390Y7887715D01*
X9332975Y7887715D01*
X9317481Y7882636D01*
X9307068Y7866887D01*
X9301734Y7840979D01*
X9301734Y7815071D01*
X9307068Y7794244D01*
X9317481Y7783829D01*
X9332975Y7778750D01*
X9338309Y7778750D01*
X9353804Y7783829D01*
X9364218Y7794244D01*
X9369297Y7809737D01*
X9369297Y7815071D01*
X9364218Y7830565D01*
X9353804Y7840979D01*
X9338309Y7846060D01*
X9332975Y7846060D01*
X9317481Y7840979D01*
X9307068Y7830565D01*
X9301734Y7815071D01*
X7645400Y9360915D02*
G01*
X7645400Y9282937D01*
X7650479Y9267444D01*
X7660893Y9257029D01*
X7676641Y9251950D01*
X7687056Y9251950D01*
X7702550Y9257029D01*
X7712963Y9267444D01*
X7718043Y9282937D01*
X7718043Y9360915D01*
X7752334Y9340087D02*
G01*
X7762747Y9345421D01*
X7778495Y9360915D01*
X7778495Y9251950D01*
D11*
X9144000Y9182100D02*
G01*
X9144000Y9436100D01*
X8750300Y9461500D02*
G01*
X8826500Y9461500D01*
X8788400Y9423400D02*
G01*
X8788400Y9499600D01*
X8369300Y8407400D02*
G01*
X8369300Y8661400D01*
X7975600Y8686800D02*
G01*
X8051800Y8686800D01*
X8013700Y8648700D02*
G01*
X8013700Y8724900D01*
X9144000Y8407400D02*
G01*
X9144000Y8661400D01*
X8750300Y8686800D02*
G01*
X8826500Y8686800D01*
X8788400Y8648700D02*
G01*
X8788400Y8724900D01*
X9144000Y7708900D02*
G01*
X9144000Y7962900D01*
X8750300Y7988300D02*
G01*
X8826500Y7988300D01*
X8788400Y7950200D02*
G01*
X8788400Y8026400D01*
X8369300Y7708900D02*
G01*
X8369300Y7962900D01*
X7975600Y7988300D02*
G01*
X8051800Y7988300D01*
X8013700Y7950200D02*
G01*
X8013700Y8026400D01*
X8369300Y9182100D02*
G01*
X8369300Y9436100D01*
X7975600Y9461500D02*
G01*
X8051800Y9461500D01*
X8013700Y9423400D02*
G01*
X8013700Y9499600D01*
G75*
G01*
X9144000Y9436100D02*
G03*
X9144000Y9182100I-253999J-127000D01*
G75*
G01*
X8369300Y8661400D02*
G03*
X8369300Y8407400I-253999J-127000D01*
G75*
G01*
X9144000Y8661400D02*
G03*
X9144000Y8407400I-253999J-127000D01*
G75*
G01*
X9144000Y7962900D02*
G03*
X9144000Y7708900I-253999J-127000D01*
G75*
G01*
X8369300Y7962900D02*
G03*
X8369300Y7708900I-253999J-127000D01*
G75*
G01*
X8369300Y9436100D02*
G03*
X8369300Y9182100I-253999J-127000D01*
G75*
G01
X9140012Y9309100D02*
G03X9140012Y9309100I-250012J0D01*
G75*
G01
X8365312Y8534400D02*
G03X8365312Y8534400I-250012J0D01*
G75*
G01
X9140012Y8534400D02*
G03X9140012Y8534400I-250012J0D01*
G75*
G01
X9140012Y7835900D02*
G03X9140012Y7835900I-250012J0D01*
G75*
G01
X8365312Y7835900D02*
G03X8365312Y7835900I-250012J0D01*
G75*
G01
X8365312Y9309100D02*
G03X8365312Y9309100I-250012J0D01*
M02*
